<?xml version="1.0" encoding="utf-8" standalone="no"?>
<!DOCTYPE svg PUBLIC "-//W3C//DTD SVG 1.1//EN"
  "http://www.w3.org/Graphics/SVG/1.1/DTD/svg11.dtd">
<!-- Created with matplotlib (http://matplotlib.org/) -->
<svg height="1080pt" version="1.1" viewBox="0 0 1440 1080" width="1440pt" xmlns="http://www.w3.org/2000/svg" xmlns:xlink="http://www.w3.org/1999/xlink">
 <defs>
  <style type="text/css">
*{stroke-linecap:butt;stroke-linejoin:round;}
  </style>
 </defs>
 <g id="figure_1">
  <g id="patch_1">
   <path d="M 0 1080 
L 1440 1080 
L 1440 0 
L 0 0 
z
" style="fill:#ffffff;"/>
  </g>
  <g id="axes_1">
   <g id="patch_2">
    <path d="M 180 507.6 
L 687.272727 507.6 
L 687.272727 129.6 
L 180 129.6 
z
" style="fill:#ffffff;"/>
   </g>
   <g id="patch_3">
    <path clip-path="url(#p69df1be568)" d="M 203.057851 507.6 
L 279.917355 507.6 
L 279.917355 507.6 
L 203.057851 507.6 
z
" style="fill:#1f77b4;"/>
   </g>
   <g id="patch_4">
    <path clip-path="url(#p69df1be568)" d="M 279.917355 507.6 
L 356.77686 507.6 
L 356.77686 399.6 
L 279.917355 399.6 
z
" style="fill:#1f77b4;"/>
   </g>
   <g id="patch_5">
    <path clip-path="url(#p69df1be568)" d="M 356.77686 507.6 
L 433.636364 507.6 
L 433.636364 255.6 
L 356.77686 255.6 
z
" style="fill:#1f77b4;"/>
   </g>
   <g id="patch_6">
    <path clip-path="url(#p69df1be568)" d="M 433.636364 507.6 
L 510.495868 507.6 
L 510.495868 147.6 
L 433.636364 147.6 
z
" style="fill:#1f77b4;"/>
   </g>
   <g id="patch_7">
    <path clip-path="url(#p69df1be568)" d="M 510.495868 507.6 
L 587.355372 507.6 
L 587.355372 291.6 
L 510.495868 291.6 
z
" style="fill:#1f77b4;"/>
   </g>
   <g id="patch_8">
    <path clip-path="url(#p69df1be568)" d="M 587.355372 507.6 
L 664.214876 507.6 
L 664.214876 435.6 
L 587.355372 435.6 
z
" style="fill:#1f77b4;"/>
   </g>
   <g id="matplotlib.axis_1">
    <g id="xtick_1">
     <g id="line2d_1">
      <defs>
       <path d="M 0 0 
L 0 3.5 
" id="m37a8e5cfc4" style="stroke:#000000;stroke-width:0.8;"/>
      </defs>
      <g>
       <use style="stroke:#000000;stroke-width:0.8;" x="203.057851" xlink:href="#m37a8e5cfc4" y="507.6"/>
      </g>
     </g>
     <g id="text_1">
      <!-- 1.0 -->
      <defs>
       <path d="M 12.40625 8.296875 
L 28.515625 8.296875 
L 28.515625 63.921875 
L 10.984375 60.40625 
L 10.984375 69.390625 
L 28.421875 72.90625 
L 38.28125 72.90625 
L 38.28125 8.296875 
L 54.390625 8.296875 
L 54.390625 0 
L 12.40625 0 
z
" id="DejaVuSans-31"/>
       <path d="M 10.6875 12.40625 
L 21 12.40625 
L 21 0 
L 10.6875 0 
z
" id="DejaVuSans-2e"/>
       <path d="M 31.78125 66.40625 
Q 24.171875 66.40625 20.328125 58.90625 
Q 16.5 51.421875 16.5 36.375 
Q 16.5 21.390625 20.328125 13.890625 
Q 24.171875 6.390625 31.78125 6.390625 
Q 39.453125 6.390625 43.28125 13.890625 
Q 47.125 21.390625 47.125 36.375 
Q 47.125 51.421875 43.28125 58.90625 
Q 39.453125 66.40625 31.78125 66.40625 
z
M 31.78125 74.21875 
Q 44.046875 74.21875 50.515625 64.515625 
Q 56.984375 54.828125 56.984375 36.375 
Q 56.984375 17.96875 50.515625 8.265625 
Q 44.046875 -1.421875 31.78125 -1.421875 
Q 19.53125 -1.421875 13.0625 8.265625 
Q 6.59375 17.96875 6.59375 36.375 
Q 6.59375 54.828125 13.0625 64.515625 
Q 19.53125 74.21875 31.78125 74.21875 
z
" id="DejaVuSans-30"/>
      </defs>
      <g transform="translate(195.106289 522.198438)scale(0.1 -0.1)">
       <use xlink:href="#DejaVuSans-31"/>
       <use x="63.623047" xlink:href="#DejaVuSans-2e"/>
       <use x="95.410156" xlink:href="#DejaVuSans-30"/>
      </g>
     </g>
    </g>
    <g id="xtick_2">
     <g id="line2d_2">
      <g>
       <use style="stroke:#000000;stroke-width:0.8;" x="279.917355" xlink:href="#m37a8e5cfc4" y="507.6"/>
      </g>
     </g>
     <g id="text_2">
      <!-- 1.5 -->
      <defs>
       <path d="M 10.796875 72.90625 
L 49.515625 72.90625 
L 49.515625 64.59375 
L 19.828125 64.59375 
L 19.828125 46.734375 
Q 21.96875 47.46875 24.109375 47.828125 
Q 26.265625 48.1875 28.421875 48.1875 
Q 40.625 48.1875 47.75 41.5 
Q 54.890625 34.8125 54.890625 23.390625 
Q 54.890625 11.625 47.5625 5.09375 
Q 40.234375 -1.421875 26.90625 -1.421875 
Q 22.3125 -1.421875 17.546875 -0.640625 
Q 12.796875 0.140625 7.71875 1.703125 
L 7.71875 11.625 
Q 12.109375 9.234375 16.796875 8.0625 
Q 21.484375 6.890625 26.703125 6.890625 
Q 35.15625 6.890625 40.078125 11.328125 
Q 45.015625 15.765625 45.015625 23.390625 
Q 45.015625 31 40.078125 35.4375 
Q 35.15625 39.890625 26.703125 39.890625 
Q 22.75 39.890625 18.8125 39.015625 
Q 14.890625 38.140625 10.796875 36.28125 
z
" id="DejaVuSans-35"/>
      </defs>
      <g transform="translate(271.965793 522.198438)scale(0.1 -0.1)">
       <use xlink:href="#DejaVuSans-31"/>
       <use x="63.623047" xlink:href="#DejaVuSans-2e"/>
       <use x="95.410156" xlink:href="#DejaVuSans-35"/>
      </g>
     </g>
    </g>
    <g id="xtick_3">
     <g id="line2d_3">
      <g>
       <use style="stroke:#000000;stroke-width:0.8;" x="356.77686" xlink:href="#m37a8e5cfc4" y="507.6"/>
      </g>
     </g>
     <g id="text_3">
      <!-- 2.0 -->
      <defs>
       <path d="M 19.1875 8.296875 
L 53.609375 8.296875 
L 53.609375 0 
L 7.328125 0 
L 7.328125 8.296875 
Q 12.9375 14.109375 22.625 23.890625 
Q 32.328125 33.6875 34.8125 36.53125 
Q 39.546875 41.84375 41.421875 45.53125 
Q 43.3125 49.21875 43.3125 52.78125 
Q 43.3125 58.59375 39.234375 62.25 
Q 35.15625 65.921875 28.609375 65.921875 
Q 23.96875 65.921875 18.8125 64.3125 
Q 13.671875 62.703125 7.8125 59.421875 
L 7.8125 69.390625 
Q 13.765625 71.78125 18.9375 73 
Q 24.125 74.21875 28.421875 74.21875 
Q 39.75 74.21875 46.484375 68.546875 
Q 53.21875 62.890625 53.21875 53.421875 
Q 53.21875 48.921875 51.53125 44.890625 
Q 49.859375 40.875 45.40625 35.40625 
Q 44.1875 33.984375 37.640625 27.21875 
Q 31.109375 20.453125 19.1875 8.296875 
z
" id="DejaVuSans-32"/>
      </defs>
      <g transform="translate(348.825297 522.198438)scale(0.1 -0.1)">
       <use xlink:href="#DejaVuSans-32"/>
       <use x="63.623047" xlink:href="#DejaVuSans-2e"/>
       <use x="95.410156" xlink:href="#DejaVuSans-30"/>
      </g>
     </g>
    </g>
    <g id="xtick_4">
     <g id="line2d_4">
      <g>
       <use style="stroke:#000000;stroke-width:0.8;" x="433.636364" xlink:href="#m37a8e5cfc4" y="507.6"/>
      </g>
     </g>
     <g id="text_4">
      <!-- 2.5 -->
      <g transform="translate(425.684801 522.198438)scale(0.1 -0.1)">
       <use xlink:href="#DejaVuSans-32"/>
       <use x="63.623047" xlink:href="#DejaVuSans-2e"/>
       <use x="95.410156" xlink:href="#DejaVuSans-35"/>
      </g>
     </g>
    </g>
    <g id="xtick_5">
     <g id="line2d_5">
      <g>
       <use style="stroke:#000000;stroke-width:0.8;" x="510.495868" xlink:href="#m37a8e5cfc4" y="507.6"/>
      </g>
     </g>
     <g id="text_5">
      <!-- 3.0 -->
      <defs>
       <path d="M 40.578125 39.3125 
Q 47.65625 37.796875 51.625 33 
Q 55.609375 28.21875 55.609375 21.1875 
Q 55.609375 10.40625 48.1875 4.484375 
Q 40.765625 -1.421875 27.09375 -1.421875 
Q 22.515625 -1.421875 17.65625 -0.515625 
Q 12.796875 0.390625 7.625 2.203125 
L 7.625 11.71875 
Q 11.71875 9.328125 16.59375 8.109375 
Q 21.484375 6.890625 26.8125 6.890625 
Q 36.078125 6.890625 40.9375 10.546875 
Q 45.796875 14.203125 45.796875 21.1875 
Q 45.796875 27.640625 41.28125 31.265625 
Q 36.765625 34.90625 28.71875 34.90625 
L 20.21875 34.90625 
L 20.21875 43.015625 
L 29.109375 43.015625 
Q 36.375 43.015625 40.234375 45.921875 
Q 44.09375 48.828125 44.09375 54.296875 
Q 44.09375 59.90625 40.109375 62.90625 
Q 36.140625 65.921875 28.71875 65.921875 
Q 24.65625 65.921875 20.015625 65.03125 
Q 15.375 64.15625 9.8125 62.3125 
L 9.8125 71.09375 
Q 15.4375 72.65625 20.34375 73.4375 
Q 25.25 74.21875 29.59375 74.21875 
Q 40.828125 74.21875 47.359375 69.109375 
Q 53.90625 64.015625 53.90625 55.328125 
Q 53.90625 49.265625 50.4375 45.09375 
Q 46.96875 40.921875 40.578125 39.3125 
z
" id="DejaVuSans-33"/>
      </defs>
      <g transform="translate(502.544305 522.198438)scale(0.1 -0.1)">
       <use xlink:href="#DejaVuSans-33"/>
       <use x="63.623047" xlink:href="#DejaVuSans-2e"/>
       <use x="95.410156" xlink:href="#DejaVuSans-30"/>
      </g>
     </g>
    </g>
    <g id="xtick_6">
     <g id="line2d_6">
      <g>
       <use style="stroke:#000000;stroke-width:0.8;" x="587.355372" xlink:href="#m37a8e5cfc4" y="507.6"/>
      </g>
     </g>
     <g id="text_6">
      <!-- 3.5 -->
      <g transform="translate(579.403809 522.198438)scale(0.1 -0.1)">
       <use xlink:href="#DejaVuSans-33"/>
       <use x="63.623047" xlink:href="#DejaVuSans-2e"/>
       <use x="95.410156" xlink:href="#DejaVuSans-35"/>
      </g>
     </g>
    </g>
    <g id="xtick_7">
     <g id="line2d_7">
      <g>
       <use style="stroke:#000000;stroke-width:0.8;" x="664.214876" xlink:href="#m37a8e5cfc4" y="507.6"/>
      </g>
     </g>
     <g id="text_7">
      <!-- 4.0 -->
      <defs>
       <path d="M 37.796875 64.3125 
L 12.890625 25.390625 
L 37.796875 25.390625 
z
M 35.203125 72.90625 
L 47.609375 72.90625 
L 47.609375 25.390625 
L 58.015625 25.390625 
L 58.015625 17.1875 
L 47.609375 17.1875 
L 47.609375 0 
L 37.796875 0 
L 37.796875 17.1875 
L 4.890625 17.1875 
L 4.890625 26.703125 
z
" id="DejaVuSans-34"/>
      </defs>
      <g transform="translate(656.263314 522.198438)scale(0.1 -0.1)">
       <use xlink:href="#DejaVuSans-34"/>
       <use x="63.623047" xlink:href="#DejaVuSans-2e"/>
       <use x="95.410156" xlink:href="#DejaVuSans-30"/>
      </g>
     </g>
    </g>
    <g id="text_8">
     <!-- 绩点区间 -->
     <defs>
      <path d="M 62.890625 70.3125 
Q 62.890625 79.296875 62.5 82.03125 
L 70.703125 78.90625 
L 67.96875 76.171875 
L 67.96875 70.3125 
L 81.640625 70.3125 
L 85.9375 74.609375 
L 92.578125 67.96875 
L 67.96875 67.96875 
L 67.96875 59.375 
L 78.125 59.375 
L 82.8125 63.671875 
L 89.453125 57.03125 
L 67.96875 57.03125 
L 67.96875 48.046875 
L 85.546875 48.046875 
L 90.234375 52.34375 
L 96.484375 45.703125 
L 50 45.703125 
Q 44.53125 45.703125 40.234375 44.53125 
L 36.71875 48.046875 
L 62.890625 48.046875 
L 62.890625 57.03125 
L 57.03125 57.03125 
Q 51.5625 57.03125 47.265625 55.859375 
L 43.359375 59.375 
L 62.890625 59.375 
L 62.890625 67.96875 
L 53.125 67.96875 
Q 48.046875 67.96875 43.359375 66.796875 
L 39.84375 70.3125 
z
M 44.140625 8.203125 
Q 44.53125 17.578125 44.53125 26.359375 
Q 44.53125 35.15625 44.140625 41.796875 
L 50 38.671875 
L 80.859375 38.671875 
L 84.375 42.1875 
L 89.84375 37.109375 
L 86.328125 34.765625 
Q 86.328125 15.234375 86.71875 11.328125 
L 81.25 8.984375 
L 81.25 36.328125 
L 50 36.328125 
L 50 10.546875 
z
M 28.515625 -8.203125 
Q 42.1875 -5.078125 49.796875 -0.1875 
Q 57.421875 4.6875 59.5625 12.296875 
Q 61.71875 19.921875 61.71875 32.03125 
L 70.703125 27.734375 
L 67.578125 25.390625 
Q 66.796875 14.84375 63.28125 7.609375 
Q 59.765625 0.390625 51.171875 -3.515625 
Q 42.578125 -7.421875 28.515625 -9.765625 
z
M 69.53125 9.375 
Q 86.328125 3.515625 89.640625 0 
Q 92.96875 -3.515625 92.96875 -5.859375 
Q 92.96875 -6.640625 92.1875 -8.203125 
Q 91.40625 -9.765625 90.625 -9.765625 
Q 88.671875 -9.765625 85.15625 -5.078125 
Q 80.078125 1.953125 68.75 8.203125 
z
M 38.28125 27.34375 
Q 26.171875 25 20.5 23.234375 
Q 14.84375 21.484375 10.546875 18.359375 
L 6.640625 25.78125 
Q 9.375 26.5625 13.078125 30.265625 
Q 16.796875 33.984375 25.78125 48.046875 
Q 12.109375 45.703125 8.59375 42.96875 
L 5.46875 50 
Q 8.984375 50.390625 14.84375 62.296875 
Q 20.703125 74.21875 22.265625 82.03125 
L 30.078125 76.953125 
L 26.953125 74.609375 
Q 18.75 60.15625 10.15625 49.609375 
L 26.953125 50 
Q 30.46875 55.859375 33.203125 63.28125 
L 40.234375 57.8125 
L 36.328125 55.46875 
Q 23.828125 37.890625 13.28125 26.171875 
L 38.28125 29.296875 
z
M 6.25 5.46875 
Q 11.328125 6.25 37.5 14.84375 
L 37.890625 12.890625 
Q 12.109375 1.5625 10.15625 -1.5625 
z
" id="SimSun-7ee9"/>
      <path d="M 29.296875 45.3125 
L 29.296875 23.828125 
L 72.265625 23.828125 
L 72.265625 45.3125 
z
M 23.046875 14.453125 
Q 23.4375 22.65625 23.4375 32.03125 
Q 23.4375 41.40625 23.046875 50.78125 
L 29.296875 47.65625 
L 46.09375 47.65625 
Q 46.09375 73.828125 45.703125 81.640625 
L 54.6875 78.125 
L 51.5625 75 
L 51.5625 65.625 
L 76.953125 65.625 
L 82.03125 70.703125 
L 89.0625 63.28125 
L 51.5625 63.28125 
L 51.5625 47.65625 
L 71.484375 47.65625 
L 75.390625 51.5625 
L 81.25 45.703125 
L 77.734375 42.96875 
Q 77.734375 24.609375 78.125 17.96875 
L 72.265625 15.625 
L 72.265625 21.484375 
L 29.296875 21.484375 
L 29.296875 16.796875 
z
M 21.09375 12.5 
L 22.65625 12.5 
Q 20.3125 -2.734375 17.765625 -5.265625 
Q 15.234375 -7.8125 13.28125 -7.8125 
Q 12.109375 -7.8125 10.546875 -6.828125 
Q 8.984375 -5.859375 8.984375 -4.6875 
Q 8.984375 -3.515625 10.9375 -1.953125 
Q 14.453125 0.78125 16.203125 3.125 
Q 17.96875 5.46875 21.09375 12.5 
z
M 34.765625 10.546875 
L 35.546875 11.71875 
Q 43.75 5.46875 44.71875 2.921875 
Q 45.703125 0.390625 45.703125 -0.78125 
Q 45.703125 -3.515625 43.9375 -5.265625 
Q 42.1875 -7.03125 41.796875 -7.03125 
Q 40.234375 -7.03125 39.84375 -3.125 
Q 39.0625 2.734375 34.765625 10.546875 
z
M 55.46875 10.9375 
L 56.25 12.109375 
Q 63.671875 6.640625 65.421875 3.515625 
Q 67.1875 0.390625 67.1875 -0.78125 
Q 67.1875 -2.734375 65.421875 -4.6875 
Q 63.671875 -6.640625 63.28125 -6.640625 
Q 61.71875 -6.640625 60.9375 -1.953125 
Q 59.765625 4.6875 55.46875 10.9375 
z
M 76.5625 12.109375 
L 77.34375 13.28125 
Q 85.15625 7.8125 88.078125 3.90625 
Q 91.015625 0 91.015625 -1.953125 
Q 91.015625 -3.90625 89.453125 -5.859375 
Q 87.890625 -7.8125 87.5 -7.8125 
Q 85.9375 -7.8125 84.765625 -3.125 
Q 82.8125 3.515625 76.5625 12.109375 
z
" id="SimSun-70b9"/>
      <path d="M 31.640625 60.15625 
Q 42.1875 52.34375 55.078125 40.234375 
Q 60.15625 47.265625 63.859375 53.703125 
Q 67.578125 60.15625 69.53125 64.84375 
L 78.515625 58.59375 
Q 75 57.8125 69.921875 50.96875 
Q 64.84375 44.140625 59.375 36.71875 
Q 73.4375 23.4375 74.609375 19.921875 
Q 75.78125 16.40625 75.78125 14.453125 
Q 75.78125 12.5 74.796875 10.34375 
Q 73.828125 8.203125 73.4375 8.203125 
Q 72.265625 8.203125 70.3125 12.109375 
Q 67.1875 17.578125 63.859375 22.0625 
Q 60.546875 26.5625 55.859375 32.03125 
Q 47.65625 23.046875 40.234375 16.796875 
Q 32.8125 10.546875 26.953125 7.03125 
L 26.171875 8.203125 
Q 33.203125 14.0625 39.453125 20.5 
Q 45.703125 26.953125 51.953125 35.9375 
Q 41.40625 48.4375 30.46875 58.984375 
z
M 19.140625 73.828125 
L 77.34375 73.828125 
L 82.8125 79.296875 
L 90.234375 71.484375 
L 19.140625 71.484375 
L 19.140625 -1.5625 
L 78.90625 -1.5625 
L 84.375 3.90625 
L 91.40625 -3.90625 
L 19.53125 -3.90625 
L 17.1875 -7.421875 
L 11.328125 -2.734375 
L 13.671875 -0.390625 
L 13.671875 64.0625 
Q 13.671875 67.578125 13.28125 77.34375 
z
" id="SimSun-533a"/>
      <path d="M 33.59375 8.203125 
Q 33.984375 20.703125 33.984375 33 
Q 33.984375 45.3125 33.59375 57.421875 
L 39.453125 53.90625 
L 58.59375 53.90625 
L 62.5 57.8125 
L 67.578125 52.734375 
L 64.453125 50 
Q 64.453125 24.21875 64.84375 12.109375 
L 59.375 8.984375 
L 59.375 15.234375 
L 39.0625 15.234375 
L 39.0625 10.9375 
z
M 39.0625 51.5625 
L 39.0625 36.328125 
L 59.375 36.328125 
L 59.375 51.5625 
z
M 39.0625 33.984375 
L 39.0625 17.578125 
L 59.375 17.578125 
L 59.375 33.984375 
z
M 19.921875 81.25 
Q 28.90625 75.390625 30.46875 73.046875 
Q 32.03125 70.703125 32.03125 69.140625 
Q 32.03125 66.796875 30.46875 64.640625 
Q 28.90625 62.5 28.515625 62.5 
Q 27.34375 62.5 26.171875 66.796875 
Q 24.21875 72.65625 18.75 80.078125 
z
M 17.578125 6.640625 
Q 17.578125 0.390625 17.96875 -5.859375 
L 11.71875 -8.203125 
Q 12.109375 -2.34375 12.109375 30.46875 
Q 12.109375 63.28125 11.71875 69.140625 
L 21.09375 64.453125 
L 17.578125 62.109375 
z
M 66.015625 1.953125 
Q 78.515625 0 80.078125 0.578125 
Q 81.640625 1.171875 81.640625 3.90625 
L 81.640625 69.53125 
L 50.390625 69.53125 
Q 45.3125 69.53125 41.015625 68.359375 
L 37.5 71.875 
L 80.859375 71.875 
L 84.765625 75.78125 
L 90.234375 70.3125 
L 87.109375 67.96875 
L 87.109375 3.515625 
Q 87.109375 -1.5625 85.34375 -3.90625 
Q 83.59375 -6.25 78.125 -8.59375 
Q 75 -1.953125 66.015625 0.390625 
z
" id="SimSun-95f4"/>
     </defs>
     <g transform="translate(409.636364 537.746875)scale(0.12 -0.12)">
      <use xlink:href="#SimSun-7ee9"/>
      <use x="100" xlink:href="#SimSun-70b9"/>
      <use x="200" xlink:href="#SimSun-533a"/>
      <use x="300" xlink:href="#SimSun-95f4"/>
     </g>
    </g>
   </g>
   <g id="matplotlib.axis_2">
    <g id="ytick_1">
     <g id="line2d_8">
      <defs>
       <path d="M 0 0 
L -3.5 0 
" id="mdd0d3474ca" style="stroke:#000000;stroke-width:0.8;"/>
      </defs>
      <g>
       <use style="stroke:#000000;stroke-width:0.8;" x="180" xlink:href="#mdd0d3474ca" y="507.6"/>
      </g>
     </g>
     <g id="text_9">
      <!-- 0.0 -->
      <g transform="translate(157.096875 511.399219)scale(0.1 -0.1)">
       <use xlink:href="#DejaVuSans-30"/>
       <use x="63.623047" xlink:href="#DejaVuSans-2e"/>
       <use x="95.410156" xlink:href="#DejaVuSans-30"/>
      </g>
     </g>
    </g>
    <g id="ytick_2">
     <g id="line2d_9">
      <g>
       <use style="stroke:#000000;stroke-width:0.8;" x="180" xlink:href="#mdd0d3474ca" y="457.2"/>
      </g>
     </g>
     <g id="text_10">
      <!-- 0.1 -->
      <g transform="translate(157.096875 460.999219)scale(0.1 -0.1)">
       <use xlink:href="#DejaVuSans-30"/>
       <use x="63.623047" xlink:href="#DejaVuSans-2e"/>
       <use x="95.410156" xlink:href="#DejaVuSans-31"/>
      </g>
     </g>
    </g>
    <g id="ytick_3">
     <g id="line2d_10">
      <g>
       <use style="stroke:#000000;stroke-width:0.8;" x="180" xlink:href="#mdd0d3474ca" y="406.8"/>
      </g>
     </g>
     <g id="text_11">
      <!-- 0.2 -->
      <g transform="translate(157.096875 410.599219)scale(0.1 -0.1)">
       <use xlink:href="#DejaVuSans-30"/>
       <use x="63.623047" xlink:href="#DejaVuSans-2e"/>
       <use x="95.410156" xlink:href="#DejaVuSans-32"/>
      </g>
     </g>
    </g>
    <g id="ytick_4">
     <g id="line2d_11">
      <g>
       <use style="stroke:#000000;stroke-width:0.8;" x="180" xlink:href="#mdd0d3474ca" y="356.4"/>
      </g>
     </g>
     <g id="text_12">
      <!-- 0.3 -->
      <g transform="translate(157.096875 360.199219)scale(0.1 -0.1)">
       <use xlink:href="#DejaVuSans-30"/>
       <use x="63.623047" xlink:href="#DejaVuSans-2e"/>
       <use x="95.410156" xlink:href="#DejaVuSans-33"/>
      </g>
     </g>
    </g>
    <g id="ytick_5">
     <g id="line2d_12">
      <g>
       <use style="stroke:#000000;stroke-width:0.8;" x="180" xlink:href="#mdd0d3474ca" y="306"/>
      </g>
     </g>
     <g id="text_13">
      <!-- 0.4 -->
      <g transform="translate(157.096875 309.799219)scale(0.1 -0.1)">
       <use xlink:href="#DejaVuSans-30"/>
       <use x="63.623047" xlink:href="#DejaVuSans-2e"/>
       <use x="95.410156" xlink:href="#DejaVuSans-34"/>
      </g>
     </g>
    </g>
    <g id="ytick_6">
     <g id="line2d_13">
      <g>
       <use style="stroke:#000000;stroke-width:0.8;" x="180" xlink:href="#mdd0d3474ca" y="255.6"/>
      </g>
     </g>
     <g id="text_14">
      <!-- 0.5 -->
      <g transform="translate(157.096875 259.399219)scale(0.1 -0.1)">
       <use xlink:href="#DejaVuSans-30"/>
       <use x="63.623047" xlink:href="#DejaVuSans-2e"/>
       <use x="95.410156" xlink:href="#DejaVuSans-35"/>
      </g>
     </g>
    </g>
    <g id="ytick_7">
     <g id="line2d_14">
      <g>
       <use style="stroke:#000000;stroke-width:0.8;" x="180" xlink:href="#mdd0d3474ca" y="205.2"/>
      </g>
     </g>
     <g id="text_15">
      <!-- 0.6 -->
      <defs>
       <path d="M 33.015625 40.375 
Q 26.375 40.375 22.484375 35.828125 
Q 18.609375 31.296875 18.609375 23.390625 
Q 18.609375 15.53125 22.484375 10.953125 
Q 26.375 6.390625 33.015625 6.390625 
Q 39.65625 6.390625 43.53125 10.953125 
Q 47.40625 15.53125 47.40625 23.390625 
Q 47.40625 31.296875 43.53125 35.828125 
Q 39.65625 40.375 33.015625 40.375 
z
M 52.59375 71.296875 
L 52.59375 62.3125 
Q 48.875 64.0625 45.09375 64.984375 
Q 41.3125 65.921875 37.59375 65.921875 
Q 27.828125 65.921875 22.671875 59.328125 
Q 17.53125 52.734375 16.796875 39.40625 
Q 19.671875 43.65625 24.015625 45.921875 
Q 28.375 48.1875 33.59375 48.1875 
Q 44.578125 48.1875 50.953125 41.515625 
Q 57.328125 34.859375 57.328125 23.390625 
Q 57.328125 12.15625 50.6875 5.359375 
Q 44.046875 -1.421875 33.015625 -1.421875 
Q 20.359375 -1.421875 13.671875 8.265625 
Q 6.984375 17.96875 6.984375 36.375 
Q 6.984375 53.65625 15.1875 63.9375 
Q 23.390625 74.21875 37.203125 74.21875 
Q 40.921875 74.21875 44.703125 73.484375 
Q 48.484375 72.75 52.59375 71.296875 
z
" id="DejaVuSans-36"/>
      </defs>
      <g transform="translate(157.096875 208.999219)scale(0.1 -0.1)">
       <use xlink:href="#DejaVuSans-30"/>
       <use x="63.623047" xlink:href="#DejaVuSans-2e"/>
       <use x="95.410156" xlink:href="#DejaVuSans-36"/>
      </g>
     </g>
    </g>
    <g id="ytick_8">
     <g id="line2d_15">
      <g>
       <use style="stroke:#000000;stroke-width:0.8;" x="180" xlink:href="#mdd0d3474ca" y="154.8"/>
      </g>
     </g>
     <g id="text_16">
      <!-- 0.7 -->
      <defs>
       <path d="M 8.203125 72.90625 
L 55.078125 72.90625 
L 55.078125 68.703125 
L 28.609375 0 
L 18.3125 0 
L 43.21875 64.59375 
L 8.203125 64.59375 
z
" id="DejaVuSans-37"/>
      </defs>
      <g transform="translate(157.096875 158.599219)scale(0.1 -0.1)">
       <use xlink:href="#DejaVuSans-30"/>
       <use x="63.623047" xlink:href="#DejaVuSans-2e"/>
       <use x="95.410156" xlink:href="#DejaVuSans-37"/>
      </g>
     </g>
    </g>
    <g id="text_17">
     <!-- 频率/间距 -->
     <defs>
      <path d="M 43.75 32.03125 
L 50.390625 26.171875 
L 46.875 24.21875 
Q 37.5 9.765625 29.09375 3.125 
Q 20.703125 -3.515625 6.25 -8.984375 
L 5.859375 -7.8125 
Q 23.046875 1.5625 31.25 11.125 
Q 39.453125 20.703125 43.75 32.03125 
z
M 28.125 46.09375 
L 28.125 68.359375 
Q 28.125 73.4375 27.734375 82.03125 
L 35.9375 78.515625 
L 32.8125 75.78125 
L 32.8125 63.671875 
L 39.0625 63.671875 
L 43.359375 67.96875 
L 49.21875 61.328125 
L 32.8125 61.328125 
L 32.8125 46.09375 
L 40.234375 46.09375 
L 44.921875 50.390625 
L 51.171875 43.75 
L 28.125 43.75 
L 35.15625 39.84375 
L 32.421875 37.890625 
L 32.421875 17.96875 
L 27.34375 14.84375 
L 27.34375 43.75 
L 17.96875 43.75 
Q 12.890625 43.75 8.59375 42.578125 
L 5.078125 46.09375 
L 15.625 46.09375 
L 15.625 60.9375 
Q 15.625 65.625 15.234375 70.3125 
L 23.4375 66.796875 
L 20.3125 64.0625 
L 20.3125 46.09375 
z
M 17.1875 36.328125 
L 24.21875 31.640625 
Q 21.484375 30.859375 17.1875 23.4375 
Q 12.5 15.625 5.078125 8.984375 
L 4.296875 10.15625 
Q 12.890625 21.875 17.1875 36.328125 
z
M 52.734375 12.5 
Q 53.125 22.65625 53.125 36.125 
Q 53.125 49.609375 52.734375 61.328125 
L 58.203125 58.203125 
L 65.625 58.203125 
Q 67.1875 69.140625 67.578125 73.4375 
L 58.984375 73.4375 
Q 53.90625 73.4375 49.609375 72.265625 
L 46.09375 75.78125 
L 84.375 75.78125 
L 89.453125 80.46875 
L 96.09375 73.4375 
L 75 73.4375 
Q 72.265625 70.3125 67.578125 58.203125 
L 84.765625 58.203125 
L 87.890625 61.71875 
L 93.75 57.03125 
L 90.625 54.6875 
L 90.625 30.859375 
Q 90.625 24.21875 91.015625 17.1875 
L 85.546875 14.0625 
L 85.546875 55.859375 
L 58.203125 55.859375 
L 58.203125 16.015625 
z
M 78.125 44.921875 
L 74.609375 42.1875 
Q 74.609375 23.4375 72.0625 15.421875 
Q 69.53125 7.421875 62.296875 1.5625 
Q 55.078125 -4.296875 40.234375 -8.984375 
L 39.84375 -7.8125 
Q 55.46875 -0.78125 61.515625 6.25 
Q 67.578125 13.28125 68.546875 24.796875 
Q 69.53125 36.328125 69.140625 49.21875 
z
M 73.828125 13.671875 
Q 89.0625 6.640625 91.59375 3.90625 
Q 94.140625 1.171875 94.140625 -1.5625 
Q 94.140625 -3.515625 93.359375 -5.65625 
Q 92.578125 -7.8125 91.796875 -7.8125 
Q 91.015625 -7.8125 90.234375 -6.25 
Q 88.28125 -2.734375 84.953125 1.359375 
Q 81.640625 5.46875 73.046875 12.5 
z
" id="SimSun-9891"/>
      <path d="M 13.671875 58.203125 
L 14.453125 59.375 
Q 21.484375 57.03125 24.21875 55.078125 
Q 26.953125 53.125 26.953125 50.78125 
Q 26.953125 49.609375 25.96875 47.265625 
Q 25 44.921875 24.21875 44.921875 
Q 23.4375 44.921875 22.265625 47.65625 
Q 19.921875 51.953125 13.671875 58.203125 
z
M 8.59375 28.90625 
Q 13.671875 30.078125 31.25 40.234375 
L 32.03125 39.0625 
Q 26.171875 34.765625 20.890625 30.265625 
Q 15.625 25.78125 13.671875 22.265625 
z
M 81.25 53.90625 
Q 75 49.21875 66.796875 43.75 
L 66.015625 44.921875 
Q 74.609375 53.125 78.90625 61.328125 
L 85.15625 55.078125 
z
M 67.578125 39.0625 
L 67.96875 40.234375 
Q 81.640625 36.71875 83.984375 34.5625 
Q 86.328125 32.421875 86.328125 29.6875 
Q 86.328125 27.734375 85.734375 25.96875 
Q 85.15625 24.21875 84.375 24.21875 
Q 83.203125 24.21875 81.25 28.125 
Q 77.734375 33.59375 67.578125 39.0625 
z
M 49.21875 60.9375 
Q 39.0625 51.5625 35.9375 49.21875 
Q 43.75 49.21875 53.125 49.609375 
Q 57.8125 54.6875 60.15625 59.765625 
L 66.40625 53.90625 
Q 63.28125 53.125 53.90625 44.140625 
Q 44.53125 35.15625 38.671875 30.46875 
Q 49.21875 30.859375 60.15625 31.25 
Q 58.59375 33.984375 55.46875 38.28125 
L 56.25 39.0625 
Q 63.28125 35.15625 65.625 32.8125 
Q 67.96875 30.46875 67.96875 28.90625 
Q 67.96875 27.734375 66.40625 25.390625 
Q 64.84375 23.046875 64.0625 23.046875 
Q 63.671875 23.046875 63.28125 24.21875 
Q 62.5 26.5625 60.9375 29.6875 
Q 57.03125 29.296875 48.046875 28.125 
L 54.6875 24.21875 
L 51.953125 22.265625 
L 51.953125 15.234375 
L 83.203125 15.234375 
L 88.28125 20.3125 
L 95.3125 12.890625 
L 51.953125 12.890625 
Q 51.953125 -4.296875 52.34375 -8.203125 
L 46.484375 -10.15625 
Q 46.875 0 46.875 12.890625 
L 17.578125 12.890625 
Q 12.5 12.890625 8.203125 11.71875 
L 4.6875 15.234375 
L 46.875 15.234375 
L 46.875 27.734375 
Q 38.28125 26.5625 34.375 23.828125 
L 30.46875 30.46875 
Q 35.546875 30.46875 41.796875 36.71875 
Q 48.046875 42.96875 51.953125 47.65625 
Q 37.5 46.09375 33.59375 43.359375 
L 30.46875 49.609375 
Q 33.59375 49.21875 38.671875 55.859375 
Q 43.75 62.5 45.3125 66.015625 
L 22.65625 66.015625 
Q 17.578125 66.015625 13.28125 64.84375 
L 9.765625 68.359375 
L 48.4375 68.359375 
Q 47.65625 75 41.796875 81.25 
L 42.578125 82.03125 
Q 50.390625 78.90625 52.140625 76.75 
Q 53.90625 74.609375 53.90625 73.4375 
Q 53.90625 71.09375 50.78125 68.359375 
L 78.515625 68.359375 
L 83.59375 73.046875 
L 90.234375 66.015625 
L 47.65625 66.015625 
L 52.734375 61.71875 
z
" id="SimSun-7387"/>
      <path d="M 6.25 -7.421875 
L 3.515625 -5.859375 
L 43.359375 77.734375 
L 46.09375 76.171875 
z
" id="SimSun-2f"/>
      <path d="M 16.796875 71.09375 
L 16.796875 49.609375 
L 35.546875 49.609375 
L 35.546875 71.09375 
z
M 28.90625 8.59375 
L 45.3125 13.671875 
L 45.703125 12.109375 
Q 33.59375 7.03125 23.4375 3.125 
Q 12.890625 -1.171875 7.8125 -5.078125 
L 3.515625 1.5625 
L 10.546875 3.515625 
Q 10.546875 29.6875 10.15625 37.890625 
L 18.359375 33.203125 
L 15.234375 31.25 
L 15.234375 4.6875 
L 24.21875 7.421875 
L 24.21875 47.265625 
L 16.796875 47.265625 
L 16.796875 44.140625 
L 11.71875 42.1875 
Q 12.109375 50.78125 12.109375 59.5625 
Q 12.109375 68.359375 11.71875 76.5625 
L 16.796875 73.4375 
L 35.15625 73.4375 
L 38.671875 76.953125 
L 43.359375 72.265625 
L 40.234375 69.921875 
Q 40.234375 52.34375 40.625 46.875 
L 35.546875 44.140625 
L 35.546875 47.265625 
L 28.90625 47.265625 
L 28.90625 32.03125 
L 33.984375 32.03125 
L 37.890625 35.9375 
L 43.75 29.6875 
L 28.90625 29.6875 
z
M 85.15625 47.265625 
Q 85.15625 25.78125 85.546875 21.09375 
L 80.078125 18.75 
L 80.078125 24.609375 
L 54.6875 24.609375 
L 54.6875 0.390625 
L 83.984375 0.390625 
L 88.671875 5.078125 
L 95.3125 -1.953125 
L 55.46875 -1.953125 
L 51.953125 -5.46875 
L 46.09375 -0.390625 
L 49.609375 1.953125 
L 49.609375 62.109375 
Q 49.609375 67.96875 49.21875 76.5625 
L 54.6875 73.046875 
L 81.640625 73.046875 
L 85.9375 77.34375 
L 92.1875 70.703125 
L 54.6875 70.703125 
L 54.6875 51.5625 
L 79.6875 51.5625 
L 83.203125 55.078125 
L 88.28125 50 
z
M 54.6875 49.21875 
L 54.6875 26.953125 
L 80.078125 26.953125 
L 80.078125 49.21875 
z
" id="SimSun-8ddd"/>
     </defs>
     <g transform="translate(151.55 345.6)rotate(-90)scale(0.12 -0.12)">
      <use xlink:href="#SimSun-9891"/>
      <use x="100" xlink:href="#SimSun-7387"/>
      <use x="200" xlink:href="#SimSun-2f"/>
      <use x="250" xlink:href="#SimSun-95f4"/>
      <use x="350" xlink:href="#SimSun-8ddd"/>
     </g>
    </g>
   </g>
   <g id="patch_9">
    <path d="M 180 507.6 
L 180 129.6 
" style="fill:none;stroke:#000000;stroke-linecap:square;stroke-linejoin:miter;stroke-width:0.8;"/>
   </g>
   <g id="patch_10">
    <path d="M 687.272727 507.6 
L 687.272727 129.6 
" style="fill:none;stroke:#000000;stroke-linecap:square;stroke-linejoin:miter;stroke-width:0.8;"/>
   </g>
   <g id="patch_11">
    <path d="M 180 507.6 
L 687.272727 507.6 
" style="fill:none;stroke:#000000;stroke-linecap:square;stroke-linejoin:miter;stroke-width:0.8;"/>
   </g>
   <g id="patch_12">
    <path d="M 180 129.6 
L 687.272727 129.6 
" style="fill:none;stroke:#000000;stroke-linecap:square;stroke-linejoin:miter;stroke-width:0.8;"/>
   </g>
   <g id="text_18">
    <!-- 第1组 -->
    <defs>
     <path d="M 30.46875 66.796875 
Q 36.71875 63.671875 37.6875 61.515625 
Q 38.671875 59.375 38.671875 58.59375 
Q 38.671875 56.640625 37.109375 55.265625 
Q 35.546875 53.90625 34.765625 53.90625 
Q 33.59375 53.90625 33.59375 55.078125 
Q 33.203125 57.421875 32.03125 60.34375 
Q 30.859375 63.28125 28.125 66.796875 
L 23.4375 66.796875 
Q 20.3125 63.671875 16.59375 60.15625 
Q 12.890625 56.640625 7.421875 53.125 
L 6.640625 54.6875 
Q 12.109375 59.765625 17.1875 66.984375 
Q 22.265625 74.21875 24.609375 81.640625 
L 32.421875 76.5625 
Q 30.078125 75.390625 25 69.140625 
L 41.796875 69.140625 
L 46.484375 73.828125 
L 53.125 66.796875 
z
M 61.71875 81.25 
L 69.53125 76.171875 
Q 66.796875 75.390625 62.109375 69.140625 
L 82.03125 69.140625 
L 86.71875 73.828125 
L 93.359375 66.796875 
L 68.359375 66.796875 
Q 73.4375 64.0625 74.796875 62.296875 
Q 76.171875 60.546875 76.171875 59.375 
Q 76.171875 57.421875 74.609375 55.65625 
Q 73.046875 53.90625 72.65625 53.90625 
Q 71.875 53.90625 71.09375 56.046875 
Q 70.3125 58.203125 69.53125 60.546875 
Q 68.75 62.890625 66.015625 66.796875 
L 60.546875 66.796875 
Q 57.421875 63.28125 55.078125 60.734375 
Q 52.734375 58.203125 47.265625 53.90625 
L 46.09375 55.078125 
Q 53.515625 63.28125 56.640625 69.53125 
Q 59.765625 75.78125 61.71875 81.25 
z
M 17.578125 24.21875 
Q 19.921875 31.25 21.875 41.40625 
L 27.734375 37.5 
L 48.828125 37.5 
L 48.828125 49.21875 
L 27.34375 49.21875 
Q 24.21875 49.21875 19.921875 48.046875 
L 16.40625 51.5625 
L 74.609375 51.5625 
L 78.515625 55.46875 
L 83.984375 50 
L 80.859375 48.046875 
Q 80.859375 36.71875 81.25 33.203125 
L 75.78125 30.859375 
L 75.78125 35.15625 
L 53.90625 35.15625 
L 53.90625 23.046875 
L 82.421875 23.046875 
L 86.328125 26.953125 
L 91.796875 21.484375 
L 88.28125 19.140625 
Q 86.71875 9.375 85.9375 6.046875 
Q 85.15625 2.734375 83.78125 0.96875 
Q 82.421875 -0.78125 80.46875 -1.75 
Q 78.515625 -2.734375 75 -3.515625 
Q 75 1.5625 64.84375 5.859375 
L 64.84375 7.421875 
Q 75 4.6875 77.140625 4.875 
Q 79.296875 5.078125 80.265625 7.21875 
Q 81.25 9.375 82.8125 20.703125 
L 53.90625 20.703125 
L 53.90625 1.5625 
Q 53.90625 -3.125 54.296875 -8.203125 
L 48.4375 -10.15625 
Q 48.828125 -2.734375 48.828125 7.8125 
L 48.828125 20.3125 
Q 40.625 9.375 29.296875 2.734375 
Q 17.96875 -3.90625 4.296875 -8.203125 
L 3.90625 -6.25 
Q 14.453125 -2.34375 24.796875 4.296875 
Q 35.15625 10.9375 42.1875 20.703125 
L 22.65625 20.703125 
L 19.921875 17.1875 
L 14.0625 21.875 
z
M 53.90625 49.21875 
L 53.90625 37.5 
L 75.78125 37.5 
L 75.78125 49.21875 
z
M 26.5625 35.15625 
Q 25 30.859375 23.046875 23.046875 
L 48.828125 23.046875 
L 48.828125 35.15625 
z
" id="SimSun-7b2c"/>
     <path d="M 28.515625 69.53125 
L 28.515625 10.15625 
Q 28.515625 7.03125 30.46875 5.46875 
Q 32.421875 3.90625 35.9375 3.90625 
L 39.84375 3.90625 
L 39.84375 1.5625 
L 11.328125 1.5625 
L 11.328125 3.90625 
L 14.84375 3.90625 
Q 18.75 3.90625 20.5 5.46875 
Q 22.265625 7.03125 22.265625 10.15625 
L 22.265625 57.421875 
Q 22.265625 58.984375 21.28125 59.953125 
Q 20.3125 60.9375 18.359375 60.9375 
L 11.328125 60.9375 
L 11.328125 63.28125 
L 14.84375 63.28125 
Q 19.53125 63.28125 22.453125 64.84375 
Q 25.390625 66.40625 26.953125 69.53125 
z
" id="SimSun-31"/>
     <path d="M 15.625 23.828125 
Q 30.46875 26.171875 37.5 27.734375 
L 37.890625 26.171875 
Q 32.8125 24.609375 24.015625 21.671875 
Q 15.234375 18.75 11.71875 16.015625 
L 7.421875 23.046875 
Q 11.328125 24.21875 15.421875 29.296875 
Q 19.53125 34.375 27.34375 46.875 
Q 21.484375 45.703125 16.984375 43.9375 
Q 12.5 42.1875 9.765625 40.625 
L 6.25 47.265625 
Q 10.15625 48.046875 16.015625 61.125 
Q 21.875 74.21875 23.046875 80.859375 
L 30.078125 76.171875 
Q 26.5625 72.65625 23.046875 65.625 
Q 19.140625 58.59375 12.109375 47.265625 
L 28.125 48.828125 
Q 32.03125 56.25 34.375 63.671875 
L 41.015625 58.984375 
Q 39.0625 57.03125 33.203125 48.046875 
Q 27.34375 38.671875 15.625 23.828125 
z
M 5.078125 3.90625 
Q 9.765625 4.6875 20.5 7.421875 
Q 31.25 10.15625 39.453125 12.890625 
L 40.234375 10.9375 
Q 34.765625 8.984375 23.828125 4.09375 
Q 12.890625 -0.78125 9.765625 -3.515625 
z
M 50.78125 71.09375 
L 50.78125 49.609375 
L 75.78125 49.609375 
L 75.78125 71.09375 
z
M 50.78125 47.265625 
L 50.78125 25.390625 
L 75.78125 25.390625 
L 75.78125 47.265625 
z
M 50.78125 23.046875 
L 50.78125 -0.78125 
L 75.78125 -0.78125 
L 75.78125 23.046875 
z
M 45.703125 54.296875 
Q 45.703125 70.3125 45.3125 76.953125 
L 50.78125 73.4375 
L 75.390625 73.4375 
L 78.515625 77.734375 
L 84.765625 72.65625 
L 81.25 69.53125 
L 81.25 -0.78125 
L 83.984375 -0.78125 
L 89.84375 4.6875 
L 96.484375 -3.125 
L 44.140625 -3.125 
Q 39.0625 -3.125 34.765625 -4.296875 
L 31.25 -0.78125 
L 45.703125 -0.78125 
z
" id="SimSun-7ec4"/>
    </defs>
    <g transform="translate(418.636364 123.6)scale(0.12 -0.12)">
     <use xlink:href="#SimSun-7b2c"/>
     <use x="100" xlink:href="#SimSun-31"/>
     <use x="150" xlink:href="#SimSun-7ec4"/>
    </g>
   </g>
  </g>
  <g id="axes_2">
   <g id="patch_13">
    <path d="M 788.727273 507.6 
L 1296 507.6 
L 1296 129.6 
L 788.727273 129.6 
z
" style="fill:#ffffff;"/>
   </g>
   <g id="patch_14">
    <path clip-path="url(#p84ddf7e967)" d="M 811.785124 507.6 
L 888.644628 507.6 
L 888.644628 507.6 
L 811.785124 507.6 
z
" style="fill:#1f77b4;"/>
   </g>
   <g id="patch_15">
    <path clip-path="url(#p84ddf7e967)" d="M 888.644628 507.6 
L 965.504132 507.6 
L 965.504132 442.145455 
L 888.644628 442.145455 
z
" style="fill:#1f77b4;"/>
   </g>
   <g id="patch_16">
    <path clip-path="url(#p84ddf7e967)" d="M 965.504132 507.6 
L 1042.363636 507.6 
L 1042.363636 343.963636 
L 965.504132 343.963636 
z
" style="fill:#1f77b4;"/>
   </g>
   <g id="patch_17">
    <path clip-path="url(#p84ddf7e967)" d="M 1042.363636 507.6 
L 1119.22314 507.6 
L 1119.22314 147.6 
L 1042.363636 147.6 
z
" style="fill:#1f77b4;"/>
   </g>
   <g id="patch_18">
    <path clip-path="url(#p84ddf7e967)" d="M 1119.22314 507.6 
L 1196.082645 507.6 
L 1196.082645 311.236364 
L 1119.22314 311.236364 
z
" style="fill:#1f77b4;"/>
   </g>
   <g id="patch_19">
    <path clip-path="url(#p84ddf7e967)" d="M 1196.082645 507.6 
L 1272.942149 507.6 
L 1272.942149 409.418182 
L 1196.082645 409.418182 
z
" style="fill:#1f77b4;"/>
   </g>
   <g id="matplotlib.axis_3">
    <g id="xtick_8">
     <g id="line2d_16">
      <g>
       <use style="stroke:#000000;stroke-width:0.8;" x="811.785124" xlink:href="#m37a8e5cfc4" y="507.6"/>
      </g>
     </g>
     <g id="text_19">
      <!-- 1.0 -->
      <g transform="translate(803.833561 522.198438)scale(0.1 -0.1)">
       <use xlink:href="#DejaVuSans-31"/>
       <use x="63.623047" xlink:href="#DejaVuSans-2e"/>
       <use x="95.410156" xlink:href="#DejaVuSans-30"/>
      </g>
     </g>
    </g>
    <g id="xtick_9">
     <g id="line2d_17">
      <g>
       <use style="stroke:#000000;stroke-width:0.8;" x="888.644628" xlink:href="#m37a8e5cfc4" y="507.6"/>
      </g>
     </g>
     <g id="text_20">
      <!-- 1.5 -->
      <g transform="translate(880.693066 522.198438)scale(0.1 -0.1)">
       <use xlink:href="#DejaVuSans-31"/>
       <use x="63.623047" xlink:href="#DejaVuSans-2e"/>
       <use x="95.410156" xlink:href="#DejaVuSans-35"/>
      </g>
     </g>
    </g>
    <g id="xtick_10">
     <g id="line2d_18">
      <g>
       <use style="stroke:#000000;stroke-width:0.8;" x="965.504132" xlink:href="#m37a8e5cfc4" y="507.6"/>
      </g>
     </g>
     <g id="text_21">
      <!-- 2.0 -->
      <g transform="translate(957.55257 522.198438)scale(0.1 -0.1)">
       <use xlink:href="#DejaVuSans-32"/>
       <use x="63.623047" xlink:href="#DejaVuSans-2e"/>
       <use x="95.410156" xlink:href="#DejaVuSans-30"/>
      </g>
     </g>
    </g>
    <g id="xtick_11">
     <g id="line2d_19">
      <g>
       <use style="stroke:#000000;stroke-width:0.8;" x="1042.363636" xlink:href="#m37a8e5cfc4" y="507.6"/>
      </g>
     </g>
     <g id="text_22">
      <!-- 2.5 -->
      <g transform="translate(1034.412074 522.198438)scale(0.1 -0.1)">
       <use xlink:href="#DejaVuSans-32"/>
       <use x="63.623047" xlink:href="#DejaVuSans-2e"/>
       <use x="95.410156" xlink:href="#DejaVuSans-35"/>
      </g>
     </g>
    </g>
    <g id="xtick_12">
     <g id="line2d_20">
      <g>
       <use style="stroke:#000000;stroke-width:0.8;" x="1119.22314" xlink:href="#m37a8e5cfc4" y="507.6"/>
      </g>
     </g>
     <g id="text_23">
      <!-- 3.0 -->
      <g transform="translate(1111.271578 522.198438)scale(0.1 -0.1)">
       <use xlink:href="#DejaVuSans-33"/>
       <use x="63.623047" xlink:href="#DejaVuSans-2e"/>
       <use x="95.410156" xlink:href="#DejaVuSans-30"/>
      </g>
     </g>
    </g>
    <g id="xtick_13">
     <g id="line2d_21">
      <g>
       <use style="stroke:#000000;stroke-width:0.8;" x="1196.082645" xlink:href="#m37a8e5cfc4" y="507.6"/>
      </g>
     </g>
     <g id="text_24">
      <!-- 3.5 -->
      <g transform="translate(1188.131082 522.198438)scale(0.1 -0.1)">
       <use xlink:href="#DejaVuSans-33"/>
       <use x="63.623047" xlink:href="#DejaVuSans-2e"/>
       <use x="95.410156" xlink:href="#DejaVuSans-35"/>
      </g>
     </g>
    </g>
    <g id="xtick_14">
     <g id="line2d_22">
      <g>
       <use style="stroke:#000000;stroke-width:0.8;" x="1272.942149" xlink:href="#m37a8e5cfc4" y="507.6"/>
      </g>
     </g>
     <g id="text_25">
      <!-- 4.0 -->
      <g transform="translate(1264.990586 522.198438)scale(0.1 -0.1)">
       <use xlink:href="#DejaVuSans-34"/>
       <use x="63.623047" xlink:href="#DejaVuSans-2e"/>
       <use x="95.410156" xlink:href="#DejaVuSans-30"/>
      </g>
     </g>
    </g>
    <g id="text_26">
     <!-- 绩点区间 -->
     <g transform="translate(1018.363636 537.746875)scale(0.12 -0.12)">
      <use xlink:href="#SimSun-7ee9"/>
      <use x="100" xlink:href="#SimSun-70b9"/>
      <use x="200" xlink:href="#SimSun-533a"/>
      <use x="300" xlink:href="#SimSun-95f4"/>
     </g>
    </g>
   </g>
   <g id="matplotlib.axis_4">
    <g id="ytick_9">
     <g id="line2d_23">
      <g>
       <use style="stroke:#000000;stroke-width:0.8;" x="788.727273" xlink:href="#mdd0d3474ca" y="507.6"/>
      </g>
     </g>
     <g id="text_27">
      <!-- 0.0 -->
      <g transform="translate(765.824148 511.399219)scale(0.1 -0.1)">
       <use xlink:href="#DejaVuSans-30"/>
       <use x="63.623047" xlink:href="#DejaVuSans-2e"/>
       <use x="95.410156" xlink:href="#DejaVuSans-30"/>
      </g>
     </g>
    </g>
    <g id="ytick_10">
     <g id="line2d_24">
      <g>
       <use style="stroke:#000000;stroke-width:0.8;" x="788.727273" xlink:href="#mdd0d3474ca" y="463.418182"/>
      </g>
     </g>
     <g id="text_28">
      <!-- 0.1 -->
      <g transform="translate(765.824148 467.217401)scale(0.1 -0.1)">
       <use xlink:href="#DejaVuSans-30"/>
       <use x="63.623047" xlink:href="#DejaVuSans-2e"/>
       <use x="95.410156" xlink:href="#DejaVuSans-31"/>
      </g>
     </g>
    </g>
    <g id="ytick_11">
     <g id="line2d_25">
      <g>
       <use style="stroke:#000000;stroke-width:0.8;" x="788.727273" xlink:href="#mdd0d3474ca" y="419.236364"/>
      </g>
     </g>
     <g id="text_29">
      <!-- 0.2 -->
      <g transform="translate(765.824148 423.035582)scale(0.1 -0.1)">
       <use xlink:href="#DejaVuSans-30"/>
       <use x="63.623047" xlink:href="#DejaVuSans-2e"/>
       <use x="95.410156" xlink:href="#DejaVuSans-32"/>
      </g>
     </g>
    </g>
    <g id="ytick_12">
     <g id="line2d_26">
      <g>
       <use style="stroke:#000000;stroke-width:0.8;" x="788.727273" xlink:href="#mdd0d3474ca" y="375.054545"/>
      </g>
     </g>
     <g id="text_30">
      <!-- 0.3 -->
      <g transform="translate(765.824148 378.853764)scale(0.1 -0.1)">
       <use xlink:href="#DejaVuSans-30"/>
       <use x="63.623047" xlink:href="#DejaVuSans-2e"/>
       <use x="95.410156" xlink:href="#DejaVuSans-33"/>
      </g>
     </g>
    </g>
    <g id="ytick_13">
     <g id="line2d_27">
      <g>
       <use style="stroke:#000000;stroke-width:0.8;" x="788.727273" xlink:href="#mdd0d3474ca" y="330.872727"/>
      </g>
     </g>
     <g id="text_31">
      <!-- 0.4 -->
      <g transform="translate(765.824148 334.671946)scale(0.1 -0.1)">
       <use xlink:href="#DejaVuSans-30"/>
       <use x="63.623047" xlink:href="#DejaVuSans-2e"/>
       <use x="95.410156" xlink:href="#DejaVuSans-34"/>
      </g>
     </g>
    </g>
    <g id="ytick_14">
     <g id="line2d_28">
      <g>
       <use style="stroke:#000000;stroke-width:0.8;" x="788.727273" xlink:href="#mdd0d3474ca" y="286.690909"/>
      </g>
     </g>
     <g id="text_32">
      <!-- 0.5 -->
      <g transform="translate(765.824148 290.490128)scale(0.1 -0.1)">
       <use xlink:href="#DejaVuSans-30"/>
       <use x="63.623047" xlink:href="#DejaVuSans-2e"/>
       <use x="95.410156" xlink:href="#DejaVuSans-35"/>
      </g>
     </g>
    </g>
    <g id="ytick_15">
     <g id="line2d_29">
      <g>
       <use style="stroke:#000000;stroke-width:0.8;" x="788.727273" xlink:href="#mdd0d3474ca" y="242.509091"/>
      </g>
     </g>
     <g id="text_33">
      <!-- 0.6 -->
      <g transform="translate(765.824148 246.30831)scale(0.1 -0.1)">
       <use xlink:href="#DejaVuSans-30"/>
       <use x="63.623047" xlink:href="#DejaVuSans-2e"/>
       <use x="95.410156" xlink:href="#DejaVuSans-36"/>
      </g>
     </g>
    </g>
    <g id="ytick_16">
     <g id="line2d_30">
      <g>
       <use style="stroke:#000000;stroke-width:0.8;" x="788.727273" xlink:href="#mdd0d3474ca" y="198.327273"/>
      </g>
     </g>
     <g id="text_34">
      <!-- 0.7 -->
      <g transform="translate(765.824148 202.126491)scale(0.1 -0.1)">
       <use xlink:href="#DejaVuSans-30"/>
       <use x="63.623047" xlink:href="#DejaVuSans-2e"/>
       <use x="95.410156" xlink:href="#DejaVuSans-37"/>
      </g>
     </g>
    </g>
    <g id="ytick_17">
     <g id="line2d_31">
      <g>
       <use style="stroke:#000000;stroke-width:0.8;" x="788.727273" xlink:href="#mdd0d3474ca" y="154.145455"/>
      </g>
     </g>
     <g id="text_35">
      <!-- 0.8 -->
      <defs>
       <path d="M 31.78125 34.625 
Q 24.75 34.625 20.71875 30.859375 
Q 16.703125 27.09375 16.703125 20.515625 
Q 16.703125 13.921875 20.71875 10.15625 
Q 24.75 6.390625 31.78125 6.390625 
Q 38.8125 6.390625 42.859375 10.171875 
Q 46.921875 13.96875 46.921875 20.515625 
Q 46.921875 27.09375 42.890625 30.859375 
Q 38.875 34.625 31.78125 34.625 
z
M 21.921875 38.8125 
Q 15.578125 40.375 12.03125 44.71875 
Q 8.5 49.078125 8.5 55.328125 
Q 8.5 64.0625 14.71875 69.140625 
Q 20.953125 74.21875 31.78125 74.21875 
Q 42.671875 74.21875 48.875 69.140625 
Q 55.078125 64.0625 55.078125 55.328125 
Q 55.078125 49.078125 51.53125 44.71875 
Q 48 40.375 41.703125 38.8125 
Q 48.828125 37.15625 52.796875 32.3125 
Q 56.78125 27.484375 56.78125 20.515625 
Q 56.78125 9.90625 50.3125 4.234375 
Q 43.84375 -1.421875 31.78125 -1.421875 
Q 19.734375 -1.421875 13.25 4.234375 
Q 6.78125 9.90625 6.78125 20.515625 
Q 6.78125 27.484375 10.78125 32.3125 
Q 14.796875 37.15625 21.921875 38.8125 
z
M 18.3125 54.390625 
Q 18.3125 48.734375 21.84375 45.5625 
Q 25.390625 42.390625 31.78125 42.390625 
Q 38.140625 42.390625 41.71875 45.5625 
Q 45.3125 48.734375 45.3125 54.390625 
Q 45.3125 60.0625 41.71875 63.234375 
Q 38.140625 66.40625 31.78125 66.40625 
Q 25.390625 66.40625 21.84375 63.234375 
Q 18.3125 60.0625 18.3125 54.390625 
z
" id="DejaVuSans-38"/>
      </defs>
      <g transform="translate(765.824148 157.944673)scale(0.1 -0.1)">
       <use xlink:href="#DejaVuSans-30"/>
       <use x="63.623047" xlink:href="#DejaVuSans-2e"/>
       <use x="95.410156" xlink:href="#DejaVuSans-38"/>
      </g>
     </g>
    </g>
    <g id="text_36">
     <!-- 频率/间距 -->
     <g transform="translate(760.277273 345.6)rotate(-90)scale(0.12 -0.12)">
      <use xlink:href="#SimSun-9891"/>
      <use x="100" xlink:href="#SimSun-7387"/>
      <use x="200" xlink:href="#SimSun-2f"/>
      <use x="250" xlink:href="#SimSun-95f4"/>
      <use x="350" xlink:href="#SimSun-8ddd"/>
     </g>
    </g>
   </g>
   <g id="patch_20">
    <path d="M 788.727273 507.6 
L 788.727273 129.6 
" style="fill:none;stroke:#000000;stroke-linecap:square;stroke-linejoin:miter;stroke-width:0.8;"/>
   </g>
   <g id="patch_21">
    <path d="M 1296 507.6 
L 1296 129.6 
" style="fill:none;stroke:#000000;stroke-linecap:square;stroke-linejoin:miter;stroke-width:0.8;"/>
   </g>
   <g id="patch_22">
    <path d="M 788.727273 507.6 
L 1296 507.6 
" style="fill:none;stroke:#000000;stroke-linecap:square;stroke-linejoin:miter;stroke-width:0.8;"/>
   </g>
   <g id="patch_23">
    <path d="M 788.727273 129.6 
L 1296 129.6 
" style="fill:none;stroke:#000000;stroke-linecap:square;stroke-linejoin:miter;stroke-width:0.8;"/>
   </g>
   <g id="text_37">
    <!-- 第2组 -->
    <defs>
     <path d="M 36.328125 51.953125 
Q 36.328125 58.984375 33.203125 62.6875 
Q 30.078125 66.40625 23.828125 66.40625 
Q 19.140625 66.40625 15.8125 63.859375 
Q 12.5 61.328125 12.5 57.421875 
Q 12.5 55.078125 14.0625 53.515625 
Q 15.234375 51.953125 15.234375 50.390625 
Q 15.234375 48.4375 14.25 47.453125 
Q 13.28125 46.484375 11.328125 46.484375 
Q 8.984375 46.484375 7.609375 47.84375 
Q 6.25 49.21875 6.25 52.34375 
Q 6.25 60.546875 12.109375 64.84375 
Q 17.96875 69.140625 24.609375 69.140625 
Q 33.984375 69.140625 38.46875 64.453125 
Q 42.96875 59.765625 42.96875 52.734375 
Q 42.96875 48.046875 40.8125 43.359375 
Q 38.671875 38.671875 33.984375 34.375 
Q 22.65625 23.4375 16.59375 16.59375 
Q 10.546875 9.765625 9.375 7.421875 
L 32.421875 7.421875 
Q 35.9375 7.421875 38.28125 10.15625 
Q 40.625 12.890625 41.40625 18.359375 
L 43.75 18.359375 
L 41.40625 1.5625 
L 5.078125 1.5625 
L 5.078125 6.640625 
Q 7.03125 10.15625 11.515625 15.625 
Q 16.015625 21.09375 23.4375 28.515625 
Q 30.078125 35.15625 33.203125 41.015625 
Q 36.328125 46.875 36.328125 51.953125 
z
" id="SimSun-32"/>
    </defs>
    <g transform="translate(1027.363636 123.6)scale(0.12 -0.12)">
     <use xlink:href="#SimSun-7b2c"/>
     <use x="100" xlink:href="#SimSun-32"/>
     <use x="150" xlink:href="#SimSun-7ec4"/>
    </g>
   </g>
  </g>
  <g id="axes_3">
   <g id="patch_24">
    <path d="M 180 961.2 
L 687.272727 961.2 
L 687.272727 583.2 
L 180 583.2 
z
" style="fill:#ffffff;"/>
   </g>
   <g id="patch_25">
    <path clip-path="url(#p1292bfe4f1)" d="M 203.057851 961.2 
L 279.917355 961.2 
L 279.917355 961.2 
L 203.057851 961.2 
z
" style="fill:#1f77b4;"/>
   </g>
   <g id="patch_26">
    <path clip-path="url(#p1292bfe4f1)" d="M 279.917355 961.2 
L 356.77686 961.2 
L 356.77686 895.745455 
L 279.917355 895.745455 
z
" style="fill:#1f77b4;"/>
   </g>
   <g id="patch_27">
    <path clip-path="url(#p1292bfe4f1)" d="M 356.77686 961.2 
L 433.636364 961.2 
L 433.636364 797.563636 
L 356.77686 797.563636 
z
" style="fill:#1f77b4;"/>
   </g>
   <g id="patch_28">
    <path clip-path="url(#p1292bfe4f1)" d="M 433.636364 961.2 
L 510.495868 961.2 
L 510.495868 601.2 
L 433.636364 601.2 
z
" style="fill:#1f77b4;"/>
   </g>
   <g id="patch_29">
    <path clip-path="url(#p1292bfe4f1)" d="M 510.495868 961.2 
L 587.355372 961.2 
L 587.355372 699.381818 
L 510.495868 699.381818 
z
" style="fill:#1f77b4;"/>
   </g>
   <g id="patch_30">
    <path clip-path="url(#p1292bfe4f1)" d="M 587.355372 961.2 
L 664.214876 961.2 
L 664.214876 895.745455 
L 587.355372 895.745455 
z
" style="fill:#1f77b4;"/>
   </g>
   <g id="matplotlib.axis_5">
    <g id="xtick_15">
     <g id="line2d_32">
      <g>
       <use style="stroke:#000000;stroke-width:0.8;" x="203.057851" xlink:href="#m37a8e5cfc4" y="961.2"/>
      </g>
     </g>
     <g id="text_38">
      <!-- 1.0 -->
      <g transform="translate(195.106289 975.798437)scale(0.1 -0.1)">
       <use xlink:href="#DejaVuSans-31"/>
       <use x="63.623047" xlink:href="#DejaVuSans-2e"/>
       <use x="95.410156" xlink:href="#DejaVuSans-30"/>
      </g>
     </g>
    </g>
    <g id="xtick_16">
     <g id="line2d_33">
      <g>
       <use style="stroke:#000000;stroke-width:0.8;" x="279.917355" xlink:href="#m37a8e5cfc4" y="961.2"/>
      </g>
     </g>
     <g id="text_39">
      <!-- 1.5 -->
      <g transform="translate(271.965793 975.798437)scale(0.1 -0.1)">
       <use xlink:href="#DejaVuSans-31"/>
       <use x="63.623047" xlink:href="#DejaVuSans-2e"/>
       <use x="95.410156" xlink:href="#DejaVuSans-35"/>
      </g>
     </g>
    </g>
    <g id="xtick_17">
     <g id="line2d_34">
      <g>
       <use style="stroke:#000000;stroke-width:0.8;" x="356.77686" xlink:href="#m37a8e5cfc4" y="961.2"/>
      </g>
     </g>
     <g id="text_40">
      <!-- 2.0 -->
      <g transform="translate(348.825297 975.798437)scale(0.1 -0.1)">
       <use xlink:href="#DejaVuSans-32"/>
       <use x="63.623047" xlink:href="#DejaVuSans-2e"/>
       <use x="95.410156" xlink:href="#DejaVuSans-30"/>
      </g>
     </g>
    </g>
    <g id="xtick_18">
     <g id="line2d_35">
      <g>
       <use style="stroke:#000000;stroke-width:0.8;" x="433.636364" xlink:href="#m37a8e5cfc4" y="961.2"/>
      </g>
     </g>
     <g id="text_41">
      <!-- 2.5 -->
      <g transform="translate(425.684801 975.798437)scale(0.1 -0.1)">
       <use xlink:href="#DejaVuSans-32"/>
       <use x="63.623047" xlink:href="#DejaVuSans-2e"/>
       <use x="95.410156" xlink:href="#DejaVuSans-35"/>
      </g>
     </g>
    </g>
    <g id="xtick_19">
     <g id="line2d_36">
      <g>
       <use style="stroke:#000000;stroke-width:0.8;" x="510.495868" xlink:href="#m37a8e5cfc4" y="961.2"/>
      </g>
     </g>
     <g id="text_42">
      <!-- 3.0 -->
      <g transform="translate(502.544305 975.798437)scale(0.1 -0.1)">
       <use xlink:href="#DejaVuSans-33"/>
       <use x="63.623047" xlink:href="#DejaVuSans-2e"/>
       <use x="95.410156" xlink:href="#DejaVuSans-30"/>
      </g>
     </g>
    </g>
    <g id="xtick_20">
     <g id="line2d_37">
      <g>
       <use style="stroke:#000000;stroke-width:0.8;" x="587.355372" xlink:href="#m37a8e5cfc4" y="961.2"/>
      </g>
     </g>
     <g id="text_43">
      <!-- 3.5 -->
      <g transform="translate(579.403809 975.798437)scale(0.1 -0.1)">
       <use xlink:href="#DejaVuSans-33"/>
       <use x="63.623047" xlink:href="#DejaVuSans-2e"/>
       <use x="95.410156" xlink:href="#DejaVuSans-35"/>
      </g>
     </g>
    </g>
    <g id="xtick_21">
     <g id="line2d_38">
      <g>
       <use style="stroke:#000000;stroke-width:0.8;" x="664.214876" xlink:href="#m37a8e5cfc4" y="961.2"/>
      </g>
     </g>
     <g id="text_44">
      <!-- 4.0 -->
      <g transform="translate(656.263314 975.798437)scale(0.1 -0.1)">
       <use xlink:href="#DejaVuSans-34"/>
       <use x="63.623047" xlink:href="#DejaVuSans-2e"/>
       <use x="95.410156" xlink:href="#DejaVuSans-30"/>
      </g>
     </g>
    </g>
    <g id="text_45">
     <!-- 绩点区间 -->
     <g transform="translate(409.636364 991.346875)scale(0.12 -0.12)">
      <use xlink:href="#SimSun-7ee9"/>
      <use x="100" xlink:href="#SimSun-70b9"/>
      <use x="200" xlink:href="#SimSun-533a"/>
      <use x="300" xlink:href="#SimSun-95f4"/>
     </g>
    </g>
   </g>
   <g id="matplotlib.axis_6">
    <g id="ytick_18">
     <g id="line2d_39">
      <g>
       <use style="stroke:#000000;stroke-width:0.8;" x="180" xlink:href="#mdd0d3474ca" y="961.2"/>
      </g>
     </g>
     <g id="text_46">
      <!-- 0.0 -->
      <g transform="translate(157.096875 964.999219)scale(0.1 -0.1)">
       <use xlink:href="#DejaVuSans-30"/>
       <use x="63.623047" xlink:href="#DejaVuSans-2e"/>
       <use x="95.410156" xlink:href="#DejaVuSans-30"/>
      </g>
     </g>
    </g>
    <g id="ytick_19">
     <g id="line2d_40">
      <g>
       <use style="stroke:#000000;stroke-width:0.8;" x="180" xlink:href="#mdd0d3474ca" y="915.381818"/>
      </g>
     </g>
     <g id="text_47">
      <!-- 0.1 -->
      <g transform="translate(157.096875 919.181037)scale(0.1 -0.1)">
       <use xlink:href="#DejaVuSans-30"/>
       <use x="63.623047" xlink:href="#DejaVuSans-2e"/>
       <use x="95.410156" xlink:href="#DejaVuSans-31"/>
      </g>
     </g>
    </g>
    <g id="ytick_20">
     <g id="line2d_41">
      <g>
       <use style="stroke:#000000;stroke-width:0.8;" x="180" xlink:href="#mdd0d3474ca" y="869.563636"/>
      </g>
     </g>
     <g id="text_48">
      <!-- 0.2 -->
      <g transform="translate(157.096875 873.362855)scale(0.1 -0.1)">
       <use xlink:href="#DejaVuSans-30"/>
       <use x="63.623047" xlink:href="#DejaVuSans-2e"/>
       <use x="95.410156" xlink:href="#DejaVuSans-32"/>
      </g>
     </g>
    </g>
    <g id="ytick_21">
     <g id="line2d_42">
      <g>
       <use style="stroke:#000000;stroke-width:0.8;" x="180" xlink:href="#mdd0d3474ca" y="823.745455"/>
      </g>
     </g>
     <g id="text_49">
      <!-- 0.3 -->
      <g transform="translate(157.096875 827.544673)scale(0.1 -0.1)">
       <use xlink:href="#DejaVuSans-30"/>
       <use x="63.623047" xlink:href="#DejaVuSans-2e"/>
       <use x="95.410156" xlink:href="#DejaVuSans-33"/>
      </g>
     </g>
    </g>
    <g id="ytick_22">
     <g id="line2d_43">
      <g>
       <use style="stroke:#000000;stroke-width:0.8;" x="180" xlink:href="#mdd0d3474ca" y="777.927273"/>
      </g>
     </g>
     <g id="text_50">
      <!-- 0.4 -->
      <g transform="translate(157.096875 781.726491)scale(0.1 -0.1)">
       <use xlink:href="#DejaVuSans-30"/>
       <use x="63.623047" xlink:href="#DejaVuSans-2e"/>
       <use x="95.410156" xlink:href="#DejaVuSans-34"/>
      </g>
     </g>
    </g>
    <g id="ytick_23">
     <g id="line2d_44">
      <g>
       <use style="stroke:#000000;stroke-width:0.8;" x="180" xlink:href="#mdd0d3474ca" y="732.109091"/>
      </g>
     </g>
     <g id="text_51">
      <!-- 0.5 -->
      <g transform="translate(157.096875 735.90831)scale(0.1 -0.1)">
       <use xlink:href="#DejaVuSans-30"/>
       <use x="63.623047" xlink:href="#DejaVuSans-2e"/>
       <use x="95.410156" xlink:href="#DejaVuSans-35"/>
      </g>
     </g>
    </g>
    <g id="ytick_24">
     <g id="line2d_45">
      <g>
       <use style="stroke:#000000;stroke-width:0.8;" x="180" xlink:href="#mdd0d3474ca" y="686.290909"/>
      </g>
     </g>
     <g id="text_52">
      <!-- 0.6 -->
      <g transform="translate(157.096875 690.090128)scale(0.1 -0.1)">
       <use xlink:href="#DejaVuSans-30"/>
       <use x="63.623047" xlink:href="#DejaVuSans-2e"/>
       <use x="95.410156" xlink:href="#DejaVuSans-36"/>
      </g>
     </g>
    </g>
    <g id="ytick_25">
     <g id="line2d_46">
      <g>
       <use style="stroke:#000000;stroke-width:0.8;" x="180" xlink:href="#mdd0d3474ca" y="640.472727"/>
      </g>
     </g>
     <g id="text_53">
      <!-- 0.7 -->
      <g transform="translate(157.096875 644.271946)scale(0.1 -0.1)">
       <use xlink:href="#DejaVuSans-30"/>
       <use x="63.623047" xlink:href="#DejaVuSans-2e"/>
       <use x="95.410156" xlink:href="#DejaVuSans-37"/>
      </g>
     </g>
    </g>
    <g id="ytick_26">
     <g id="line2d_47">
      <g>
       <use style="stroke:#000000;stroke-width:0.8;" x="180" xlink:href="#mdd0d3474ca" y="594.654545"/>
      </g>
     </g>
     <g id="text_54">
      <!-- 0.8 -->
      <g transform="translate(157.096875 598.453764)scale(0.1 -0.1)">
       <use xlink:href="#DejaVuSans-30"/>
       <use x="63.623047" xlink:href="#DejaVuSans-2e"/>
       <use x="95.410156" xlink:href="#DejaVuSans-38"/>
      </g>
     </g>
    </g>
    <g id="text_55">
     <!-- 频率/间距 -->
     <g transform="translate(151.55 799.2)rotate(-90)scale(0.12 -0.12)">
      <use xlink:href="#SimSun-9891"/>
      <use x="100" xlink:href="#SimSun-7387"/>
      <use x="200" xlink:href="#SimSun-2f"/>
      <use x="250" xlink:href="#SimSun-95f4"/>
      <use x="350" xlink:href="#SimSun-8ddd"/>
     </g>
    </g>
   </g>
   <g id="patch_31">
    <path d="M 180 961.2 
L 180 583.2 
" style="fill:none;stroke:#000000;stroke-linecap:square;stroke-linejoin:miter;stroke-width:0.8;"/>
   </g>
   <g id="patch_32">
    <path d="M 687.272727 961.2 
L 687.272727 583.2 
" style="fill:none;stroke:#000000;stroke-linecap:square;stroke-linejoin:miter;stroke-width:0.8;"/>
   </g>
   <g id="patch_33">
    <path d="M 180 961.2 
L 687.272727 961.2 
" style="fill:none;stroke:#000000;stroke-linecap:square;stroke-linejoin:miter;stroke-width:0.8;"/>
   </g>
   <g id="patch_34">
    <path d="M 180 583.2 
L 687.272727 583.2 
" style="fill:none;stroke:#000000;stroke-linecap:square;stroke-linejoin:miter;stroke-width:0.8;"/>
   </g>
   <g id="text_56">
    <!-- 第3组 -->
    <defs>
     <path d="M 43.75 19.53125 
Q 43.75 12.109375 38.28125 6.4375 
Q 32.8125 0.78125 23.046875 0.78125 
Q 16.015625 0.78125 10.9375 4.6875 
Q 5.859375 8.59375 5.859375 13.671875 
Q 5.859375 16.015625 7.421875 17.765625 
Q 8.984375 19.53125 10.546875 19.53125 
Q 12.890625 19.53125 13.859375 17.765625 
Q 14.84375 16.015625 14.84375 14.84375 
Q 14.84375 12.890625 14.0625 11.71875 
Q 13.28125 10.15625 13.28125 8.984375 
Q 13.28125 6.640625 16.203125 5.078125 
Q 19.140625 3.515625 22.65625 3.515625 
Q 29.6875 3.515625 33.203125 7.609375 
Q 36.71875 11.71875 36.71875 20.3125 
Q 36.71875 27.34375 33 31.640625 
Q 29.296875 35.9375 19.140625 35.9375 
L 19.140625 38.671875 
Q 26.953125 38.671875 30.65625 42.375 
Q 34.375 46.09375 34.375 52.734375 
Q 34.375 58.203125 31.4375 62.296875 
Q 28.515625 66.40625 22.265625 66.40625 
Q 19.53125 66.40625 16.40625 65.03125 
Q 13.28125 63.671875 13.28125 60.546875 
Q 13.28125 57.421875 14.0625 56.640625 
Q 14.84375 55.859375 14.84375 54.6875 
Q 14.84375 52.734375 14.0625 51.5625 
Q 13.28125 50.390625 11.328125 50.390625 
Q 9.765625 50.390625 8.390625 51.5625 
Q 7.03125 52.734375 7.03125 55.859375 
Q 7.03125 61.71875 12.109375 65.421875 
Q 17.1875 69.140625 23.828125 69.140625 
Q 31.640625 69.140625 36.328125 64.25 
Q 41.015625 59.375 41.015625 53.90625 
Q 41.015625 48.046875 38.078125 43.9375 
Q 35.15625 39.84375 28.90625 37.890625 
Q 37.5 34.765625 40.625 29.6875 
Q 43.75 24.609375 43.75 19.53125 
z
" id="SimSun-33"/>
    </defs>
    <g transform="translate(418.636364 577.2)scale(0.12 -0.12)">
     <use xlink:href="#SimSun-7b2c"/>
     <use x="100" xlink:href="#SimSun-33"/>
     <use x="150" xlink:href="#SimSun-7ec4"/>
    </g>
   </g>
  </g>
  <g id="axes_4">
   <g id="patch_35">
    <path d="M 788.727273 961.2 
L 1296 961.2 
L 1296 583.2 
L 788.727273 583.2 
z
" style="fill:#ffffff;"/>
   </g>
   <g id="patch_36">
    <path clip-path="url(#p2a23072974)" d="M 811.785124 961.2 
L 888.644628 961.2 
L 888.644628 961.2 
L 811.785124 961.2 
z
" style="fill:#1f77b4;"/>
   </g>
   <g id="patch_37">
    <path clip-path="url(#p2a23072974)" d="M 888.644628 961.2 
L 965.504132 961.2 
L 965.504132 863.018182 
L 888.644628 863.018182 
z
" style="fill:#1f77b4;"/>
   </g>
   <g id="patch_38">
    <path clip-path="url(#p2a23072974)" d="M 965.504132 961.2 
L 1042.363636 961.2 
L 1042.363636 797.563636 
L 965.504132 797.563636 
z
" style="fill:#1f77b4;"/>
   </g>
   <g id="patch_39">
    <path clip-path="url(#p2a23072974)" d="M 1042.363636 961.2 
L 1119.22314 961.2 
L 1119.22314 601.2 
L 1042.363636 601.2 
z
" style="fill:#1f77b4;"/>
   </g>
   <g id="patch_40">
    <path clip-path="url(#p2a23072974)" d="M 1119.22314 961.2 
L 1196.082645 961.2 
L 1196.082645 699.381818 
L 1119.22314 699.381818 
z
" style="fill:#1f77b4;"/>
   </g>
   <g id="patch_41">
    <path clip-path="url(#p2a23072974)" d="M 1196.082645 961.2 
L 1272.942149 961.2 
L 1272.942149 928.472727 
L 1196.082645 928.472727 
z
" style="fill:#1f77b4;"/>
   </g>
   <g id="matplotlib.axis_7">
    <g id="xtick_22">
     <g id="line2d_48">
      <g>
       <use style="stroke:#000000;stroke-width:0.8;" x="811.785124" xlink:href="#m37a8e5cfc4" y="961.2"/>
      </g>
     </g>
     <g id="text_57">
      <!-- 1.0 -->
      <g transform="translate(803.833561 975.798437)scale(0.1 -0.1)">
       <use xlink:href="#DejaVuSans-31"/>
       <use x="63.623047" xlink:href="#DejaVuSans-2e"/>
       <use x="95.410156" xlink:href="#DejaVuSans-30"/>
      </g>
     </g>
    </g>
    <g id="xtick_23">
     <g id="line2d_49">
      <g>
       <use style="stroke:#000000;stroke-width:0.8;" x="888.644628" xlink:href="#m37a8e5cfc4" y="961.2"/>
      </g>
     </g>
     <g id="text_58">
      <!-- 1.5 -->
      <g transform="translate(880.693066 975.798437)scale(0.1 -0.1)">
       <use xlink:href="#DejaVuSans-31"/>
       <use x="63.623047" xlink:href="#DejaVuSans-2e"/>
       <use x="95.410156" xlink:href="#DejaVuSans-35"/>
      </g>
     </g>
    </g>
    <g id="xtick_24">
     <g id="line2d_50">
      <g>
       <use style="stroke:#000000;stroke-width:0.8;" x="965.504132" xlink:href="#m37a8e5cfc4" y="961.2"/>
      </g>
     </g>
     <g id="text_59">
      <!-- 2.0 -->
      <g transform="translate(957.55257 975.798437)scale(0.1 -0.1)">
       <use xlink:href="#DejaVuSans-32"/>
       <use x="63.623047" xlink:href="#DejaVuSans-2e"/>
       <use x="95.410156" xlink:href="#DejaVuSans-30"/>
      </g>
     </g>
    </g>
    <g id="xtick_25">
     <g id="line2d_51">
      <g>
       <use style="stroke:#000000;stroke-width:0.8;" x="1042.363636" xlink:href="#m37a8e5cfc4" y="961.2"/>
      </g>
     </g>
     <g id="text_60">
      <!-- 2.5 -->
      <g transform="translate(1034.412074 975.798437)scale(0.1 -0.1)">
       <use xlink:href="#DejaVuSans-32"/>
       <use x="63.623047" xlink:href="#DejaVuSans-2e"/>
       <use x="95.410156" xlink:href="#DejaVuSans-35"/>
      </g>
     </g>
    </g>
    <g id="xtick_26">
     <g id="line2d_52">
      <g>
       <use style="stroke:#000000;stroke-width:0.8;" x="1119.22314" xlink:href="#m37a8e5cfc4" y="961.2"/>
      </g>
     </g>
     <g id="text_61">
      <!-- 3.0 -->
      <g transform="translate(1111.271578 975.798437)scale(0.1 -0.1)">
       <use xlink:href="#DejaVuSans-33"/>
       <use x="63.623047" xlink:href="#DejaVuSans-2e"/>
       <use x="95.410156" xlink:href="#DejaVuSans-30"/>
      </g>
     </g>
    </g>
    <g id="xtick_27">
     <g id="line2d_53">
      <g>
       <use style="stroke:#000000;stroke-width:0.8;" x="1196.082645" xlink:href="#m37a8e5cfc4" y="961.2"/>
      </g>
     </g>
     <g id="text_62">
      <!-- 3.5 -->
      <g transform="translate(1188.131082 975.798437)scale(0.1 -0.1)">
       <use xlink:href="#DejaVuSans-33"/>
       <use x="63.623047" xlink:href="#DejaVuSans-2e"/>
       <use x="95.410156" xlink:href="#DejaVuSans-35"/>
      </g>
     </g>
    </g>
    <g id="xtick_28">
     <g id="line2d_54">
      <g>
       <use style="stroke:#000000;stroke-width:0.8;" x="1272.942149" xlink:href="#m37a8e5cfc4" y="961.2"/>
      </g>
     </g>
     <g id="text_63">
      <!-- 4.0 -->
      <g transform="translate(1264.990586 975.798437)scale(0.1 -0.1)">
       <use xlink:href="#DejaVuSans-34"/>
       <use x="63.623047" xlink:href="#DejaVuSans-2e"/>
       <use x="95.410156" xlink:href="#DejaVuSans-30"/>
      </g>
     </g>
    </g>
    <g id="text_64">
     <!-- 绩点区间 -->
     <g transform="translate(1018.363636 991.346875)scale(0.12 -0.12)">
      <use xlink:href="#SimSun-7ee9"/>
      <use x="100" xlink:href="#SimSun-70b9"/>
      <use x="200" xlink:href="#SimSun-533a"/>
      <use x="300" xlink:href="#SimSun-95f4"/>
     </g>
    </g>
   </g>
   <g id="matplotlib.axis_8">
    <g id="ytick_27">
     <g id="line2d_55">
      <g>
       <use style="stroke:#000000;stroke-width:0.8;" x="788.727273" xlink:href="#mdd0d3474ca" y="961.2"/>
      </g>
     </g>
     <g id="text_65">
      <!-- 0.0 -->
      <g transform="translate(765.824148 964.999219)scale(0.1 -0.1)">
       <use xlink:href="#DejaVuSans-30"/>
       <use x="63.623047" xlink:href="#DejaVuSans-2e"/>
       <use x="95.410156" xlink:href="#DejaVuSans-30"/>
      </g>
     </g>
    </g>
    <g id="ytick_28">
     <g id="line2d_56">
      <g>
       <use style="stroke:#000000;stroke-width:0.8;" x="788.727273" xlink:href="#mdd0d3474ca" y="915.381818"/>
      </g>
     </g>
     <g id="text_66">
      <!-- 0.1 -->
      <g transform="translate(765.824148 919.181037)scale(0.1 -0.1)">
       <use xlink:href="#DejaVuSans-30"/>
       <use x="63.623047" xlink:href="#DejaVuSans-2e"/>
       <use x="95.410156" xlink:href="#DejaVuSans-31"/>
      </g>
     </g>
    </g>
    <g id="ytick_29">
     <g id="line2d_57">
      <g>
       <use style="stroke:#000000;stroke-width:0.8;" x="788.727273" xlink:href="#mdd0d3474ca" y="869.563636"/>
      </g>
     </g>
     <g id="text_67">
      <!-- 0.2 -->
      <g transform="translate(765.824148 873.362855)scale(0.1 -0.1)">
       <use xlink:href="#DejaVuSans-30"/>
       <use x="63.623047" xlink:href="#DejaVuSans-2e"/>
       <use x="95.410156" xlink:href="#DejaVuSans-32"/>
      </g>
     </g>
    </g>
    <g id="ytick_30">
     <g id="line2d_58">
      <g>
       <use style="stroke:#000000;stroke-width:0.8;" x="788.727273" xlink:href="#mdd0d3474ca" y="823.745455"/>
      </g>
     </g>
     <g id="text_68">
      <!-- 0.3 -->
      <g transform="translate(765.824148 827.544673)scale(0.1 -0.1)">
       <use xlink:href="#DejaVuSans-30"/>
       <use x="63.623047" xlink:href="#DejaVuSans-2e"/>
       <use x="95.410156" xlink:href="#DejaVuSans-33"/>
      </g>
     </g>
    </g>
    <g id="ytick_31">
     <g id="line2d_59">
      <g>
       <use style="stroke:#000000;stroke-width:0.8;" x="788.727273" xlink:href="#mdd0d3474ca" y="777.927273"/>
      </g>
     </g>
     <g id="text_69">
      <!-- 0.4 -->
      <g transform="translate(765.824148 781.726491)scale(0.1 -0.1)">
       <use xlink:href="#DejaVuSans-30"/>
       <use x="63.623047" xlink:href="#DejaVuSans-2e"/>
       <use x="95.410156" xlink:href="#DejaVuSans-34"/>
      </g>
     </g>
    </g>
    <g id="ytick_32">
     <g id="line2d_60">
      <g>
       <use style="stroke:#000000;stroke-width:0.8;" x="788.727273" xlink:href="#mdd0d3474ca" y="732.109091"/>
      </g>
     </g>
     <g id="text_70">
      <!-- 0.5 -->
      <g transform="translate(765.824148 735.90831)scale(0.1 -0.1)">
       <use xlink:href="#DejaVuSans-30"/>
       <use x="63.623047" xlink:href="#DejaVuSans-2e"/>
       <use x="95.410156" xlink:href="#DejaVuSans-35"/>
      </g>
     </g>
    </g>
    <g id="ytick_33">
     <g id="line2d_61">
      <g>
       <use style="stroke:#000000;stroke-width:0.8;" x="788.727273" xlink:href="#mdd0d3474ca" y="686.290909"/>
      </g>
     </g>
     <g id="text_71">
      <!-- 0.6 -->
      <g transform="translate(765.824148 690.090128)scale(0.1 -0.1)">
       <use xlink:href="#DejaVuSans-30"/>
       <use x="63.623047" xlink:href="#DejaVuSans-2e"/>
       <use x="95.410156" xlink:href="#DejaVuSans-36"/>
      </g>
     </g>
    </g>
    <g id="ytick_34">
     <g id="line2d_62">
      <g>
       <use style="stroke:#000000;stroke-width:0.8;" x="788.727273" xlink:href="#mdd0d3474ca" y="640.472727"/>
      </g>
     </g>
     <g id="text_72">
      <!-- 0.7 -->
      <g transform="translate(765.824148 644.271946)scale(0.1 -0.1)">
       <use xlink:href="#DejaVuSans-30"/>
       <use x="63.623047" xlink:href="#DejaVuSans-2e"/>
       <use x="95.410156" xlink:href="#DejaVuSans-37"/>
      </g>
     </g>
    </g>
    <g id="ytick_35">
     <g id="line2d_63">
      <g>
       <use style="stroke:#000000;stroke-width:0.8;" x="788.727273" xlink:href="#mdd0d3474ca" y="594.654545"/>
      </g>
     </g>
     <g id="text_73">
      <!-- 0.8 -->
      <g transform="translate(765.824148 598.453764)scale(0.1 -0.1)">
       <use xlink:href="#DejaVuSans-30"/>
       <use x="63.623047" xlink:href="#DejaVuSans-2e"/>
       <use x="95.410156" xlink:href="#DejaVuSans-38"/>
      </g>
     </g>
    </g>
    <g id="text_74">
     <!-- 频率/间距 -->
     <g transform="translate(760.277273 799.2)rotate(-90)scale(0.12 -0.12)">
      <use xlink:href="#SimSun-9891"/>
      <use x="100" xlink:href="#SimSun-7387"/>
      <use x="200" xlink:href="#SimSun-2f"/>
      <use x="250" xlink:href="#SimSun-95f4"/>
      <use x="350" xlink:href="#SimSun-8ddd"/>
     </g>
    </g>
   </g>
   <g id="patch_42">
    <path d="M 788.727273 961.2 
L 788.727273 583.2 
" style="fill:none;stroke:#000000;stroke-linecap:square;stroke-linejoin:miter;stroke-width:0.8;"/>
   </g>
   <g id="patch_43">
    <path d="M 1296 961.2 
L 1296 583.2 
" style="fill:none;stroke:#000000;stroke-linecap:square;stroke-linejoin:miter;stroke-width:0.8;"/>
   </g>
   <g id="patch_44">
    <path d="M 788.727273 961.2 
L 1296 961.2 
" style="fill:none;stroke:#000000;stroke-linecap:square;stroke-linejoin:miter;stroke-width:0.8;"/>
   </g>
   <g id="patch_45">
    <path d="M 788.727273 583.2 
L 1296 583.2 
" style="fill:none;stroke:#000000;stroke-linecap:square;stroke-linejoin:miter;stroke-width:0.8;"/>
   </g>
   <g id="text_75">
    <!-- 第4组 -->
    <defs>
     <path d="M 35.9375 8.984375 
Q 35.9375 6.25 37.5 5.078125 
Q 39.0625 3.90625 41.796875 3.90625 
L 45.3125 3.90625 
L 45.3125 1.5625 
L 19.53125 1.5625 
L 19.53125 3.90625 
L 23.828125 3.90625 
Q 26.953125 3.90625 28.3125 5.078125 
Q 29.6875 6.25 29.6875 8.984375 
L 29.6875 21.875 
L 3.515625 21.875 
L 3.515625 23.828125 
L 32.03125 69.140625 
L 35.9375 69.140625 
L 35.9375 24.21875 
L 46.484375 24.21875 
L 46.484375 21.875 
L 35.9375 21.875 
z
M 29.296875 59.375 
L 7.03125 24.21875 
L 29.6875 24.21875 
L 29.6875 59.375 
z
" id="SimSun-34"/>
    </defs>
    <g transform="translate(1027.363636 577.2)scale(0.12 -0.12)">
     <use xlink:href="#SimSun-7b2c"/>
     <use x="100" xlink:href="#SimSun-34"/>
     <use x="150" xlink:href="#SimSun-7ec4"/>
    </g>
   </g>
  </g>
 </g>
 <defs>
  <clipPath id="p69df1be568">
   <rect height="378" width="507.272727" x="180" y="129.6"/>
  </clipPath>
  <clipPath id="p84ddf7e967">
   <rect height="378" width="507.272727" x="788.727273" y="129.6"/>
  </clipPath>
  <clipPath id="p1292bfe4f1">
   <rect height="378" width="507.272727" x="180" y="583.2"/>
  </clipPath>
  <clipPath id="p2a23072974">
   <rect height="378" width="507.272727" x="788.727273" y="583.2"/>
  </clipPath>
 </defs>
</svg>
