<?xml version="1.0" encoding="utf-8" standalone="no"?>
<!DOCTYPE svg PUBLIC "-//W3C//DTD SVG 1.1//EN"
  "http://www.w3.org/Graphics/SVG/1.1/DTD/svg11.dtd">
<!-- Created with matplotlib (https://matplotlib.org/) -->
<svg height="1080pt" version="1.1" viewBox="0 0 1440 1080" width="1440pt" xmlns="http://www.w3.org/2000/svg" xmlns:xlink="http://www.w3.org/1999/xlink">
 <defs>
  <style type="text/css">
*{stroke-linecap:butt;stroke-linejoin:round;}
  </style>
 </defs>
 <g id="figure_1">
  <g id="patch_1">
   <path d="M 0 1080 
L 1440 1080 
L 1440 0 
L 0 0 
z
" style="fill:#ffffff;"/>
  </g>
  <g id="axes_1">
   <g id="patch_2">
    <path d="M 180 507.6 
L 508.235294 507.6 
L 508.235294 129.6 
L 180 129.6 
z
" style="fill:#ffffff;"/>
   </g>
   <g id="patch_3">
    <path clip-path="url(#pa5d2cdd88e)" d="M 194.919786 507.6 
L 244.652406 507.6 
L 244.652406 507.6 
L 194.919786 507.6 
z
" style="fill:#1f77b4;"/>
   </g>
   <g id="patch_4">
    <path clip-path="url(#pa5d2cdd88e)" d="M 244.652406 507.6 
L 294.385027 507.6 
L 294.385027 507.6 
L 244.652406 507.6 
z
" style="fill:#1f77b4;"/>
   </g>
   <g id="patch_5">
    <path clip-path="url(#pa5d2cdd88e)" d="M 294.385027 507.6 
L 344.117647 507.6 
L 344.117647 301.885714 
L 294.385027 301.885714 
z
" style="fill:#1f77b4;"/>
   </g>
   <g id="patch_6">
    <path clip-path="url(#pa5d2cdd88e)" d="M 344.117647 507.6 
L 393.850267 507.6 
L 393.850267 301.885714 
L 344.117647 301.885714 
z
" style="fill:#1f77b4;"/>
   </g>
   <g id="patch_7">
    <path clip-path="url(#pa5d2cdd88e)" d="M 393.850267 507.6 
L 443.582888 507.6 
L 443.582888 147.6 
L 393.850267 147.6 
z
" style="fill:#1f77b4;"/>
   </g>
   <g id="patch_8">
    <path clip-path="url(#pa5d2cdd88e)" d="M 443.582888 507.6 
L 493.315508 507.6 
L 493.315508 250.457143 
L 443.582888 250.457143 
z
" style="fill:#1f77b4;"/>
   </g>
   <g id="matplotlib.axis_1">
    <g id="xtick_1">
     <g id="line2d_1">
      <defs>
       <path d="M 0 0 
L 0 3.5 
" id="m4ba92b2e3e" style="stroke:#000000;stroke-width:0.8;"/>
      </defs>
      <g>
       <use style="stroke:#000000;stroke-width:0.8;" x="194.919786" xlink:href="#m4ba92b2e3e" y="507.6"/>
      </g>
     </g>
     <g id="text_1">
      <!-- 1.0 -->
      <defs>
       <path d="M 12.40625 8.296875 
L 28.515625 8.296875 
L 28.515625 63.921875 
L 10.984375 60.40625 
L 10.984375 69.390625 
L 28.421875 72.90625 
L 38.28125 72.90625 
L 38.28125 8.296875 
L 54.390625 8.296875 
L 54.390625 0 
L 12.40625 0 
z
" id="DejaVuSans-49"/>
       <path d="M 10.6875 12.40625 
L 21 12.40625 
L 21 0 
L 10.6875 0 
z
" id="DejaVuSans-46"/>
       <path d="M 31.78125 66.40625 
Q 24.171875 66.40625 20.328125 58.90625 
Q 16.5 51.421875 16.5 36.375 
Q 16.5 21.390625 20.328125 13.890625 
Q 24.171875 6.390625 31.78125 6.390625 
Q 39.453125 6.390625 43.28125 13.890625 
Q 47.125 21.390625 47.125 36.375 
Q 47.125 51.421875 43.28125 58.90625 
Q 39.453125 66.40625 31.78125 66.40625 
z
M 31.78125 74.21875 
Q 44.046875 74.21875 50.515625 64.515625 
Q 56.984375 54.828125 56.984375 36.375 
Q 56.984375 17.96875 50.515625 8.265625 
Q 44.046875 -1.421875 31.78125 -1.421875 
Q 19.53125 -1.421875 13.0625 8.265625 
Q 6.59375 17.96875 6.59375 36.375 
Q 6.59375 54.828125 13.0625 64.515625 
Q 19.53125 74.21875 31.78125 74.21875 
z
" id="DejaVuSans-48"/>
      </defs>
      <g transform="translate(186.968224 522.198438)scale(0.1 -0.1)">
       <use xlink:href="#DejaVuSans-49"/>
       <use x="63.623047" xlink:href="#DejaVuSans-46"/>
       <use x="95.410156" xlink:href="#DejaVuSans-48"/>
      </g>
     </g>
    </g>
    <g id="xtick_2">
     <g id="line2d_2">
      <g>
       <use style="stroke:#000000;stroke-width:0.8;" x="244.652406" xlink:href="#m4ba92b2e3e" y="507.6"/>
      </g>
     </g>
     <g id="text_2">
      <!-- 1.5 -->
      <defs>
       <path d="M 10.796875 72.90625 
L 49.515625 72.90625 
L 49.515625 64.59375 
L 19.828125 64.59375 
L 19.828125 46.734375 
Q 21.96875 47.46875 24.109375 47.828125 
Q 26.265625 48.1875 28.421875 48.1875 
Q 40.625 48.1875 47.75 41.5 
Q 54.890625 34.8125 54.890625 23.390625 
Q 54.890625 11.625 47.5625 5.09375 
Q 40.234375 -1.421875 26.90625 -1.421875 
Q 22.3125 -1.421875 17.546875 -0.640625 
Q 12.796875 0.140625 7.71875 1.703125 
L 7.71875 11.625 
Q 12.109375 9.234375 16.796875 8.0625 
Q 21.484375 6.890625 26.703125 6.890625 
Q 35.15625 6.890625 40.078125 11.328125 
Q 45.015625 15.765625 45.015625 23.390625 
Q 45.015625 31 40.078125 35.4375 
Q 35.15625 39.890625 26.703125 39.890625 
Q 22.75 39.890625 18.8125 39.015625 
Q 14.890625 38.140625 10.796875 36.28125 
z
" id="DejaVuSans-53"/>
      </defs>
      <g transform="translate(236.700844 522.198438)scale(0.1 -0.1)">
       <use xlink:href="#DejaVuSans-49"/>
       <use x="63.623047" xlink:href="#DejaVuSans-46"/>
       <use x="95.410156" xlink:href="#DejaVuSans-53"/>
      </g>
     </g>
    </g>
    <g id="xtick_3">
     <g id="line2d_3">
      <g>
       <use style="stroke:#000000;stroke-width:0.8;" x="294.385027" xlink:href="#m4ba92b2e3e" y="507.6"/>
      </g>
     </g>
     <g id="text_3">
      <!-- 2.0 -->
      <defs>
       <path d="M 19.1875 8.296875 
L 53.609375 8.296875 
L 53.609375 0 
L 7.328125 0 
L 7.328125 8.296875 
Q 12.9375 14.109375 22.625 23.890625 
Q 32.328125 33.6875 34.8125 36.53125 
Q 39.546875 41.84375 41.421875 45.53125 
Q 43.3125 49.21875 43.3125 52.78125 
Q 43.3125 58.59375 39.234375 62.25 
Q 35.15625 65.921875 28.609375 65.921875 
Q 23.96875 65.921875 18.8125 64.3125 
Q 13.671875 62.703125 7.8125 59.421875 
L 7.8125 69.390625 
Q 13.765625 71.78125 18.9375 73 
Q 24.125 74.21875 28.421875 74.21875 
Q 39.75 74.21875 46.484375 68.546875 
Q 53.21875 62.890625 53.21875 53.421875 
Q 53.21875 48.921875 51.53125 44.890625 
Q 49.859375 40.875 45.40625 35.40625 
Q 44.1875 33.984375 37.640625 27.21875 
Q 31.109375 20.453125 19.1875 8.296875 
z
" id="DejaVuSans-50"/>
      </defs>
      <g transform="translate(286.433464 522.198438)scale(0.1 -0.1)">
       <use xlink:href="#DejaVuSans-50"/>
       <use x="63.623047" xlink:href="#DejaVuSans-46"/>
       <use x="95.410156" xlink:href="#DejaVuSans-48"/>
      </g>
     </g>
    </g>
    <g id="xtick_4">
     <g id="line2d_4">
      <g>
       <use style="stroke:#000000;stroke-width:0.8;" x="344.117647" xlink:href="#m4ba92b2e3e" y="507.6"/>
      </g>
     </g>
     <g id="text_4">
      <!-- 2.5 -->
      <g transform="translate(336.166085 522.198438)scale(0.1 -0.1)">
       <use xlink:href="#DejaVuSans-50"/>
       <use x="63.623047" xlink:href="#DejaVuSans-46"/>
       <use x="95.410156" xlink:href="#DejaVuSans-53"/>
      </g>
     </g>
    </g>
    <g id="xtick_5">
     <g id="line2d_5">
      <g>
       <use style="stroke:#000000;stroke-width:0.8;" x="393.850267" xlink:href="#m4ba92b2e3e" y="507.6"/>
      </g>
     </g>
     <g id="text_5">
      <!-- 3.0 -->
      <defs>
       <path d="M 40.578125 39.3125 
Q 47.65625 37.796875 51.625 33 
Q 55.609375 28.21875 55.609375 21.1875 
Q 55.609375 10.40625 48.1875 4.484375 
Q 40.765625 -1.421875 27.09375 -1.421875 
Q 22.515625 -1.421875 17.65625 -0.515625 
Q 12.796875 0.390625 7.625 2.203125 
L 7.625 11.71875 
Q 11.71875 9.328125 16.59375 8.109375 
Q 21.484375 6.890625 26.8125 6.890625 
Q 36.078125 6.890625 40.9375 10.546875 
Q 45.796875 14.203125 45.796875 21.1875 
Q 45.796875 27.640625 41.28125 31.265625 
Q 36.765625 34.90625 28.71875 34.90625 
L 20.21875 34.90625 
L 20.21875 43.015625 
L 29.109375 43.015625 
Q 36.375 43.015625 40.234375 45.921875 
Q 44.09375 48.828125 44.09375 54.296875 
Q 44.09375 59.90625 40.109375 62.90625 
Q 36.140625 65.921875 28.71875 65.921875 
Q 24.65625 65.921875 20.015625 65.03125 
Q 15.375 64.15625 9.8125 62.3125 
L 9.8125 71.09375 
Q 15.4375 72.65625 20.34375 73.4375 
Q 25.25 74.21875 29.59375 74.21875 
Q 40.828125 74.21875 47.359375 69.109375 
Q 53.90625 64.015625 53.90625 55.328125 
Q 53.90625 49.265625 50.4375 45.09375 
Q 46.96875 40.921875 40.578125 39.3125 
z
" id="DejaVuSans-51"/>
      </defs>
      <g transform="translate(385.898705 522.198438)scale(0.1 -0.1)">
       <use xlink:href="#DejaVuSans-51"/>
       <use x="63.623047" xlink:href="#DejaVuSans-46"/>
       <use x="95.410156" xlink:href="#DejaVuSans-48"/>
      </g>
     </g>
    </g>
    <g id="xtick_6">
     <g id="line2d_6">
      <g>
       <use style="stroke:#000000;stroke-width:0.8;" x="443.582888" xlink:href="#m4ba92b2e3e" y="507.6"/>
      </g>
     </g>
     <g id="text_6">
      <!-- 3.5 -->
      <g transform="translate(435.631325 522.198438)scale(0.1 -0.1)">
       <use xlink:href="#DejaVuSans-51"/>
       <use x="63.623047" xlink:href="#DejaVuSans-46"/>
       <use x="95.410156" xlink:href="#DejaVuSans-53"/>
      </g>
     </g>
    </g>
    <g id="xtick_7">
     <g id="line2d_7">
      <g>
       <use style="stroke:#000000;stroke-width:0.8;" x="493.315508" xlink:href="#m4ba92b2e3e" y="507.6"/>
      </g>
     </g>
     <g id="text_7">
      <!-- 4.0 -->
      <defs>
       <path d="M 37.796875 64.3125 
L 12.890625 25.390625 
L 37.796875 25.390625 
z
M 35.203125 72.90625 
L 47.609375 72.90625 
L 47.609375 25.390625 
L 58.015625 25.390625 
L 58.015625 17.1875 
L 47.609375 17.1875 
L 47.609375 0 
L 37.796875 0 
L 37.796875 17.1875 
L 4.890625 17.1875 
L 4.890625 26.703125 
z
" id="DejaVuSans-52"/>
      </defs>
      <g transform="translate(485.363946 522.198438)scale(0.1 -0.1)">
       <use xlink:href="#DejaVuSans-52"/>
       <use x="63.623047" xlink:href="#DejaVuSans-46"/>
       <use x="95.410156" xlink:href="#DejaVuSans-48"/>
      </g>
     </g>
    </g>
    <g id="text_8">
     <!-- grade_interval -->
     <defs>
      <path d="M 13.671875 30.859375 
Q 13.671875 26.171875 16.40625 22.84375 
Q 19.140625 19.53125 23.828125 19.53125 
Q 28.90625 19.53125 31.4375 22.453125 
Q 33.984375 25.390625 33.984375 30.859375 
Q 33.984375 37.5 31.046875 40.421875 
Q 28.125 43.359375 23.828125 43.359375 
Q 19.53125 43.359375 16.59375 40.421875 
Q 13.671875 37.5 13.671875 30.859375 
z
M 32.8125 9.765625 
Q 38.671875 8.984375 41.40625 6.4375 
Q 44.140625 3.90625 44.140625 -0.390625 
Q 44.140625 -6.25 39.25 -9.765625 
Q 34.375 -13.28125 23.828125 -13.28125 
Q 15.625 -13.28125 10.546875 -9.953125 
Q 5.46875 -6.640625 5.46875 -2.34375 
Q 5.46875 0.390625 7.421875 3.125 
Q 9.375 5.859375 13.671875 7.421875 
Q 11.328125 8.59375 9.953125 9.953125 
Q 8.59375 11.328125 8.59375 13.28125 
Q 8.59375 15.625 10.15625 17.375 
Q 11.71875 19.140625 14.0625 20.3125 
Q 11.71875 22.265625 9.953125 25 
Q 8.203125 27.734375 8.203125 30.859375 
Q 8.203125 36.71875 12.296875 41.203125 
Q 16.40625 45.703125 23.828125 45.703125 
Q 26.953125 45.703125 29.875 44.921875 
Q 32.8125 44.140625 34.765625 42.1875 
Q 37.5 44.140625 39.640625 45.109375 
Q 41.796875 46.09375 43.359375 46.09375 
Q 45.3125 46.09375 46.09375 44.71875 
Q 46.875 43.359375 46.875 42.1875 
Q 46.875 40.625 46.28125 39.640625 
Q 45.703125 38.671875 44.140625 38.671875 
Q 42.96875 38.671875 42.1875 39.25 
Q 41.40625 39.84375 41.015625 41.015625 
Q 40.625 42.1875 39.25 41.984375 
Q 37.890625 41.796875 36.328125 40.625 
Q 37.890625 39.0625 38.671875 36.328125 
Q 39.453125 33.59375 39.453125 30.859375 
Q 39.453125 26.171875 35.734375 21.671875 
Q 32.03125 17.1875 23.828125 17.1875 
Q 21.484375 17.1875 19.53125 17.765625 
Q 17.578125 18.359375 16.40625 19.140625 
Q 14.84375 18.359375 14.0625 17.1875 
Q 13.28125 16.015625 13.28125 15.234375 
Q 13.28125 13.671875 14.0625 12.890625 
Q 14.84375 12.109375 16.40625 12.109375 
Q 21.484375 11.328125 25.578125 10.734375 
Q 29.6875 10.15625 32.8125 9.765625 
z
M 16.796875 6.640625 
Q 13.28125 5.078125 11.90625 2.921875 
Q 10.546875 0.78125 10.546875 -2.34375 
Q 10.546875 -5.46875 14.0625 -8.203125 
Q 17.578125 -10.9375 24.609375 -10.9375 
Q 31.25 -10.9375 35.15625 -8.78125 
Q 39.0625 -6.640625 39.0625 -2.34375 
Q 39.0625 0.390625 38.078125 1.953125 
Q 37.109375 3.515625 35.15625 3.90625 
Q 31.25 4.6875 26.5625 5.46875 
Q 21.875 5.859375 16.796875 6.640625 
z
" id="SimSun-103"/>
      <path d="M 19.921875 33.203125 
Q 23.828125 39.453125 28.3125 42.765625 
Q 32.8125 46.09375 37.5 46.09375 
Q 41.40625 46.09375 43.546875 44.328125 
Q 45.703125 42.578125 45.703125 40.234375 
Q 45.703125 38.28125 44.71875 37.109375 
Q 43.75 35.9375 41.796875 35.9375 
Q 39.84375 35.9375 38.859375 37.109375 
Q 37.890625 38.28125 38.28125 40.234375 
Q 38.28125 41.40625 37.890625 42.1875 
Q 37.5 42.96875 35.546875 42.96875 
Q 32.421875 42.96875 27.921875 39.0625 
Q 23.4375 35.15625 19.921875 28.125 
L 19.921875 7.03125 
Q 19.921875 5.46875 20.890625 4.6875 
Q 21.875 3.90625 23.4375 3.90625 
L 32.03125 3.90625 
L 32.03125 1.5625 
L 3.125 1.5625 
L 3.125 3.90625 
L 10.9375 3.90625 
Q 12.890625 3.90625 13.671875 4.6875 
Q 14.453125 5.46875 14.453125 7.03125 
L 14.453125 39.453125 
Q 14.453125 41.015625 13.671875 41.984375 
Q 12.890625 42.96875 10.9375 42.96875 
L 3.515625 42.96875 
L 3.515625 45.3125 
L 6.640625 45.3125 
Q 9.375 45.3125 13.078125 45.890625 
Q 16.796875 46.484375 18.75 47.265625 
L 19.921875 47.265625 
z
" id="SimSun-114"/>
      <path d="M 19.140625 1.171875 
Q 12.109375 1.171875 8.203125 4.484375 
Q 4.296875 7.8125 4.296875 12.109375 
Q 4.296875 19.140625 10.34375 23.625 
Q 16.40625 28.125 34.375 30.078125 
L 34.375 34.765625 
Q 34.375 38.671875 32.609375 41.203125 
Q 30.859375 43.75 24.609375 43.75 
Q 17.96875 43.75 15.234375 41.59375 
Q 12.5 39.453125 13.28125 37.109375 
Q 13.671875 36.328125 13.671875 35.546875 
Q 13.671875 34.765625 13.078125 33.59375 
Q 12.5 32.421875 10.15625 32.421875 
Q 8.59375 32.421875 7.609375 33.390625 
Q 6.640625 34.375 6.640625 36.328125 
Q 6.640625 39.84375 11.71875 42.96875 
Q 16.796875 46.09375 24.21875 46.09375 
Q 32.03125 46.09375 35.9375 43.15625 
Q 39.84375 40.234375 39.84375 34.765625 
L 39.84375 8.984375 
Q 39.84375 5.859375 40.421875 5.265625 
Q 41.015625 4.6875 42.578125 4.6875 
Q 44.53125 4.6875 45.3125 6.4375 
Q 46.09375 8.203125 46.09375 11.328125 
L 48.046875 11.328125 
Q 48.046875 5.859375 46.09375 3.703125 
Q 44.140625 1.5625 41.015625 1.5625 
Q 38.28125 1.5625 36.71875 2.734375 
Q 35.15625 3.90625 34.375 6.640625 
Q 30.46875 3.90625 27.140625 2.53125 
Q 23.828125 1.171875 19.140625 1.171875 
z
M 10.9375 13.28125 
Q 10.9375 9.765625 13.078125 6.828125 
Q 15.234375 3.90625 19.921875 3.90625 
Q 23.4375 3.90625 26.953125 5.265625 
Q 30.46875 6.640625 34.375 9.375 
L 34.375 27.734375 
Q 21.09375 26.171875 16.015625 22.453125 
Q 10.9375 18.75 10.9375 13.28125 
z
" id="SimSun-97"/>
      <path d="M 35.9375 36.71875 
Q 33.984375 39.84375 30.859375 41.203125 
Q 27.734375 42.578125 24.609375 42.578125 
Q 18.75 42.578125 15.421875 37.109375 
Q 12.109375 31.640625 12.109375 22.65625 
Q 12.109375 13.28125 15.234375 8.78125 
Q 18.359375 4.296875 24.21875 4.296875 
Q 28.515625 4.296875 31.4375 7.03125 
Q 34.375 9.765625 35.9375 15.234375 
z
M 23.046875 1.171875 
Q 16.015625 1.171875 10.9375 6.828125 
Q 5.859375 12.5 5.859375 23.4375 
Q 5.859375 33.59375 11.328125 39.640625 
Q 16.796875 45.703125 24.21875 45.703125 
Q 27.34375 45.703125 30.65625 44.328125 
Q 33.984375 42.96875 35.9375 40.234375 
L 35.9375 61.328125 
Q 35.9375 63.671875 35.15625 64.84375 
Q 34.375 66.015625 32.421875 66.015625 
L 29.296875 66.015625 
L 29.296875 68.359375 
L 33.59375 68.359375 
Q 35.546875 68.359375 37.5 69.140625 
Q 39.453125 69.921875 41.40625 71.484375 
L 41.40625 9.765625 
Q 41.40625 7.8125 42.1875 7.03125 
Q 42.96875 6.25 44.53125 6.25 
L 47.265625 6.25 
L 47.265625 3.90625 
L 44.921875 3.90625 
Q 43.359375 3.90625 41.203125 3.3125 
Q 39.0625 2.734375 36.71875 1.5625 
L 35.9375 1.5625 
L 35.9375 8.984375 
Q 33.984375 5.46875 30.65625 3.3125 
Q 27.34375 1.171875 23.046875 1.171875 
z
" id="SimSun-100"/>
      <path d="M 37.5 25.78125 
Q 37.890625 34.375 34.5625 38.859375 
Q 31.25 43.359375 25.78125 43.359375 
Q 19.921875 43.359375 16.203125 38.671875 
Q 12.5 33.984375 12.5 25.78125 
z
M 12.5 23.4375 
Q 12.5 12.890625 16.59375 8.390625 
Q 20.703125 3.90625 27.34375 3.90625 
Q 32.421875 3.90625 35.9375 6.828125 
Q 39.453125 9.765625 41.015625 14.0625 
L 42.96875 13.28125 
Q 41.796875 8.984375 37.6875 4.875 
Q 33.59375 0.78125 26.5625 0.78125 
Q 17.578125 0.78125 11.90625 6.640625 
Q 6.25 12.5 6.25 23.4375 
Q 6.25 33.203125 11.90625 39.640625 
Q 17.578125 46.09375 25.78125 46.09375 
Q 33.203125 46.09375 38.671875 41.015625 
Q 44.140625 35.9375 44.140625 23.4375 
z
" id="SimSun-101"/>
      <path d="M 0 -13.671875 
L 0 -11.328125 
L 49.609375 -11.328125 
L 49.609375 -13.671875 
z
" id="SimSun-95"/>
      <path d="M 22.265625 39.453125 
Q 22.265625 41.015625 21.484375 41.984375 
Q 20.703125 42.96875 18.75 42.96875 
L 10.546875 42.96875 
L 10.546875 45.3125 
L 14.453125 45.3125 
Q 17.96875 45.3125 21.09375 45.890625 
Q 24.21875 46.484375 26.953125 48.046875 
L 27.734375 48.046875 
L 27.734375 7.03125 
Q 27.734375 5.46875 28.703125 4.6875 
Q 29.6875 3.90625 31.25 3.90625 
L 39.453125 3.90625 
L 39.453125 1.5625 
L 10.546875 1.5625 
L 10.546875 3.90625 
L 18.75 3.90625 
Q 20.703125 3.90625 21.484375 4.6875 
Q 22.265625 5.46875 22.265625 7.03125 
z
M 26.953125 47.265625 
z
M 25.390625 69.140625 
Q 27.34375 69.140625 28.90625 67.765625 
Q 30.46875 66.40625 30.46875 64.453125 
Q 30.46875 62.5 28.90625 60.9375 
Q 27.34375 59.375 25.390625 59.375 
Q 23.4375 59.375 21.875 60.9375 
Q 20.3125 62.5 20.3125 64.453125 
Q 20.3125 66.40625 21.875 67.765625 
Q 23.4375 69.140625 25.390625 69.140625 
z
" id="SimSun-105"/>
      <path d="M 3.125 1.5625 
L 3.125 3.90625 
L 5.078125 3.90625 
Q 7.03125 3.90625 7.8125 4.6875 
Q 8.59375 5.46875 8.59375 7.03125 
L 8.59375 40.625 
Q 8.59375 41.796875 8.203125 42.375 
Q 7.8125 42.96875 6.640625 42.96875 
L 3.515625 42.96875 
L 3.515625 45.3125 
L 6.25 45.3125 
Q 8.203125 45.3125 9.953125 45.703125 
Q 11.71875 46.09375 13.28125 47.265625 
L 14.0625 47.265625 
L 14.0625 38.28125 
Q 17.578125 42.1875 21.09375 44.140625 
Q 24.609375 46.09375 28.515625 46.09375 
Q 35.15625 46.09375 38.28125 42.578125 
Q 41.40625 39.0625 41.40625 32.03125 
L 41.40625 7.03125 
Q 41.40625 5.46875 42.375 4.6875 
Q 43.359375 3.90625 44.921875 3.90625 
L 46.875 3.90625 
L 46.875 1.5625 
L 30.46875 1.5625 
L 30.46875 3.90625 
L 32.421875 3.90625 
Q 34.375 3.90625 35.15625 4.6875 
Q 35.9375 5.46875 35.9375 7.03125 
L 35.9375 33.203125 
Q 35.9375 37.890625 33.984375 40.421875 
Q 32.03125 42.96875 28.125 42.96875 
Q 24.609375 42.96875 20.890625 40.625 
Q 17.1875 38.28125 14.0625 33.984375 
L 14.0625 7.03125 
Q 14.0625 5.46875 15.03125 4.6875 
Q 16.015625 3.90625 17.578125 3.90625 
L 19.53125 3.90625 
L 19.53125 1.5625 
z
" id="SimSun-110"/>
      <path d="M 23.4375 14.0625 
Q 23.4375 8.59375 25.390625 6.640625 
Q 27.34375 4.6875 31.25 4.6875 
Q 35.15625 4.6875 37.5 7.21875 
Q 39.84375 9.765625 40.625 14.453125 
L 42.578125 13.671875 
Q 41.796875 8.203125 38.46875 4.6875 
Q 35.15625 1.171875 29.6875 1.171875 
Q 23.828125 1.171875 20.890625 4.6875 
Q 17.96875 8.203125 17.96875 15.625 
L 17.96875 42.96875 
L 6.25 42.96875 
L 6.25 45.3125 
L 9.375 45.3125 
Q 14.0625 45.3125 16.984375 48.234375 
Q 19.921875 51.171875 20.703125 57.421875 
L 21.09375 60.546875 
L 23.4375 60.546875 
L 23.4375 45.3125 
L 39.0625 45.3125 
L 39.0625 42.96875 
L 23.4375 42.96875 
z
" id="SimSun-116"/>
      <path d="M 25.390625 1.171875 
L 23.046875 1.171875 
L 9.765625 39.453125 
Q 9.375 41.015625 8.203125 41.984375 
Q 7.03125 42.96875 5.46875 42.96875 
L 3.515625 42.96875 
L 3.515625 45.3125 
L 20.3125 45.3125 
L 20.3125 42.96875 
L 18.75 42.96875 
Q 16.40625 42.96875 16.015625 42.1875 
Q 15.625 41.40625 15.625 40.625 
Q 15.625 39.0625 16.015625 37.890625 
L 25.390625 10.546875 
L 26.171875 10.546875 
L 35.546875 37.5 
Q 36.328125 39.453125 36.328125 40.234375 
Q 36.328125 40.625 35.546875 41.796875 
Q 34.765625 42.96875 32.421875 42.96875 
L 31.640625 42.96875 
L 31.640625 45.3125 
L 45.703125 45.3125 
L 45.703125 42.96875 
L 44.921875 42.96875 
Q 42.578125 42.96875 41.203125 41.59375 
Q 39.84375 40.234375 38.671875 37.5 
z
M 40.625 42.96875 
z
M 37.5 42.96875 
z
M 14.453125 42.96875 
z
M 8.59375 42.96875 
z
" id="SimSun-118"/>
      <path d="M 14.453125 68.359375 
Q 17.96875 68.359375 21.09375 69.140625 
Q 24.21875 69.921875 26.953125 71.484375 
L 27.734375 71.484375 
L 27.734375 7.03125 
Q 27.734375 5.46875 28.703125 4.6875 
Q 29.6875 3.90625 31.25 3.90625 
L 40.234375 3.90625 
L 40.234375 1.5625 
L 9.765625 1.5625 
L 9.765625 3.90625 
L 18.75 3.90625 
Q 20.703125 3.90625 21.484375 4.6875 
Q 22.265625 5.46875 22.265625 7.03125 
L 22.265625 62.890625 
Q 22.265625 64.453125 21.484375 65.234375 
Q 20.703125 66.015625 18.75 66.015625 
L 10.15625 66.015625 
L 10.15625 68.359375 
z
" id="SimSun-108"/>
     </defs>
     <g transform="translate(302.117647 536.85625)scale(0.12 -0.12)">
      <use xlink:href="#SimSun-103"/>
      <use x="50" xlink:href="#SimSun-114"/>
      <use x="100" xlink:href="#SimSun-97"/>
      <use x="150" xlink:href="#SimSun-100"/>
      <use x="200" xlink:href="#SimSun-101"/>
      <use x="250" xlink:href="#SimSun-95"/>
      <use x="300" xlink:href="#SimSun-105"/>
      <use x="350" xlink:href="#SimSun-110"/>
      <use x="400" xlink:href="#SimSun-116"/>
      <use x="450" xlink:href="#SimSun-101"/>
      <use x="500" xlink:href="#SimSun-114"/>
      <use x="550" xlink:href="#SimSun-118"/>
      <use x="600" xlink:href="#SimSun-97"/>
      <use x="650" xlink:href="#SimSun-108"/>
     </g>
    </g>
   </g>
   <g id="matplotlib.axis_2">
    <g id="ytick_1">
     <g id="line2d_8">
      <defs>
       <path d="M 0 0 
L -3.5 0 
" id="m6f0575d904" style="stroke:#000000;stroke-width:0.8;"/>
      </defs>
      <g>
       <use style="stroke:#000000;stroke-width:0.8;" x="180" xlink:href="#m6f0575d904" y="507.6"/>
      </g>
     </g>
     <g id="text_9">
      <!-- 0.0 -->
      <g transform="translate(157.096875 511.399219)scale(0.1 -0.1)">
       <use xlink:href="#DejaVuSans-48"/>
       <use x="63.623047" xlink:href="#DejaVuSans-46"/>
       <use x="95.410156" xlink:href="#DejaVuSans-48"/>
      </g>
     </g>
    </g>
    <g id="ytick_2">
     <g id="line2d_9">
      <g>
       <use style="stroke:#000000;stroke-width:0.8;" x="180" xlink:href="#m6f0575d904" y="456.171429"/>
      </g>
     </g>
     <g id="text_10">
      <!-- 0.1 -->
      <g transform="translate(157.096875 459.970647)scale(0.1 -0.1)">
       <use xlink:href="#DejaVuSans-48"/>
       <use x="63.623047" xlink:href="#DejaVuSans-46"/>
       <use x="95.410156" xlink:href="#DejaVuSans-49"/>
      </g>
     </g>
    </g>
    <g id="ytick_3">
     <g id="line2d_10">
      <g>
       <use style="stroke:#000000;stroke-width:0.8;" x="180" xlink:href="#m6f0575d904" y="404.742857"/>
      </g>
     </g>
     <g id="text_11">
      <!-- 0.2 -->
      <g transform="translate(157.096875 408.542076)scale(0.1 -0.1)">
       <use xlink:href="#DejaVuSans-48"/>
       <use x="63.623047" xlink:href="#DejaVuSans-46"/>
       <use x="95.410156" xlink:href="#DejaVuSans-50"/>
      </g>
     </g>
    </g>
    <g id="ytick_4">
     <g id="line2d_11">
      <g>
       <use style="stroke:#000000;stroke-width:0.8;" x="180" xlink:href="#m6f0575d904" y="353.314286"/>
      </g>
     </g>
     <g id="text_12">
      <!-- 0.3 -->
      <g transform="translate(157.096875 357.113504)scale(0.1 -0.1)">
       <use xlink:href="#DejaVuSans-48"/>
       <use x="63.623047" xlink:href="#DejaVuSans-46"/>
       <use x="95.410156" xlink:href="#DejaVuSans-51"/>
      </g>
     </g>
    </g>
    <g id="ytick_5">
     <g id="line2d_12">
      <g>
       <use style="stroke:#000000;stroke-width:0.8;" x="180" xlink:href="#m6f0575d904" y="301.885714"/>
      </g>
     </g>
     <g id="text_13">
      <!-- 0.4 -->
      <g transform="translate(157.096875 305.684933)scale(0.1 -0.1)">
       <use xlink:href="#DejaVuSans-48"/>
       <use x="63.623047" xlink:href="#DejaVuSans-46"/>
       <use x="95.410156" xlink:href="#DejaVuSans-52"/>
      </g>
     </g>
    </g>
    <g id="ytick_6">
     <g id="line2d_13">
      <g>
       <use style="stroke:#000000;stroke-width:0.8;" x="180" xlink:href="#m6f0575d904" y="250.457143"/>
      </g>
     </g>
     <g id="text_14">
      <!-- 0.5 -->
      <g transform="translate(157.096875 254.256362)scale(0.1 -0.1)">
       <use xlink:href="#DejaVuSans-48"/>
       <use x="63.623047" xlink:href="#DejaVuSans-46"/>
       <use x="95.410156" xlink:href="#DejaVuSans-53"/>
      </g>
     </g>
    </g>
    <g id="ytick_7">
     <g id="line2d_14">
      <g>
       <use style="stroke:#000000;stroke-width:0.8;" x="180" xlink:href="#m6f0575d904" y="199.028571"/>
      </g>
     </g>
     <g id="text_15">
      <!-- 0.6 -->
      <defs>
       <path d="M 33.015625 40.375 
Q 26.375 40.375 22.484375 35.828125 
Q 18.609375 31.296875 18.609375 23.390625 
Q 18.609375 15.53125 22.484375 10.953125 
Q 26.375 6.390625 33.015625 6.390625 
Q 39.65625 6.390625 43.53125 10.953125 
Q 47.40625 15.53125 47.40625 23.390625 
Q 47.40625 31.296875 43.53125 35.828125 
Q 39.65625 40.375 33.015625 40.375 
z
M 52.59375 71.296875 
L 52.59375 62.3125 
Q 48.875 64.0625 45.09375 64.984375 
Q 41.3125 65.921875 37.59375 65.921875 
Q 27.828125 65.921875 22.671875 59.328125 
Q 17.53125 52.734375 16.796875 39.40625 
Q 19.671875 43.65625 24.015625 45.921875 
Q 28.375 48.1875 33.59375 48.1875 
Q 44.578125 48.1875 50.953125 41.515625 
Q 57.328125 34.859375 57.328125 23.390625 
Q 57.328125 12.15625 50.6875 5.359375 
Q 44.046875 -1.421875 33.015625 -1.421875 
Q 20.359375 -1.421875 13.671875 8.265625 
Q 6.984375 17.96875 6.984375 36.375 
Q 6.984375 53.65625 15.1875 63.9375 
Q 23.390625 74.21875 37.203125 74.21875 
Q 40.921875 74.21875 44.703125 73.484375 
Q 48.484375 72.75 52.59375 71.296875 
z
" id="DejaVuSans-54"/>
      </defs>
      <g transform="translate(157.096875 202.82779)scale(0.1 -0.1)">
       <use xlink:href="#DejaVuSans-48"/>
       <use x="63.623047" xlink:href="#DejaVuSans-46"/>
       <use x="95.410156" xlink:href="#DejaVuSans-54"/>
      </g>
     </g>
    </g>
    <g id="ytick_8">
     <g id="line2d_15">
      <g>
       <use style="stroke:#000000;stroke-width:0.8;" x="180" xlink:href="#m6f0575d904" y="147.6"/>
      </g>
     </g>
     <g id="text_16">
      <!-- 0.7 -->
      <defs>
       <path d="M 8.203125 72.90625 
L 55.078125 72.90625 
L 55.078125 68.703125 
L 28.609375 0 
L 18.3125 0 
L 43.21875 64.59375 
L 8.203125 64.59375 
z
" id="DejaVuSans-55"/>
      </defs>
      <g transform="translate(157.096875 151.399219)scale(0.1 -0.1)">
       <use xlink:href="#DejaVuSans-48"/>
       <use x="63.623047" xlink:href="#DejaVuSans-46"/>
       <use x="95.410156" xlink:href="#DejaVuSans-55"/>
      </g>
     </g>
    </g>
    <g id="text_17">
     <!-- frequency/interval -->
     <defs>
      <path d="M 17.578125 51.953125 
Q 17.578125 60.15625 22.65625 64.25 
Q 27.734375 68.359375 33.984375 68.359375 
Q 40.625 68.359375 43.9375 66.015625 
Q 47.265625 63.671875 47.265625 60.546875 
Q 47.265625 58.984375 46.484375 57.8125 
Q 45.703125 56.640625 43.359375 56.640625 
Q 41.796875 56.640625 40.8125 57.421875 
Q 39.84375 58.203125 39.84375 60.15625 
Q 39.84375 60.546875 40.234375 61.328125 
Q 40.234375 62.109375 40.234375 62.5 
Q 40.234375 64.0625 39.0625 65.03125 
Q 37.890625 66.015625 33.59375 66.015625 
Q 28.90625 66.015625 25.96875 63.078125 
Q 23.046875 60.15625 23.046875 53.125 
L 23.046875 45.3125 
L 39.453125 45.3125 
L 39.453125 42.96875 
L 23.046875 42.96875 
L 23.046875 7.03125 
Q 23.046875 5.46875 24.015625 4.6875 
Q 25 3.90625 26.5625 3.90625 
L 35.9375 3.90625 
L 35.9375 1.5625 
L 7.421875 1.5625 
L 7.421875 3.90625 
L 14.0625 3.90625 
Q 16.015625 3.90625 16.796875 4.6875 
Q 17.578125 5.46875 17.578125 7.03125 
L 17.578125 42.96875 
L 5.46875 42.96875 
L 5.46875 45.3125 
L 17.578125 45.3125 
z
" id="SimSun-102"/>
      <path d="M 35.546875 35.15625 
Q 33.984375 38.671875 31.25 40.8125 
Q 28.515625 42.96875 24.609375 42.96875 
Q 19.140625 42.96875 15.234375 38.28125 
Q 11.328125 33.59375 11.328125 22.265625 
Q 11.328125 12.5 14.640625 8.390625 
Q 17.96875 4.296875 23.046875 4.296875 
Q 27.34375 4.296875 30.65625 6.25 
Q 33.984375 8.203125 35.546875 12.890625 
z
M 41.015625 -7.03125 
Q 41.015625 -8.984375 41.984375 -9.765625 
Q 42.96875 -10.546875 44.53125 -10.546875 
L 46.875 -10.546875 
L 46.875 -12.890625 
L 28.90625 -12.890625 
L 28.90625 -10.546875 
L 32.03125 -10.546875 
Q 33.984375 -10.546875 34.765625 -9.765625 
Q 35.546875 -8.984375 35.546875 -7.03125 
L 35.546875 7.421875 
Q 33.203125 4.296875 29.875 2.734375 
Q 26.5625 1.171875 21.875 1.171875 
Q 15.234375 1.171875 10.15625 6.828125 
Q 5.078125 12.5 5.078125 23.4375 
Q 5.078125 33.984375 10.9375 39.84375 
Q 16.796875 45.703125 23.4375 45.703125 
Q 27.734375 45.703125 30.65625 44.140625 
Q 33.59375 42.578125 35.9375 40.234375 
L 39.453125 45.3125 
L 41.015625 45.3125 
z
" id="SimSun-113"/>
      <path d="M 22.65625 5.078125 
Q 27.34375 5.078125 30.65625 7.421875 
Q 33.984375 9.765625 35.546875 14.84375 
L 35.546875 39.453125 
Q 35.546875 41.015625 34.765625 41.984375 
Q 33.984375 42.96875 32.03125 42.96875 
L 29.6875 42.96875 
L 29.6875 45.3125 
L 32.03125 45.3125 
Q 34.375 45.3125 36.328125 45.703125 
Q 38.28125 46.09375 40.234375 47.65625 
L 41.015625 47.65625 
L 41.015625 9.375 
Q 41.015625 7.8125 41.984375 7.03125 
Q 42.96875 6.25 44.53125 6.25 
L 46.875 6.25 
L 46.875 3.90625 
L 44.53125 3.90625 
Q 42.578125 3.90625 40.625 3.3125 
Q 38.671875 2.734375 36.328125 1.5625 
L 35.546875 1.5625 
L 35.546875 9.765625 
Q 33.59375 5.46875 29.6875 3.3125 
Q 25.78125 1.171875 20.703125 1.171875 
Q 14.453125 1.171875 11.328125 4.6875 
Q 8.203125 8.203125 8.203125 16.015625 
L 8.203125 39.453125 
Q 8.203125 41.015625 7.421875 41.984375 
Q 6.640625 42.96875 4.6875 42.96875 
L 2.34375 42.96875 
L 2.34375 45.3125 
L 4.6875 45.3125 
Q 7.03125 45.3125 8.984375 45.703125 
Q 10.9375 46.09375 12.890625 47.65625 
L 13.671875 47.65625 
L 13.671875 15.234375 
Q 13.671875 9.765625 16.015625 7.421875 
Q 18.359375 5.078125 22.65625 5.078125 
z
" id="SimSun-117"/>
      <path d="M 33.59375 34.765625 
Q 33.59375 35.9375 33.984375 36.328125 
Q 33.984375 36.71875 34.375 37.890625 
Q 34.765625 39.453125 32.8125 41.59375 
Q 30.859375 43.75 26.171875 43.75 
Q 20.3125 43.75 16.203125 38.078125 
Q 12.109375 32.421875 12.109375 23.046875 
Q 12.109375 14.453125 15.625 9.171875 
Q 19.140625 3.90625 27.34375 3.90625 
Q 32.8125 3.90625 36.515625 7.421875 
Q 40.234375 10.9375 41.796875 15.625 
L 43.75 14.84375 
Q 42.1875 8.984375 37.890625 4.875 
Q 33.59375 0.78125 26.171875 0.78125 
Q 16.796875 0.78125 11.328125 6.640625 
Q 5.859375 12.5 5.859375 23.4375 
Q 5.859375 33.203125 11.71875 39.640625 
Q 17.578125 46.09375 26.953125 46.09375 
Q 33.59375 46.09375 37.296875 42.578125 
Q 41.015625 39.0625 41.015625 35.546875 
Q 41.015625 33.203125 40.03125 32.21875 
Q 39.0625 31.25 37.109375 31.25 
Q 35.546875 31.25 34.5625 32.21875 
Q 33.59375 33.203125 33.59375 34.765625 
z
" id="SimSun-99"/>
      <path d="M 25.78125 12.5 
L 26.5625 12.5 
L 35.15625 38.671875 
Q 35.9375 40.625 34.953125 41.796875 
Q 33.984375 42.96875 32.421875 42.96875 
L 30.078125 42.96875 
L 30.078125 45.3125 
L 46.484375 45.3125 
L 46.484375 42.96875 
L 44.140625 42.96875 
Q 42.578125 42.96875 41.015625 41.796875 
Q 39.453125 40.625 38.671875 38.671875 
L 25.390625 0 
Q 23.4375 -5.859375 20.5 -9.171875 
Q 17.578125 -12.5 12.890625 -12.5 
Q 10.15625 -12.5 8.59375 -11.515625 
Q 7.03125 -10.546875 7.03125 -8.59375 
Q 7.03125 -7.421875 8 -6.25 
Q 8.984375 -5.078125 10.9375 -5.078125 
Q 12.5 -5.078125 14.0625 -6.640625 
Q 15.625 -7.8125 16.40625 -7.8125 
Q 17.578125 -7.8125 18.359375 -7.421875 
Q 19.140625 -7.03125 19.53125 -5.859375 
Q 20.703125 -3.90625 21.875 -0.96875 
Q 23.046875 1.953125 23.828125 5.078125 
L 10.546875 39.453125 
Q 10.15625 41.015625 8.78125 41.984375 
Q 7.421875 42.96875 5.859375 42.96875 
L 4.296875 42.96875 
L 4.296875 45.3125 
L 20.703125 45.3125 
L 20.703125 42.96875 
L 19.140625 42.96875 
Q 17.578125 42.96875 16.796875 41.984375 
Q 16.015625 41.015625 16.40625 39.0625 
z
M 14.84375 42.96875 
z
M 9.375 42.96875 
z
M 40.234375 42.96875 
z
M 36.328125 42.96875 
z
" id="SimSun-121"/>
      <path d="M 6.25 -7.421875 
L 3.515625 -5.859375 
L 43.359375 77.734375 
L 46.09375 76.171875 
z
" id="SimSun-47"/>
     </defs>
     <g transform="translate(151.55 372.6)rotate(-90)scale(0.12 -0.12)">
      <use xlink:href="#SimSun-102"/>
      <use x="50" xlink:href="#SimSun-114"/>
      <use x="100" xlink:href="#SimSun-101"/>
      <use x="150" xlink:href="#SimSun-113"/>
      <use x="200" xlink:href="#SimSun-117"/>
      <use x="250" xlink:href="#SimSun-101"/>
      <use x="300" xlink:href="#SimSun-110"/>
      <use x="350" xlink:href="#SimSun-99"/>
      <use x="400" xlink:href="#SimSun-121"/>
      <use x="450" xlink:href="#SimSun-47"/>
      <use x="500" xlink:href="#SimSun-105"/>
      <use x="550" xlink:href="#SimSun-110"/>
      <use x="600" xlink:href="#SimSun-116"/>
      <use x="650" xlink:href="#SimSun-101"/>
      <use x="700" xlink:href="#SimSun-114"/>
      <use x="750" xlink:href="#SimSun-118"/>
      <use x="800" xlink:href="#SimSun-97"/>
      <use x="850" xlink:href="#SimSun-108"/>
     </g>
    </g>
   </g>
   <g id="patch_9">
    <path d="M 180 507.6 
L 180 129.6 
" style="fill:none;stroke:#000000;stroke-linecap:square;stroke-linejoin:miter;stroke-width:0.8;"/>
   </g>
   <g id="patch_10">
    <path d="M 508.235294 507.6 
L 508.235294 129.6 
" style="fill:none;stroke:#000000;stroke-linecap:square;stroke-linejoin:miter;stroke-width:0.8;"/>
   </g>
   <g id="patch_11">
    <path d="M 180 507.6 
L 508.235294 507.6 
" style="fill:none;stroke:#000000;stroke-linecap:square;stroke-linejoin:miter;stroke-width:0.8;"/>
   </g>
   <g id="patch_12">
    <path d="M 180 129.6 
L 508.235294 129.6 
" style="fill:none;stroke:#000000;stroke-linecap:square;stroke-linejoin:miter;stroke-width:0.8;"/>
   </g>
   <g id="text_18">
    <!-- thefirstgroup -->
    <defs>
     <path d="M 3.125 1.5625 
L 3.125 3.90625 
L 5.078125 3.90625 
Q 7.03125 3.90625 7.8125 4.6875 
Q 8.59375 5.46875 8.59375 7.03125 
L 8.59375 62.890625 
Q 8.59375 64.453125 7.8125 65.234375 
Q 7.03125 66.015625 5.078125 66.015625 
L 2.734375 66.015625 
L 2.734375 68.359375 
L 7.03125 68.359375 
Q 8.59375 68.359375 10.15625 69.140625 
Q 11.71875 69.921875 13.28125 71.484375 
L 14.0625 71.484375 
L 14.0625 38.28125 
Q 17.578125 42.578125 21.28125 44.328125 
Q 25 46.09375 29.296875 46.09375 
Q 35.15625 46.09375 38.28125 42.765625 
Q 41.40625 39.453125 41.40625 32.421875 
L 41.40625 7.03125 
Q 41.40625 5.46875 42.375 4.6875 
Q 43.359375 3.90625 44.921875 3.90625 
L 46.875 3.90625 
L 46.875 1.5625 
L 30.46875 1.5625 
L 30.46875 3.90625 
L 32.421875 3.90625 
Q 34.375 3.90625 35.15625 4.6875 
Q 35.9375 5.46875 35.9375 7.03125 
L 35.9375 31.640625 
Q 35.9375 38.28125 33.78125 40.421875 
Q 31.640625 42.578125 28.125 42.578125 
Q 25 42.578125 21.28125 40.625 
Q 17.578125 38.671875 14.0625 33.984375 
L 14.0625 7.03125 
Q 14.0625 5.46875 15.03125 4.6875 
Q 16.015625 3.90625 17.578125 3.90625 
L 19.53125 3.90625 
L 19.53125 1.5625 
z
" id="SimSun-104"/>
     <path d="M 9.765625 33.984375 
Q 9.765625 39.84375 14.25 42.96875 
Q 18.75 46.09375 25 46.09375 
Q 28.515625 46.09375 31.640625 45.3125 
Q 34.765625 44.140625 35.9375 44.140625 
Q 37.109375 44.140625 37.890625 44.53125 
Q 38.671875 44.921875 39.84375 46.09375 
L 41.40625 33.203125 
L 39.0625 32.8125 
Q 37.5 37.890625 33.78125 40.8125 
Q 30.078125 43.75 25.390625 43.75 
Q 20.3125 43.75 17.375 41.796875 
Q 14.453125 39.84375 14.453125 36.328125 
Q 14.453125 33.203125 15.8125 31.4375 
Q 17.1875 29.6875 20.703125 28.90625 
Q 23.4375 27.734375 27.734375 26.5625 
Q 31.640625 25 35.15625 23.4375 
Q 38.28125 21.875 40.421875 19.328125 
Q 42.578125 16.796875 42.578125 13.671875 
Q 42.578125 7.8125 38.46875 4.484375 
Q 34.375 1.171875 26.5625 1.171875 
Q 21.484375 1.171875 19.140625 2.34375 
Q 16.40625 3.125 14.84375 3.125 
Q 13.671875 3.125 12.296875 2.53125 
Q 10.9375 1.953125 9.375 1.171875 
L 8.203125 15.625 
L 10.546875 16.015625 
Q 11.71875 9.765625 15.625 6.640625 
Q 19.53125 3.515625 26.5625 3.515625 
Q 32.03125 3.515625 34.953125 5.46875 
Q 37.890625 7.421875 37.890625 11.328125 
Q 37.890625 14.0625 36.328125 15.8125 
Q 34.765625 17.578125 33.203125 18.359375 
Q 29.296875 19.921875 24.609375 21.875 
Q 19.921875 23.4375 16.40625 25 
Q 12.890625 26.5625 11.328125 28.90625 
Q 9.765625 31.25 9.765625 33.984375 
z
" id="SimSun-115"/>
     <path d="M 45.3125 23.4375 
Q 45.3125 13.671875 39.453125 7.21875 
Q 33.59375 0.78125 25 0.78125 
Q 16.015625 0.78125 10.34375 7.421875 
Q 4.6875 14.0625 4.6875 23.4375 
Q 4.6875 32.03125 10.34375 39.0625 
Q 16.015625 46.09375 25 46.09375 
Q 34.375 46.09375 39.84375 39.0625 
Q 45.3125 32.03125 45.3125 23.4375 
z
M 10.9375 23.046875 
Q 10.9375 12.890625 15.03125 8 
Q 19.140625 3.125 25 3.125 
Q 31.640625 3.125 35.34375 8.390625 
Q 39.0625 13.671875 39.0625 23.046875 
Q 39.0625 33.203125 34.953125 38.46875 
Q 30.859375 43.75 25 43.75 
Q 19.53125 43.75 15.234375 38.46875 
Q 10.9375 33.203125 10.9375 23.046875 
z
" id="SimSun-111"/>
     <path d="M 17.96875 -10.546875 
L 20.703125 -10.546875 
L 20.703125 -12.890625 
L 2.734375 -12.890625 
L 2.734375 -10.546875 
L 5.078125 -10.546875 
Q 7.03125 -10.546875 7.8125 -9.765625 
Q 8.59375 -8.984375 8.59375 -7.03125 
L 8.59375 39.0625 
Q 8.59375 40.625 7.8125 41.59375 
Q 7.03125 42.578125 5.078125 42.578125 
L 2.734375 42.578125 
L 2.734375 44.921875 
L 6.25 44.921875 
Q 8.203125 44.921875 9.953125 45.3125 
Q 11.71875 45.703125 13.28125 46.875 
L 14.0625 46.875 
L 14.0625 37.890625 
Q 16.796875 41.796875 20.109375 43.75 
Q 23.4375 45.703125 27.34375 45.703125 
Q 35.15625 45.703125 40.234375 40.421875 
Q 45.3125 35.15625 45.3125 23.828125 
Q 45.3125 12.890625 39.84375 7.03125 
Q 34.375 1.171875 26.953125 1.171875 
Q 22.65625 1.171875 19.71875 2.53125 
Q 16.796875 3.90625 14.0625 6.640625 
L 14.0625 -7.03125 
Q 14.0625 -8.984375 15.234375 -9.765625 
Q 16.40625 -10.546875 17.96875 -10.546875 
z
M 14.0625 11.71875 
Q 16.015625 7.8125 18.9375 5.859375 
Q 21.875 3.90625 25.78125 3.90625 
Q 31.25 3.90625 35.15625 8.78125 
Q 39.0625 13.671875 39.0625 23.828125 
Q 39.0625 33.203125 36.125 37.890625 
Q 33.203125 42.578125 27.34375 42.578125 
Q 23.828125 42.578125 20.3125 40.421875 
Q 16.796875 38.28125 14.0625 33.59375 
z
" id="SimSun-112"/>
    </defs>
    <g transform="translate(305.117647 123.6)scale(0.12 -0.12)">
     <use xlink:href="#SimSun-116"/>
     <use x="50" xlink:href="#SimSun-104"/>
     <use x="100" xlink:href="#SimSun-101"/>
     <use x="150" xlink:href="#SimSun-102"/>
     <use x="200" xlink:href="#SimSun-105"/>
     <use x="250" xlink:href="#SimSun-114"/>
     <use x="300" xlink:href="#SimSun-115"/>
     <use x="350" xlink:href="#SimSun-116"/>
     <use x="400" xlink:href="#SimSun-103"/>
     <use x="450" xlink:href="#SimSun-114"/>
     <use x="500" xlink:href="#SimSun-111"/>
     <use x="550" xlink:href="#SimSun-117"/>
     <use x="600" xlink:href="#SimSun-112"/>
    </g>
   </g>
  </g>
  <g id="axes_2">
   <g id="patch_13">
    <path d="M 573.882353 507.6 
L 902.117647 507.6 
L 902.117647 129.6 
L 573.882353 129.6 
z
" style="fill:#ffffff;"/>
   </g>
   <g id="patch_14">
    <path clip-path="url(#pa52c6fff8e)" d="M 588.802139 507.6 
L 638.534759 507.6 
L 638.534759 507.6 
L 588.802139 507.6 
z
" style="fill:#1f77b4;"/>
   </g>
   <g id="patch_15">
    <path clip-path="url(#pa52c6fff8e)" d="M 638.534759 507.6 
L 688.26738 507.6 
L 688.26738 447.6 
L 638.534759 447.6 
z
" style="fill:#1f77b4;"/>
   </g>
   <g id="patch_16">
    <path clip-path="url(#pa52c6fff8e)" d="M 688.26738 507.6 
L 738 507.6 
L 738 267.6 
L 688.26738 267.6 
z
" style="fill:#1f77b4;"/>
   </g>
   <g id="patch_17">
    <path clip-path="url(#pa52c6fff8e)" d="M 738 507.6 
L 787.73262 507.6 
L 787.73262 207.6 
L 738 207.6 
z
" style="fill:#1f77b4;"/>
   </g>
   <g id="patch_18">
    <path clip-path="url(#pa52c6fff8e)" d="M 787.73262 507.6 
L 837.465241 507.6 
L 837.465241 147.6 
L 787.73262 147.6 
z
" style="fill:#1f77b4;"/>
   </g>
   <g id="patch_19">
    <path clip-path="url(#pa52c6fff8e)" d="M 837.465241 507.6 
L 887.197861 507.6 
L 887.197861 267.6 
L 837.465241 267.6 
z
" style="fill:#1f77b4;"/>
   </g>
   <g id="matplotlib.axis_3">
    <g id="xtick_8">
     <g id="line2d_16">
      <g>
       <use style="stroke:#000000;stroke-width:0.8;" x="588.802139" xlink:href="#m4ba92b2e3e" y="507.6"/>
      </g>
     </g>
     <g id="text_19">
      <!-- 1.0 -->
      <g transform="translate(580.850577 522.198438)scale(0.1 -0.1)">
       <use xlink:href="#DejaVuSans-49"/>
       <use x="63.623047" xlink:href="#DejaVuSans-46"/>
       <use x="95.410156" xlink:href="#DejaVuSans-48"/>
      </g>
     </g>
    </g>
    <g id="xtick_9">
     <g id="line2d_17">
      <g>
       <use style="stroke:#000000;stroke-width:0.8;" x="638.534759" xlink:href="#m4ba92b2e3e" y="507.6"/>
      </g>
     </g>
     <g id="text_20">
      <!-- 1.5 -->
      <g transform="translate(630.583197 522.198438)scale(0.1 -0.1)">
       <use xlink:href="#DejaVuSans-49"/>
       <use x="63.623047" xlink:href="#DejaVuSans-46"/>
       <use x="95.410156" xlink:href="#DejaVuSans-53"/>
      </g>
     </g>
    </g>
    <g id="xtick_10">
     <g id="line2d_18">
      <g>
       <use style="stroke:#000000;stroke-width:0.8;" x="688.26738" xlink:href="#m4ba92b2e3e" y="507.6"/>
      </g>
     </g>
     <g id="text_21">
      <!-- 2.0 -->
      <g transform="translate(680.315817 522.198438)scale(0.1 -0.1)">
       <use xlink:href="#DejaVuSans-50"/>
       <use x="63.623047" xlink:href="#DejaVuSans-46"/>
       <use x="95.410156" xlink:href="#DejaVuSans-48"/>
      </g>
     </g>
    </g>
    <g id="xtick_11">
     <g id="line2d_19">
      <g>
       <use style="stroke:#000000;stroke-width:0.8;" x="738" xlink:href="#m4ba92b2e3e" y="507.6"/>
      </g>
     </g>
     <g id="text_22">
      <!-- 2.5 -->
      <g transform="translate(730.048437 522.198438)scale(0.1 -0.1)">
       <use xlink:href="#DejaVuSans-50"/>
       <use x="63.623047" xlink:href="#DejaVuSans-46"/>
       <use x="95.410156" xlink:href="#DejaVuSans-53"/>
      </g>
     </g>
    </g>
    <g id="xtick_12">
     <g id="line2d_20">
      <g>
       <use style="stroke:#000000;stroke-width:0.8;" x="787.73262" xlink:href="#m4ba92b2e3e" y="507.6"/>
      </g>
     </g>
     <g id="text_23">
      <!-- 3.0 -->
      <g transform="translate(779.781058 522.198438)scale(0.1 -0.1)">
       <use xlink:href="#DejaVuSans-51"/>
       <use x="63.623047" xlink:href="#DejaVuSans-46"/>
       <use x="95.410156" xlink:href="#DejaVuSans-48"/>
      </g>
     </g>
    </g>
    <g id="xtick_13">
     <g id="line2d_21">
      <g>
       <use style="stroke:#000000;stroke-width:0.8;" x="837.465241" xlink:href="#m4ba92b2e3e" y="507.6"/>
      </g>
     </g>
     <g id="text_24">
      <!-- 3.5 -->
      <g transform="translate(829.513678 522.198438)scale(0.1 -0.1)">
       <use xlink:href="#DejaVuSans-51"/>
       <use x="63.623047" xlink:href="#DejaVuSans-46"/>
       <use x="95.410156" xlink:href="#DejaVuSans-53"/>
      </g>
     </g>
    </g>
    <g id="xtick_14">
     <g id="line2d_22">
      <g>
       <use style="stroke:#000000;stroke-width:0.8;" x="887.197861" xlink:href="#m4ba92b2e3e" y="507.6"/>
      </g>
     </g>
     <g id="text_25">
      <!-- 4.0 -->
      <g transform="translate(879.246298 522.198438)scale(0.1 -0.1)">
       <use xlink:href="#DejaVuSans-52"/>
       <use x="63.623047" xlink:href="#DejaVuSans-46"/>
       <use x="95.410156" xlink:href="#DejaVuSans-48"/>
      </g>
     </g>
    </g>
    <g id="text_26">
     <!-- grade_interval -->
     <g transform="translate(696 536.85625)scale(0.12 -0.12)">
      <use xlink:href="#SimSun-103"/>
      <use x="50" xlink:href="#SimSun-114"/>
      <use x="100" xlink:href="#SimSun-97"/>
      <use x="150" xlink:href="#SimSun-100"/>
      <use x="200" xlink:href="#SimSun-101"/>
      <use x="250" xlink:href="#SimSun-95"/>
      <use x="300" xlink:href="#SimSun-105"/>
      <use x="350" xlink:href="#SimSun-110"/>
      <use x="400" xlink:href="#SimSun-116"/>
      <use x="450" xlink:href="#SimSun-101"/>
      <use x="500" xlink:href="#SimSun-114"/>
      <use x="550" xlink:href="#SimSun-118"/>
      <use x="600" xlink:href="#SimSun-97"/>
      <use x="650" xlink:href="#SimSun-108"/>
     </g>
    </g>
   </g>
   <g id="matplotlib.axis_4">
    <g id="ytick_9">
     <g id="line2d_23">
      <g>
       <use style="stroke:#000000;stroke-width:0.8;" x="573.882353" xlink:href="#m6f0575d904" y="507.6"/>
      </g>
     </g>
     <g id="text_27">
      <!-- 0.0 -->
      <g transform="translate(550.979228 511.399219)scale(0.1 -0.1)">
       <use xlink:href="#DejaVuSans-48"/>
       <use x="63.623047" xlink:href="#DejaVuSans-46"/>
       <use x="95.410156" xlink:href="#DejaVuSans-48"/>
      </g>
     </g>
    </g>
    <g id="ytick_10">
     <g id="line2d_24">
      <g>
       <use style="stroke:#000000;stroke-width:0.8;" x="573.882353" xlink:href="#m6f0575d904" y="447.6"/>
      </g>
     </g>
     <g id="text_28">
      <!-- 0.1 -->
      <g transform="translate(550.979228 451.399219)scale(0.1 -0.1)">
       <use xlink:href="#DejaVuSans-48"/>
       <use x="63.623047" xlink:href="#DejaVuSans-46"/>
       <use x="95.410156" xlink:href="#DejaVuSans-49"/>
      </g>
     </g>
    </g>
    <g id="ytick_11">
     <g id="line2d_25">
      <g>
       <use style="stroke:#000000;stroke-width:0.8;" x="573.882353" xlink:href="#m6f0575d904" y="387.6"/>
      </g>
     </g>
     <g id="text_29">
      <!-- 0.2 -->
      <g transform="translate(550.979228 391.399219)scale(0.1 -0.1)">
       <use xlink:href="#DejaVuSans-48"/>
       <use x="63.623047" xlink:href="#DejaVuSans-46"/>
       <use x="95.410156" xlink:href="#DejaVuSans-50"/>
      </g>
     </g>
    </g>
    <g id="ytick_12">
     <g id="line2d_26">
      <g>
       <use style="stroke:#000000;stroke-width:0.8;" x="573.882353" xlink:href="#m6f0575d904" y="327.6"/>
      </g>
     </g>
     <g id="text_30">
      <!-- 0.3 -->
      <g transform="translate(550.979228 331.399219)scale(0.1 -0.1)">
       <use xlink:href="#DejaVuSans-48"/>
       <use x="63.623047" xlink:href="#DejaVuSans-46"/>
       <use x="95.410156" xlink:href="#DejaVuSans-51"/>
      </g>
     </g>
    </g>
    <g id="ytick_13">
     <g id="line2d_27">
      <g>
       <use style="stroke:#000000;stroke-width:0.8;" x="573.882353" xlink:href="#m6f0575d904" y="267.6"/>
      </g>
     </g>
     <g id="text_31">
      <!-- 0.4 -->
      <g transform="translate(550.979228 271.399219)scale(0.1 -0.1)">
       <use xlink:href="#DejaVuSans-48"/>
       <use x="63.623047" xlink:href="#DejaVuSans-46"/>
       <use x="95.410156" xlink:href="#DejaVuSans-52"/>
      </g>
     </g>
    </g>
    <g id="ytick_14">
     <g id="line2d_28">
      <g>
       <use style="stroke:#000000;stroke-width:0.8;" x="573.882353" xlink:href="#m6f0575d904" y="207.6"/>
      </g>
     </g>
     <g id="text_32">
      <!-- 0.5 -->
      <g transform="translate(550.979228 211.399219)scale(0.1 -0.1)">
       <use xlink:href="#DejaVuSans-48"/>
       <use x="63.623047" xlink:href="#DejaVuSans-46"/>
       <use x="95.410156" xlink:href="#DejaVuSans-53"/>
      </g>
     </g>
    </g>
    <g id="ytick_15">
     <g id="line2d_29">
      <g>
       <use style="stroke:#000000;stroke-width:0.8;" x="573.882353" xlink:href="#m6f0575d904" y="147.6"/>
      </g>
     </g>
     <g id="text_33">
      <!-- 0.6 -->
      <g transform="translate(550.979228 151.399219)scale(0.1 -0.1)">
       <use xlink:href="#DejaVuSans-48"/>
       <use x="63.623047" xlink:href="#DejaVuSans-46"/>
       <use x="95.410156" xlink:href="#DejaVuSans-54"/>
      </g>
     </g>
    </g>
    <g id="text_34">
     <!-- frequency/interval -->
     <g transform="translate(545.432353 372.6)rotate(-90)scale(0.12 -0.12)">
      <use xlink:href="#SimSun-102"/>
      <use x="50" xlink:href="#SimSun-114"/>
      <use x="100" xlink:href="#SimSun-101"/>
      <use x="150" xlink:href="#SimSun-113"/>
      <use x="200" xlink:href="#SimSun-117"/>
      <use x="250" xlink:href="#SimSun-101"/>
      <use x="300" xlink:href="#SimSun-110"/>
      <use x="350" xlink:href="#SimSun-99"/>
      <use x="400" xlink:href="#SimSun-121"/>
      <use x="450" xlink:href="#SimSun-47"/>
      <use x="500" xlink:href="#SimSun-105"/>
      <use x="550" xlink:href="#SimSun-110"/>
      <use x="600" xlink:href="#SimSun-116"/>
      <use x="650" xlink:href="#SimSun-101"/>
      <use x="700" xlink:href="#SimSun-114"/>
      <use x="750" xlink:href="#SimSun-118"/>
      <use x="800" xlink:href="#SimSun-97"/>
      <use x="850" xlink:href="#SimSun-108"/>
     </g>
    </g>
   </g>
   <g id="patch_20">
    <path d="M 573.882353 507.6 
L 573.882353 129.6 
" style="fill:none;stroke:#000000;stroke-linecap:square;stroke-linejoin:miter;stroke-width:0.8;"/>
   </g>
   <g id="patch_21">
    <path d="M 902.117647 507.6 
L 902.117647 129.6 
" style="fill:none;stroke:#000000;stroke-linecap:square;stroke-linejoin:miter;stroke-width:0.8;"/>
   </g>
   <g id="patch_22">
    <path d="M 573.882353 507.6 
L 902.117647 507.6 
" style="fill:none;stroke:#000000;stroke-linecap:square;stroke-linejoin:miter;stroke-width:0.8;"/>
   </g>
   <g id="patch_23">
    <path d="M 573.882353 129.6 
L 902.117647 129.6 
" style="fill:none;stroke:#000000;stroke-linecap:square;stroke-linejoin:miter;stroke-width:0.8;"/>
   </g>
   <g id="text_35">
    <!-- thesecondgroup -->
    <g transform="translate(696 123.6)scale(0.12 -0.12)">
     <use xlink:href="#SimSun-116"/>
     <use x="50" xlink:href="#SimSun-104"/>
     <use x="100" xlink:href="#SimSun-101"/>
     <use x="150" xlink:href="#SimSun-115"/>
     <use x="200" xlink:href="#SimSun-101"/>
     <use x="250" xlink:href="#SimSun-99"/>
     <use x="300" xlink:href="#SimSun-111"/>
     <use x="350" xlink:href="#SimSun-110"/>
     <use x="400" xlink:href="#SimSun-100"/>
     <use x="450" xlink:href="#SimSun-103"/>
     <use x="500" xlink:href="#SimSun-114"/>
     <use x="550" xlink:href="#SimSun-111"/>
     <use x="600" xlink:href="#SimSun-117"/>
     <use x="650" xlink:href="#SimSun-112"/>
    </g>
   </g>
  </g>
  <g id="axes_3">
   <g id="patch_24">
    <path d="M 967.764706 507.6 
L 1296 507.6 
L 1296 129.6 
L 967.764706 129.6 
z
" style="fill:#ffffff;"/>
   </g>
   <g id="patch_25">
    <path clip-path="url(#p378ea5757e)" d="M 982.684492 507.6 
L 1032.417112 507.6 
L 1032.417112 507.6 
L 982.684492 507.6 
z
" style="fill:#1f77b4;"/>
   </g>
   <g id="patch_26">
    <path clip-path="url(#p378ea5757e)" d="M 1032.417112 507.6 
L 1082.149733 507.6 
L 1082.149733 456.171429 
L 1032.417112 456.171429 
z
" style="fill:#1f77b4;"/>
   </g>
   <g id="patch_27">
    <path clip-path="url(#p378ea5757e)" d="M 1082.149733 507.6 
L 1131.882353 507.6 
L 1131.882353 250.457143 
L 1082.149733 250.457143 
z
" style="fill:#1f77b4;"/>
   </g>
   <g id="patch_28">
    <path clip-path="url(#p378ea5757e)" d="M 1131.882353 507.6 
L 1181.614973 507.6 
L 1181.614973 301.885714 
L 1131.882353 301.885714 
z
" style="fill:#1f77b4;"/>
   </g>
   <g id="patch_29">
    <path clip-path="url(#p378ea5757e)" d="M 1181.614973 507.6 
L 1231.347594 507.6 
L 1231.347594 147.6 
L 1181.614973 147.6 
z
" style="fill:#1f77b4;"/>
   </g>
   <g id="patch_30">
    <path clip-path="url(#p378ea5757e)" d="M 1231.347594 507.6 
L 1281.080214 507.6 
L 1281.080214 353.314286 
L 1231.347594 353.314286 
z
" style="fill:#1f77b4;"/>
   </g>
   <g id="matplotlib.axis_5">
    <g id="xtick_15">
     <g id="line2d_30">
      <g>
       <use style="stroke:#000000;stroke-width:0.8;" x="982.684492" xlink:href="#m4ba92b2e3e" y="507.6"/>
      </g>
     </g>
     <g id="text_36">
      <!-- 1.0 -->
      <g transform="translate(974.732929 522.198438)scale(0.1 -0.1)">
       <use xlink:href="#DejaVuSans-49"/>
       <use x="63.623047" xlink:href="#DejaVuSans-46"/>
       <use x="95.410156" xlink:href="#DejaVuSans-48"/>
      </g>
     </g>
    </g>
    <g id="xtick_16">
     <g id="line2d_31">
      <g>
       <use style="stroke:#000000;stroke-width:0.8;" x="1032.417112" xlink:href="#m4ba92b2e3e" y="507.6"/>
      </g>
     </g>
     <g id="text_37">
      <!-- 1.5 -->
      <g transform="translate(1024.46555 522.198438)scale(0.1 -0.1)">
       <use xlink:href="#DejaVuSans-49"/>
       <use x="63.623047" xlink:href="#DejaVuSans-46"/>
       <use x="95.410156" xlink:href="#DejaVuSans-53"/>
      </g>
     </g>
    </g>
    <g id="xtick_17">
     <g id="line2d_32">
      <g>
       <use style="stroke:#000000;stroke-width:0.8;" x="1082.149733" xlink:href="#m4ba92b2e3e" y="507.6"/>
      </g>
     </g>
     <g id="text_38">
      <!-- 2.0 -->
      <g transform="translate(1074.19817 522.198438)scale(0.1 -0.1)">
       <use xlink:href="#DejaVuSans-50"/>
       <use x="63.623047" xlink:href="#DejaVuSans-46"/>
       <use x="95.410156" xlink:href="#DejaVuSans-48"/>
      </g>
     </g>
    </g>
    <g id="xtick_18">
     <g id="line2d_33">
      <g>
       <use style="stroke:#000000;stroke-width:0.8;" x="1131.882353" xlink:href="#m4ba92b2e3e" y="507.6"/>
      </g>
     </g>
     <g id="text_39">
      <!-- 2.5 -->
      <g transform="translate(1123.93079 522.198438)scale(0.1 -0.1)">
       <use xlink:href="#DejaVuSans-50"/>
       <use x="63.623047" xlink:href="#DejaVuSans-46"/>
       <use x="95.410156" xlink:href="#DejaVuSans-53"/>
      </g>
     </g>
    </g>
    <g id="xtick_19">
     <g id="line2d_34">
      <g>
       <use style="stroke:#000000;stroke-width:0.8;" x="1181.614973" xlink:href="#m4ba92b2e3e" y="507.6"/>
      </g>
     </g>
     <g id="text_40">
      <!-- 3.0 -->
      <g transform="translate(1173.663411 522.198438)scale(0.1 -0.1)">
       <use xlink:href="#DejaVuSans-51"/>
       <use x="63.623047" xlink:href="#DejaVuSans-46"/>
       <use x="95.410156" xlink:href="#DejaVuSans-48"/>
      </g>
     </g>
    </g>
    <g id="xtick_20">
     <g id="line2d_35">
      <g>
       <use style="stroke:#000000;stroke-width:0.8;" x="1231.347594" xlink:href="#m4ba92b2e3e" y="507.6"/>
      </g>
     </g>
     <g id="text_41">
      <!-- 3.5 -->
      <g transform="translate(1223.396031 522.198438)scale(0.1 -0.1)">
       <use xlink:href="#DejaVuSans-51"/>
       <use x="63.623047" xlink:href="#DejaVuSans-46"/>
       <use x="95.410156" xlink:href="#DejaVuSans-53"/>
      </g>
     </g>
    </g>
    <g id="xtick_21">
     <g id="line2d_36">
      <g>
       <use style="stroke:#000000;stroke-width:0.8;" x="1281.080214" xlink:href="#m4ba92b2e3e" y="507.6"/>
      </g>
     </g>
     <g id="text_42">
      <!-- 4.0 -->
      <g transform="translate(1273.128651 522.198438)scale(0.1 -0.1)">
       <use xlink:href="#DejaVuSans-52"/>
       <use x="63.623047" xlink:href="#DejaVuSans-46"/>
       <use x="95.410156" xlink:href="#DejaVuSans-48"/>
      </g>
     </g>
    </g>
    <g id="text_43">
     <!-- grade_interval -->
     <g transform="translate(1089.882353 536.85625)scale(0.12 -0.12)">
      <use xlink:href="#SimSun-103"/>
      <use x="50" xlink:href="#SimSun-114"/>
      <use x="100" xlink:href="#SimSun-97"/>
      <use x="150" xlink:href="#SimSun-100"/>
      <use x="200" xlink:href="#SimSun-101"/>
      <use x="250" xlink:href="#SimSun-95"/>
      <use x="300" xlink:href="#SimSun-105"/>
      <use x="350" xlink:href="#SimSun-110"/>
      <use x="400" xlink:href="#SimSun-116"/>
      <use x="450" xlink:href="#SimSun-101"/>
      <use x="500" xlink:href="#SimSun-114"/>
      <use x="550" xlink:href="#SimSun-118"/>
      <use x="600" xlink:href="#SimSun-97"/>
      <use x="650" xlink:href="#SimSun-108"/>
     </g>
    </g>
   </g>
   <g id="matplotlib.axis_6">
    <g id="ytick_16">
     <g id="line2d_37">
      <g>
       <use style="stroke:#000000;stroke-width:0.8;" x="967.764706" xlink:href="#m6f0575d904" y="507.6"/>
      </g>
     </g>
     <g id="text_44">
      <!-- 0.0 -->
      <g transform="translate(944.861581 511.399219)scale(0.1 -0.1)">
       <use xlink:href="#DejaVuSans-48"/>
       <use x="63.623047" xlink:href="#DejaVuSans-46"/>
       <use x="95.410156" xlink:href="#DejaVuSans-48"/>
      </g>
     </g>
    </g>
    <g id="ytick_17">
     <g id="line2d_38">
      <g>
       <use style="stroke:#000000;stroke-width:0.8;" x="967.764706" xlink:href="#m6f0575d904" y="456.171429"/>
      </g>
     </g>
     <g id="text_45">
      <!-- 0.1 -->
      <g transform="translate(944.861581 459.970647)scale(0.1 -0.1)">
       <use xlink:href="#DejaVuSans-48"/>
       <use x="63.623047" xlink:href="#DejaVuSans-46"/>
       <use x="95.410156" xlink:href="#DejaVuSans-49"/>
      </g>
     </g>
    </g>
    <g id="ytick_18">
     <g id="line2d_39">
      <g>
       <use style="stroke:#000000;stroke-width:0.8;" x="967.764706" xlink:href="#m6f0575d904" y="404.742857"/>
      </g>
     </g>
     <g id="text_46">
      <!-- 0.2 -->
      <g transform="translate(944.861581 408.542076)scale(0.1 -0.1)">
       <use xlink:href="#DejaVuSans-48"/>
       <use x="63.623047" xlink:href="#DejaVuSans-46"/>
       <use x="95.410156" xlink:href="#DejaVuSans-50"/>
      </g>
     </g>
    </g>
    <g id="ytick_19">
     <g id="line2d_40">
      <g>
       <use style="stroke:#000000;stroke-width:0.8;" x="967.764706" xlink:href="#m6f0575d904" y="353.314286"/>
      </g>
     </g>
     <g id="text_47">
      <!-- 0.3 -->
      <g transform="translate(944.861581 357.113504)scale(0.1 -0.1)">
       <use xlink:href="#DejaVuSans-48"/>
       <use x="63.623047" xlink:href="#DejaVuSans-46"/>
       <use x="95.410156" xlink:href="#DejaVuSans-51"/>
      </g>
     </g>
    </g>
    <g id="ytick_20">
     <g id="line2d_41">
      <g>
       <use style="stroke:#000000;stroke-width:0.8;" x="967.764706" xlink:href="#m6f0575d904" y="301.885714"/>
      </g>
     </g>
     <g id="text_48">
      <!-- 0.4 -->
      <g transform="translate(944.861581 305.684933)scale(0.1 -0.1)">
       <use xlink:href="#DejaVuSans-48"/>
       <use x="63.623047" xlink:href="#DejaVuSans-46"/>
       <use x="95.410156" xlink:href="#DejaVuSans-52"/>
      </g>
     </g>
    </g>
    <g id="ytick_21">
     <g id="line2d_42">
      <g>
       <use style="stroke:#000000;stroke-width:0.8;" x="967.764706" xlink:href="#m6f0575d904" y="250.457143"/>
      </g>
     </g>
     <g id="text_49">
      <!-- 0.5 -->
      <g transform="translate(944.861581 254.256362)scale(0.1 -0.1)">
       <use xlink:href="#DejaVuSans-48"/>
       <use x="63.623047" xlink:href="#DejaVuSans-46"/>
       <use x="95.410156" xlink:href="#DejaVuSans-53"/>
      </g>
     </g>
    </g>
    <g id="ytick_22">
     <g id="line2d_43">
      <g>
       <use style="stroke:#000000;stroke-width:0.8;" x="967.764706" xlink:href="#m6f0575d904" y="199.028571"/>
      </g>
     </g>
     <g id="text_50">
      <!-- 0.6 -->
      <g transform="translate(944.861581 202.82779)scale(0.1 -0.1)">
       <use xlink:href="#DejaVuSans-48"/>
       <use x="63.623047" xlink:href="#DejaVuSans-46"/>
       <use x="95.410156" xlink:href="#DejaVuSans-54"/>
      </g>
     </g>
    </g>
    <g id="ytick_23">
     <g id="line2d_44">
      <g>
       <use style="stroke:#000000;stroke-width:0.8;" x="967.764706" xlink:href="#m6f0575d904" y="147.6"/>
      </g>
     </g>
     <g id="text_51">
      <!-- 0.7 -->
      <g transform="translate(944.861581 151.399219)scale(0.1 -0.1)">
       <use xlink:href="#DejaVuSans-48"/>
       <use x="63.623047" xlink:href="#DejaVuSans-46"/>
       <use x="95.410156" xlink:href="#DejaVuSans-55"/>
      </g>
     </g>
    </g>
    <g id="text_52">
     <!-- frequency/interval -->
     <g transform="translate(939.314706 372.6)rotate(-90)scale(0.12 -0.12)">
      <use xlink:href="#SimSun-102"/>
      <use x="50" xlink:href="#SimSun-114"/>
      <use x="100" xlink:href="#SimSun-101"/>
      <use x="150" xlink:href="#SimSun-113"/>
      <use x="200" xlink:href="#SimSun-117"/>
      <use x="250" xlink:href="#SimSun-101"/>
      <use x="300" xlink:href="#SimSun-110"/>
      <use x="350" xlink:href="#SimSun-99"/>
      <use x="400" xlink:href="#SimSun-121"/>
      <use x="450" xlink:href="#SimSun-47"/>
      <use x="500" xlink:href="#SimSun-105"/>
      <use x="550" xlink:href="#SimSun-110"/>
      <use x="600" xlink:href="#SimSun-116"/>
      <use x="650" xlink:href="#SimSun-101"/>
      <use x="700" xlink:href="#SimSun-114"/>
      <use x="750" xlink:href="#SimSun-118"/>
      <use x="800" xlink:href="#SimSun-97"/>
      <use x="850" xlink:href="#SimSun-108"/>
     </g>
    </g>
   </g>
   <g id="patch_31">
    <path d="M 967.764706 507.6 
L 967.764706 129.6 
" style="fill:none;stroke:#000000;stroke-linecap:square;stroke-linejoin:miter;stroke-width:0.8;"/>
   </g>
   <g id="patch_32">
    <path d="M 1296 507.6 
L 1296 129.6 
" style="fill:none;stroke:#000000;stroke-linecap:square;stroke-linejoin:miter;stroke-width:0.8;"/>
   </g>
   <g id="patch_33">
    <path d="M 967.764706 507.6 
L 1296 507.6 
" style="fill:none;stroke:#000000;stroke-linecap:square;stroke-linejoin:miter;stroke-width:0.8;"/>
   </g>
   <g id="patch_34">
    <path d="M 967.764706 129.6 
L 1296 129.6 
" style="fill:none;stroke:#000000;stroke-linecap:square;stroke-linejoin:miter;stroke-width:0.8;"/>
   </g>
   <g id="text_53">
    <!-- thethirdgroup -->
    <g transform="translate(1092.882353 123.6)scale(0.12 -0.12)">
     <use xlink:href="#SimSun-116"/>
     <use x="50" xlink:href="#SimSun-104"/>
     <use x="100" xlink:href="#SimSun-101"/>
     <use x="150" xlink:href="#SimSun-116"/>
     <use x="200" xlink:href="#SimSun-104"/>
     <use x="250" xlink:href="#SimSun-105"/>
     <use x="300" xlink:href="#SimSun-114"/>
     <use x="350" xlink:href="#SimSun-100"/>
     <use x="400" xlink:href="#SimSun-103"/>
     <use x="450" xlink:href="#SimSun-114"/>
     <use x="500" xlink:href="#SimSun-111"/>
     <use x="550" xlink:href="#SimSun-117"/>
     <use x="600" xlink:href="#SimSun-112"/>
    </g>
   </g>
  </g>
  <g id="axes_4">
   <g id="patch_35">
    <path d="M 180 961.2 
L 508.235294 961.2 
L 508.235294 583.2 
L 180 583.2 
z
" style="fill:#ffffff;"/>
   </g>
   <g id="patch_36">
    <path clip-path="url(#p958f2adcb0)" d="M 194.919786 961.2 
L 244.652406 961.2 
L 244.652406 961.2 
L 194.919786 961.2 
z
" style="fill:#1f77b4;"/>
   </g>
   <g id="patch_37">
    <path clip-path="url(#p958f2adcb0)" d="M 244.652406 961.2 
L 294.385027 961.2 
L 294.385027 901.2 
L 244.652406 901.2 
z
" style="fill:#1f77b4;"/>
   </g>
   <g id="patch_38">
    <path clip-path="url(#p958f2adcb0)" d="M 294.385027 961.2 
L 344.117647 961.2 
L 344.117647 661.2 
L 294.385027 661.2 
z
" style="fill:#1f77b4;"/>
   </g>
   <g id="patch_39">
    <path clip-path="url(#p958f2adcb0)" d="M 344.117647 961.2 
L 393.850267 961.2 
L 393.850267 661.2 
L 344.117647 661.2 
z
" style="fill:#1f77b4;"/>
   </g>
   <g id="patch_40">
    <path clip-path="url(#p958f2adcb0)" d="M 393.850267 961.2 
L 443.582888 961.2 
L 443.582888 601.2 
L 393.850267 601.2 
z
" style="fill:#1f77b4;"/>
   </g>
   <g id="patch_41">
    <path clip-path="url(#p958f2adcb0)" d="M 443.582888 961.2 
L 493.315508 961.2 
L 493.315508 841.2 
L 443.582888 841.2 
z
" style="fill:#1f77b4;"/>
   </g>
   <g id="matplotlib.axis_7">
    <g id="xtick_22">
     <g id="line2d_45">
      <g>
       <use style="stroke:#000000;stroke-width:0.8;" x="194.919786" xlink:href="#m4ba92b2e3e" y="961.2"/>
      </g>
     </g>
     <g id="text_54">
      <!-- 1.0 -->
      <g transform="translate(186.968224 975.798437)scale(0.1 -0.1)">
       <use xlink:href="#DejaVuSans-49"/>
       <use x="63.623047" xlink:href="#DejaVuSans-46"/>
       <use x="95.410156" xlink:href="#DejaVuSans-48"/>
      </g>
     </g>
    </g>
    <g id="xtick_23">
     <g id="line2d_46">
      <g>
       <use style="stroke:#000000;stroke-width:0.8;" x="244.652406" xlink:href="#m4ba92b2e3e" y="961.2"/>
      </g>
     </g>
     <g id="text_55">
      <!-- 1.5 -->
      <g transform="translate(236.700844 975.798437)scale(0.1 -0.1)">
       <use xlink:href="#DejaVuSans-49"/>
       <use x="63.623047" xlink:href="#DejaVuSans-46"/>
       <use x="95.410156" xlink:href="#DejaVuSans-53"/>
      </g>
     </g>
    </g>
    <g id="xtick_24">
     <g id="line2d_47">
      <g>
       <use style="stroke:#000000;stroke-width:0.8;" x="294.385027" xlink:href="#m4ba92b2e3e" y="961.2"/>
      </g>
     </g>
     <g id="text_56">
      <!-- 2.0 -->
      <g transform="translate(286.433464 975.798437)scale(0.1 -0.1)">
       <use xlink:href="#DejaVuSans-50"/>
       <use x="63.623047" xlink:href="#DejaVuSans-46"/>
       <use x="95.410156" xlink:href="#DejaVuSans-48"/>
      </g>
     </g>
    </g>
    <g id="xtick_25">
     <g id="line2d_48">
      <g>
       <use style="stroke:#000000;stroke-width:0.8;" x="344.117647" xlink:href="#m4ba92b2e3e" y="961.2"/>
      </g>
     </g>
     <g id="text_57">
      <!-- 2.5 -->
      <g transform="translate(336.166085 975.798437)scale(0.1 -0.1)">
       <use xlink:href="#DejaVuSans-50"/>
       <use x="63.623047" xlink:href="#DejaVuSans-46"/>
       <use x="95.410156" xlink:href="#DejaVuSans-53"/>
      </g>
     </g>
    </g>
    <g id="xtick_26">
     <g id="line2d_49">
      <g>
       <use style="stroke:#000000;stroke-width:0.8;" x="393.850267" xlink:href="#m4ba92b2e3e" y="961.2"/>
      </g>
     </g>
     <g id="text_58">
      <!-- 3.0 -->
      <g transform="translate(385.898705 975.798437)scale(0.1 -0.1)">
       <use xlink:href="#DejaVuSans-51"/>
       <use x="63.623047" xlink:href="#DejaVuSans-46"/>
       <use x="95.410156" xlink:href="#DejaVuSans-48"/>
      </g>
     </g>
    </g>
    <g id="xtick_27">
     <g id="line2d_50">
      <g>
       <use style="stroke:#000000;stroke-width:0.8;" x="443.582888" xlink:href="#m4ba92b2e3e" y="961.2"/>
      </g>
     </g>
     <g id="text_59">
      <!-- 3.5 -->
      <g transform="translate(435.631325 975.798437)scale(0.1 -0.1)">
       <use xlink:href="#DejaVuSans-51"/>
       <use x="63.623047" xlink:href="#DejaVuSans-46"/>
       <use x="95.410156" xlink:href="#DejaVuSans-53"/>
      </g>
     </g>
    </g>
    <g id="xtick_28">
     <g id="line2d_51">
      <g>
       <use style="stroke:#000000;stroke-width:0.8;" x="493.315508" xlink:href="#m4ba92b2e3e" y="961.2"/>
      </g>
     </g>
     <g id="text_60">
      <!-- 4.0 -->
      <g transform="translate(485.363946 975.798437)scale(0.1 -0.1)">
       <use xlink:href="#DejaVuSans-52"/>
       <use x="63.623047" xlink:href="#DejaVuSans-46"/>
       <use x="95.410156" xlink:href="#DejaVuSans-48"/>
      </g>
     </g>
    </g>
    <g id="text_61">
     <!-- grade_interval -->
     <g transform="translate(302.117647 990.45625)scale(0.12 -0.12)">
      <use xlink:href="#SimSun-103"/>
      <use x="50" xlink:href="#SimSun-114"/>
      <use x="100" xlink:href="#SimSun-97"/>
      <use x="150" xlink:href="#SimSun-100"/>
      <use x="200" xlink:href="#SimSun-101"/>
      <use x="250" xlink:href="#SimSun-95"/>
      <use x="300" xlink:href="#SimSun-105"/>
      <use x="350" xlink:href="#SimSun-110"/>
      <use x="400" xlink:href="#SimSun-116"/>
      <use x="450" xlink:href="#SimSun-101"/>
      <use x="500" xlink:href="#SimSun-114"/>
      <use x="550" xlink:href="#SimSun-118"/>
      <use x="600" xlink:href="#SimSun-97"/>
      <use x="650" xlink:href="#SimSun-108"/>
     </g>
    </g>
   </g>
   <g id="matplotlib.axis_8">
    <g id="ytick_24">
     <g id="line2d_52">
      <g>
       <use style="stroke:#000000;stroke-width:0.8;" x="180" xlink:href="#m6f0575d904" y="961.2"/>
      </g>
     </g>
     <g id="text_62">
      <!-- 0.0 -->
      <g transform="translate(157.096875 964.999219)scale(0.1 -0.1)">
       <use xlink:href="#DejaVuSans-48"/>
       <use x="63.623047" xlink:href="#DejaVuSans-46"/>
       <use x="95.410156" xlink:href="#DejaVuSans-48"/>
      </g>
     </g>
    </g>
    <g id="ytick_25">
     <g id="line2d_53">
      <g>
       <use style="stroke:#000000;stroke-width:0.8;" x="180" xlink:href="#m6f0575d904" y="904.2"/>
      </g>
     </g>
     <g id="text_63">
      <!-- 0.1 -->
      <g transform="translate(157.096875 907.999219)scale(0.1 -0.1)">
       <use xlink:href="#DejaVuSans-48"/>
       <use x="63.623047" xlink:href="#DejaVuSans-46"/>
       <use x="95.410156" xlink:href="#DejaVuSans-49"/>
      </g>
     </g>
    </g>
    <g id="ytick_26">
     <g id="line2d_54">
      <g>
       <use style="stroke:#000000;stroke-width:0.8;" x="180" xlink:href="#m6f0575d904" y="847.2"/>
      </g>
     </g>
     <g id="text_64">
      <!-- 0.2 -->
      <g transform="translate(157.096875 850.999219)scale(0.1 -0.1)">
       <use xlink:href="#DejaVuSans-48"/>
       <use x="63.623047" xlink:href="#DejaVuSans-46"/>
       <use x="95.410156" xlink:href="#DejaVuSans-50"/>
      </g>
     </g>
    </g>
    <g id="ytick_27">
     <g id="line2d_55">
      <g>
       <use style="stroke:#000000;stroke-width:0.8;" x="180" xlink:href="#m6f0575d904" y="790.2"/>
      </g>
     </g>
     <g id="text_65">
      <!-- 0.3 -->
      <g transform="translate(157.096875 793.999219)scale(0.1 -0.1)">
       <use xlink:href="#DejaVuSans-48"/>
       <use x="63.623047" xlink:href="#DejaVuSans-46"/>
       <use x="95.410156" xlink:href="#DejaVuSans-51"/>
      </g>
     </g>
    </g>
    <g id="ytick_28">
     <g id="line2d_56">
      <g>
       <use style="stroke:#000000;stroke-width:0.8;" x="180" xlink:href="#m6f0575d904" y="733.2"/>
      </g>
     </g>
     <g id="text_66">
      <!-- 0.4 -->
      <g transform="translate(157.096875 736.999219)scale(0.1 -0.1)">
       <use xlink:href="#DejaVuSans-48"/>
       <use x="63.623047" xlink:href="#DejaVuSans-46"/>
       <use x="95.410156" xlink:href="#DejaVuSans-52"/>
      </g>
     </g>
    </g>
    <g id="ytick_29">
     <g id="line2d_57">
      <g>
       <use style="stroke:#000000;stroke-width:0.8;" x="180" xlink:href="#m6f0575d904" y="676.2"/>
      </g>
     </g>
     <g id="text_67">
      <!-- 0.5 -->
      <g transform="translate(157.096875 679.999219)scale(0.1 -0.1)">
       <use xlink:href="#DejaVuSans-48"/>
       <use x="63.623047" xlink:href="#DejaVuSans-46"/>
       <use x="95.410156" xlink:href="#DejaVuSans-53"/>
      </g>
     </g>
    </g>
    <g id="ytick_30">
     <g id="line2d_58">
      <g>
       <use style="stroke:#000000;stroke-width:0.8;" x="180" xlink:href="#m6f0575d904" y="619.2"/>
      </g>
     </g>
     <g id="text_68">
      <!-- 0.6 -->
      <g transform="translate(157.096875 622.999219)scale(0.1 -0.1)">
       <use xlink:href="#DejaVuSans-48"/>
       <use x="63.623047" xlink:href="#DejaVuSans-46"/>
       <use x="95.410156" xlink:href="#DejaVuSans-54"/>
      </g>
     </g>
    </g>
    <g id="text_69">
     <!-- frequency/interval -->
     <g transform="translate(151.55 826.2)rotate(-90)scale(0.12 -0.12)">
      <use xlink:href="#SimSun-102"/>
      <use x="50" xlink:href="#SimSun-114"/>
      <use x="100" xlink:href="#SimSun-101"/>
      <use x="150" xlink:href="#SimSun-113"/>
      <use x="200" xlink:href="#SimSun-117"/>
      <use x="250" xlink:href="#SimSun-101"/>
      <use x="300" xlink:href="#SimSun-110"/>
      <use x="350" xlink:href="#SimSun-99"/>
      <use x="400" xlink:href="#SimSun-121"/>
      <use x="450" xlink:href="#SimSun-47"/>
      <use x="500" xlink:href="#SimSun-105"/>
      <use x="550" xlink:href="#SimSun-110"/>
      <use x="600" xlink:href="#SimSun-116"/>
      <use x="650" xlink:href="#SimSun-101"/>
      <use x="700" xlink:href="#SimSun-114"/>
      <use x="750" xlink:href="#SimSun-118"/>
      <use x="800" xlink:href="#SimSun-97"/>
      <use x="850" xlink:href="#SimSun-108"/>
     </g>
    </g>
   </g>
   <g id="patch_42">
    <path d="M 180 961.2 
L 180 583.2 
" style="fill:none;stroke:#000000;stroke-linecap:square;stroke-linejoin:miter;stroke-width:0.8;"/>
   </g>
   <g id="patch_43">
    <path d="M 508.235294 961.2 
L 508.235294 583.2 
" style="fill:none;stroke:#000000;stroke-linecap:square;stroke-linejoin:miter;stroke-width:0.8;"/>
   </g>
   <g id="patch_44">
    <path d="M 180 961.2 
L 508.235294 961.2 
" style="fill:none;stroke:#000000;stroke-linecap:square;stroke-linejoin:miter;stroke-width:0.8;"/>
   </g>
   <g id="patch_45">
    <path d="M 180 583.2 
L 508.235294 583.2 
" style="fill:none;stroke:#000000;stroke-linecap:square;stroke-linejoin:miter;stroke-width:0.8;"/>
   </g>
   <g id="text_70">
    <!-- thefourthgroup -->
    <g transform="translate(302.117647 577.2)scale(0.12 -0.12)">
     <use xlink:href="#SimSun-116"/>
     <use x="50" xlink:href="#SimSun-104"/>
     <use x="100" xlink:href="#SimSun-101"/>
     <use x="150" xlink:href="#SimSun-102"/>
     <use x="200" xlink:href="#SimSun-111"/>
     <use x="250" xlink:href="#SimSun-117"/>
     <use x="300" xlink:href="#SimSun-114"/>
     <use x="350" xlink:href="#SimSun-116"/>
     <use x="400" xlink:href="#SimSun-104"/>
     <use x="450" xlink:href="#SimSun-103"/>
     <use x="500" xlink:href="#SimSun-114"/>
     <use x="550" xlink:href="#SimSun-111"/>
     <use x="600" xlink:href="#SimSun-117"/>
     <use x="650" xlink:href="#SimSun-112"/>
    </g>
   </g>
  </g>
  <g id="axes_5">
   <g id="patch_46">
    <path d="M 573.882353 961.2 
L 902.117647 961.2 
L 902.117647 583.2 
L 573.882353 583.2 
z
" style="fill:#ffffff;"/>
   </g>
   <g id="patch_47">
    <path clip-path="url(#pba5ab62468)" d="M 588.802139 961.2 
L 638.534759 961.2 
L 638.534759 961.2 
L 588.802139 961.2 
z
" style="fill:#1f77b4;"/>
   </g>
   <g id="patch_48">
    <path clip-path="url(#pba5ab62468)" d="M 638.534759 961.2 
L 688.26738 961.2 
L 688.26738 909.771429 
L 638.534759 909.771429 
z
" style="fill:#1f77b4;"/>
   </g>
   <g id="patch_49">
    <path clip-path="url(#pba5ab62468)" d="M 688.26738 961.2 
L 738 961.2 
L 738 704.057143 
L 688.26738 704.057143 
z
" style="fill:#1f77b4;"/>
   </g>
   <g id="patch_50">
    <path clip-path="url(#pba5ab62468)" d="M 738 961.2 
L 787.73262 961.2 
L 787.73262 755.485714 
L 738 755.485714 
z
" style="fill:#1f77b4;"/>
   </g>
   <g id="patch_51">
    <path clip-path="url(#pba5ab62468)" d="M 787.73262 961.2 
L 837.465241 961.2 
L 837.465241 601.2 
L 787.73262 601.2 
z
" style="fill:#1f77b4;"/>
   </g>
   <g id="patch_52">
    <path clip-path="url(#pba5ab62468)" d="M 837.465241 961.2 
L 887.197861 961.2 
L 887.197861 806.914286 
L 837.465241 806.914286 
z
" style="fill:#1f77b4;"/>
   </g>
   <g id="matplotlib.axis_9">
    <g id="xtick_29">
     <g id="line2d_59">
      <g>
       <use style="stroke:#000000;stroke-width:0.8;" x="588.802139" xlink:href="#m4ba92b2e3e" y="961.2"/>
      </g>
     </g>
     <g id="text_71">
      <!-- 1.0 -->
      <g transform="translate(580.850577 975.798437)scale(0.1 -0.1)">
       <use xlink:href="#DejaVuSans-49"/>
       <use x="63.623047" xlink:href="#DejaVuSans-46"/>
       <use x="95.410156" xlink:href="#DejaVuSans-48"/>
      </g>
     </g>
    </g>
    <g id="xtick_30">
     <g id="line2d_60">
      <g>
       <use style="stroke:#000000;stroke-width:0.8;" x="638.534759" xlink:href="#m4ba92b2e3e" y="961.2"/>
      </g>
     </g>
     <g id="text_72">
      <!-- 1.5 -->
      <g transform="translate(630.583197 975.798437)scale(0.1 -0.1)">
       <use xlink:href="#DejaVuSans-49"/>
       <use x="63.623047" xlink:href="#DejaVuSans-46"/>
       <use x="95.410156" xlink:href="#DejaVuSans-53"/>
      </g>
     </g>
    </g>
    <g id="xtick_31">
     <g id="line2d_61">
      <g>
       <use style="stroke:#000000;stroke-width:0.8;" x="688.26738" xlink:href="#m4ba92b2e3e" y="961.2"/>
      </g>
     </g>
     <g id="text_73">
      <!-- 2.0 -->
      <g transform="translate(680.315817 975.798437)scale(0.1 -0.1)">
       <use xlink:href="#DejaVuSans-50"/>
       <use x="63.623047" xlink:href="#DejaVuSans-46"/>
       <use x="95.410156" xlink:href="#DejaVuSans-48"/>
      </g>
     </g>
    </g>
    <g id="xtick_32">
     <g id="line2d_62">
      <g>
       <use style="stroke:#000000;stroke-width:0.8;" x="738" xlink:href="#m4ba92b2e3e" y="961.2"/>
      </g>
     </g>
     <g id="text_74">
      <!-- 2.5 -->
      <g transform="translate(730.048437 975.798437)scale(0.1 -0.1)">
       <use xlink:href="#DejaVuSans-50"/>
       <use x="63.623047" xlink:href="#DejaVuSans-46"/>
       <use x="95.410156" xlink:href="#DejaVuSans-53"/>
      </g>
     </g>
    </g>
    <g id="xtick_33">
     <g id="line2d_63">
      <g>
       <use style="stroke:#000000;stroke-width:0.8;" x="787.73262" xlink:href="#m4ba92b2e3e" y="961.2"/>
      </g>
     </g>
     <g id="text_75">
      <!-- 3.0 -->
      <g transform="translate(779.781058 975.798437)scale(0.1 -0.1)">
       <use xlink:href="#DejaVuSans-51"/>
       <use x="63.623047" xlink:href="#DejaVuSans-46"/>
       <use x="95.410156" xlink:href="#DejaVuSans-48"/>
      </g>
     </g>
    </g>
    <g id="xtick_34">
     <g id="line2d_64">
      <g>
       <use style="stroke:#000000;stroke-width:0.8;" x="837.465241" xlink:href="#m4ba92b2e3e" y="961.2"/>
      </g>
     </g>
     <g id="text_76">
      <!-- 3.5 -->
      <g transform="translate(829.513678 975.798437)scale(0.1 -0.1)">
       <use xlink:href="#DejaVuSans-51"/>
       <use x="63.623047" xlink:href="#DejaVuSans-46"/>
       <use x="95.410156" xlink:href="#DejaVuSans-53"/>
      </g>
     </g>
    </g>
    <g id="xtick_35">
     <g id="line2d_65">
      <g>
       <use style="stroke:#000000;stroke-width:0.8;" x="887.197861" xlink:href="#m4ba92b2e3e" y="961.2"/>
      </g>
     </g>
     <g id="text_77">
      <!-- 4.0 -->
      <g transform="translate(879.246298 975.798437)scale(0.1 -0.1)">
       <use xlink:href="#DejaVuSans-52"/>
       <use x="63.623047" xlink:href="#DejaVuSans-46"/>
       <use x="95.410156" xlink:href="#DejaVuSans-48"/>
      </g>
     </g>
    </g>
    <g id="text_78">
     <!-- grade_interval -->
     <g transform="translate(696 990.45625)scale(0.12 -0.12)">
      <use xlink:href="#SimSun-103"/>
      <use x="50" xlink:href="#SimSun-114"/>
      <use x="100" xlink:href="#SimSun-97"/>
      <use x="150" xlink:href="#SimSun-100"/>
      <use x="200" xlink:href="#SimSun-101"/>
      <use x="250" xlink:href="#SimSun-95"/>
      <use x="300" xlink:href="#SimSun-105"/>
      <use x="350" xlink:href="#SimSun-110"/>
      <use x="400" xlink:href="#SimSun-116"/>
      <use x="450" xlink:href="#SimSun-101"/>
      <use x="500" xlink:href="#SimSun-114"/>
      <use x="550" xlink:href="#SimSun-118"/>
      <use x="600" xlink:href="#SimSun-97"/>
      <use x="650" xlink:href="#SimSun-108"/>
     </g>
    </g>
   </g>
   <g id="matplotlib.axis_10">
    <g id="ytick_31">
     <g id="line2d_66">
      <g>
       <use style="stroke:#000000;stroke-width:0.8;" x="573.882353" xlink:href="#m6f0575d904" y="961.2"/>
      </g>
     </g>
     <g id="text_79">
      <!-- 0.0 -->
      <g transform="translate(550.979228 964.999219)scale(0.1 -0.1)">
       <use xlink:href="#DejaVuSans-48"/>
       <use x="63.623047" xlink:href="#DejaVuSans-46"/>
       <use x="95.410156" xlink:href="#DejaVuSans-48"/>
      </g>
     </g>
    </g>
    <g id="ytick_32">
     <g id="line2d_67">
      <g>
       <use style="stroke:#000000;stroke-width:0.8;" x="573.882353" xlink:href="#m6f0575d904" y="909.771429"/>
      </g>
     </g>
     <g id="text_80">
      <!-- 0.1 -->
      <g transform="translate(550.979228 913.570647)scale(0.1 -0.1)">
       <use xlink:href="#DejaVuSans-48"/>
       <use x="63.623047" xlink:href="#DejaVuSans-46"/>
       <use x="95.410156" xlink:href="#DejaVuSans-49"/>
      </g>
     </g>
    </g>
    <g id="ytick_33">
     <g id="line2d_68">
      <g>
       <use style="stroke:#000000;stroke-width:0.8;" x="573.882353" xlink:href="#m6f0575d904" y="858.342857"/>
      </g>
     </g>
     <g id="text_81">
      <!-- 0.2 -->
      <g transform="translate(550.979228 862.142076)scale(0.1 -0.1)">
       <use xlink:href="#DejaVuSans-48"/>
       <use x="63.623047" xlink:href="#DejaVuSans-46"/>
       <use x="95.410156" xlink:href="#DejaVuSans-50"/>
      </g>
     </g>
    </g>
    <g id="ytick_34">
     <g id="line2d_69">
      <g>
       <use style="stroke:#000000;stroke-width:0.8;" x="573.882353" xlink:href="#m6f0575d904" y="806.914286"/>
      </g>
     </g>
     <g id="text_82">
      <!-- 0.3 -->
      <g transform="translate(550.979228 810.713504)scale(0.1 -0.1)">
       <use xlink:href="#DejaVuSans-48"/>
       <use x="63.623047" xlink:href="#DejaVuSans-46"/>
       <use x="95.410156" xlink:href="#DejaVuSans-51"/>
      </g>
     </g>
    </g>
    <g id="ytick_35">
     <g id="line2d_70">
      <g>
       <use style="stroke:#000000;stroke-width:0.8;" x="573.882353" xlink:href="#m6f0575d904" y="755.485714"/>
      </g>
     </g>
     <g id="text_83">
      <!-- 0.4 -->
      <g transform="translate(550.979228 759.284933)scale(0.1 -0.1)">
       <use xlink:href="#DejaVuSans-48"/>
       <use x="63.623047" xlink:href="#DejaVuSans-46"/>
       <use x="95.410156" xlink:href="#DejaVuSans-52"/>
      </g>
     </g>
    </g>
    <g id="ytick_36">
     <g id="line2d_71">
      <g>
       <use style="stroke:#000000;stroke-width:0.8;" x="573.882353" xlink:href="#m6f0575d904" y="704.057143"/>
      </g>
     </g>
     <g id="text_84">
      <!-- 0.5 -->
      <g transform="translate(550.979228 707.856362)scale(0.1 -0.1)">
       <use xlink:href="#DejaVuSans-48"/>
       <use x="63.623047" xlink:href="#DejaVuSans-46"/>
       <use x="95.410156" xlink:href="#DejaVuSans-53"/>
      </g>
     </g>
    </g>
    <g id="ytick_37">
     <g id="line2d_72">
      <g>
       <use style="stroke:#000000;stroke-width:0.8;" x="573.882353" xlink:href="#m6f0575d904" y="652.628571"/>
      </g>
     </g>
     <g id="text_85">
      <!-- 0.6 -->
      <g transform="translate(550.979228 656.42779)scale(0.1 -0.1)">
       <use xlink:href="#DejaVuSans-48"/>
       <use x="63.623047" xlink:href="#DejaVuSans-46"/>
       <use x="95.410156" xlink:href="#DejaVuSans-54"/>
      </g>
     </g>
    </g>
    <g id="ytick_38">
     <g id="line2d_73">
      <g>
       <use style="stroke:#000000;stroke-width:0.8;" x="573.882353" xlink:href="#m6f0575d904" y="601.2"/>
      </g>
     </g>
     <g id="text_86">
      <!-- 0.7 -->
      <g transform="translate(550.979228 604.999219)scale(0.1 -0.1)">
       <use xlink:href="#DejaVuSans-48"/>
       <use x="63.623047" xlink:href="#DejaVuSans-46"/>
       <use x="95.410156" xlink:href="#DejaVuSans-55"/>
      </g>
     </g>
    </g>
    <g id="text_87">
     <!-- frequency/interval -->
     <g transform="translate(545.432353 826.2)rotate(-90)scale(0.12 -0.12)">
      <use xlink:href="#SimSun-102"/>
      <use x="50" xlink:href="#SimSun-114"/>
      <use x="100" xlink:href="#SimSun-101"/>
      <use x="150" xlink:href="#SimSun-113"/>
      <use x="200" xlink:href="#SimSun-117"/>
      <use x="250" xlink:href="#SimSun-101"/>
      <use x="300" xlink:href="#SimSun-110"/>
      <use x="350" xlink:href="#SimSun-99"/>
      <use x="400" xlink:href="#SimSun-121"/>
      <use x="450" xlink:href="#SimSun-47"/>
      <use x="500" xlink:href="#SimSun-105"/>
      <use x="550" xlink:href="#SimSun-110"/>
      <use x="600" xlink:href="#SimSun-116"/>
      <use x="650" xlink:href="#SimSun-101"/>
      <use x="700" xlink:href="#SimSun-114"/>
      <use x="750" xlink:href="#SimSun-118"/>
      <use x="800" xlink:href="#SimSun-97"/>
      <use x="850" xlink:href="#SimSun-108"/>
     </g>
    </g>
   </g>
   <g id="patch_53">
    <path d="M 573.882353 961.2 
L 573.882353 583.2 
" style="fill:none;stroke:#000000;stroke-linecap:square;stroke-linejoin:miter;stroke-width:0.8;"/>
   </g>
   <g id="patch_54">
    <path d="M 902.117647 961.2 
L 902.117647 583.2 
" style="fill:none;stroke:#000000;stroke-linecap:square;stroke-linejoin:miter;stroke-width:0.8;"/>
   </g>
   <g id="patch_55">
    <path d="M 573.882353 961.2 
L 902.117647 961.2 
" style="fill:none;stroke:#000000;stroke-linecap:square;stroke-linejoin:miter;stroke-width:0.8;"/>
   </g>
   <g id="patch_56">
    <path d="M 573.882353 583.2 
L 902.117647 583.2 
" style="fill:none;stroke:#000000;stroke-linecap:square;stroke-linejoin:miter;stroke-width:0.8;"/>
   </g>
   <g id="text_88">
    <!-- thefifthgroup -->
    <g transform="translate(699 577.2)scale(0.12 -0.12)">
     <use xlink:href="#SimSun-116"/>
     <use x="50" xlink:href="#SimSun-104"/>
     <use x="100" xlink:href="#SimSun-101"/>
     <use x="150" xlink:href="#SimSun-102"/>
     <use x="200" xlink:href="#SimSun-105"/>
     <use x="250" xlink:href="#SimSun-102"/>
     <use x="300" xlink:href="#SimSun-116"/>
     <use x="350" xlink:href="#SimSun-104"/>
     <use x="400" xlink:href="#SimSun-103"/>
     <use x="450" xlink:href="#SimSun-114"/>
     <use x="500" xlink:href="#SimSun-111"/>
     <use x="550" xlink:href="#SimSun-117"/>
     <use x="600" xlink:href="#SimSun-112"/>
    </g>
   </g>
  </g>
  <g id="axes_6">
   <g id="patch_57">
    <path d="M 967.764706 961.2 
L 1296 961.2 
L 1296 583.2 
L 967.764706 583.2 
z
" style="fill:#ffffff;"/>
   </g>
   <g id="patch_58">
    <path clip-path="url(#p5a945f5100)" d="M 982.684492 961.2 
L 1032.417112 961.2 
L 1032.417112 961.2 
L 982.684492 961.2 
z
" style="fill:#1f77b4;"/>
   </g>
   <g id="patch_59">
    <path clip-path="url(#p5a945f5100)" d="M 1032.417112 961.2 
L 1082.149733 961.2 
L 1082.149733 901.2 
L 1032.417112 901.2 
z
" style="fill:#1f77b4;"/>
   </g>
   <g id="patch_60">
    <path clip-path="url(#p5a945f5100)" d="M 1082.149733 961.2 
L 1131.882353 961.2 
L 1131.882353 661.2 
L 1082.149733 661.2 
z
" style="fill:#1f77b4;"/>
   </g>
   <g id="patch_61">
    <path clip-path="url(#p5a945f5100)" d="M 1131.882353 961.2 
L 1181.614973 961.2 
L 1181.614973 721.2 
L 1131.882353 721.2 
z
" style="fill:#1f77b4;"/>
   </g>
   <g id="patch_62">
    <path clip-path="url(#p5a945f5100)" d="M 1181.614973 961.2 
L 1231.347594 961.2 
L 1231.347594 601.2 
L 1181.614973 601.2 
z
" style="fill:#1f77b4;"/>
   </g>
   <g id="patch_63">
    <path clip-path="url(#p5a945f5100)" d="M 1231.347594 961.2 
L 1281.080214 961.2 
L 1281.080214 721.2 
L 1231.347594 721.2 
z
" style="fill:#1f77b4;"/>
   </g>
   <g id="matplotlib.axis_11">
    <g id="xtick_36">
     <g id="line2d_74">
      <g>
       <use style="stroke:#000000;stroke-width:0.8;" x="982.684492" xlink:href="#m4ba92b2e3e" y="961.2"/>
      </g>
     </g>
     <g id="text_89">
      <!-- 1.0 -->
      <g transform="translate(974.732929 975.798437)scale(0.1 -0.1)">
       <use xlink:href="#DejaVuSans-49"/>
       <use x="63.623047" xlink:href="#DejaVuSans-46"/>
       <use x="95.410156" xlink:href="#DejaVuSans-48"/>
      </g>
     </g>
    </g>
    <g id="xtick_37">
     <g id="line2d_75">
      <g>
       <use style="stroke:#000000;stroke-width:0.8;" x="1032.417112" xlink:href="#m4ba92b2e3e" y="961.2"/>
      </g>
     </g>
     <g id="text_90">
      <!-- 1.5 -->
      <g transform="translate(1024.46555 975.798437)scale(0.1 -0.1)">
       <use xlink:href="#DejaVuSans-49"/>
       <use x="63.623047" xlink:href="#DejaVuSans-46"/>
       <use x="95.410156" xlink:href="#DejaVuSans-53"/>
      </g>
     </g>
    </g>
    <g id="xtick_38">
     <g id="line2d_76">
      <g>
       <use style="stroke:#000000;stroke-width:0.8;" x="1082.149733" xlink:href="#m4ba92b2e3e" y="961.2"/>
      </g>
     </g>
     <g id="text_91">
      <!-- 2.0 -->
      <g transform="translate(1074.19817 975.798437)scale(0.1 -0.1)">
       <use xlink:href="#DejaVuSans-50"/>
       <use x="63.623047" xlink:href="#DejaVuSans-46"/>
       <use x="95.410156" xlink:href="#DejaVuSans-48"/>
      </g>
     </g>
    </g>
    <g id="xtick_39">
     <g id="line2d_77">
      <g>
       <use style="stroke:#000000;stroke-width:0.8;" x="1131.882353" xlink:href="#m4ba92b2e3e" y="961.2"/>
      </g>
     </g>
     <g id="text_92">
      <!-- 2.5 -->
      <g transform="translate(1123.93079 975.798437)scale(0.1 -0.1)">
       <use xlink:href="#DejaVuSans-50"/>
       <use x="63.623047" xlink:href="#DejaVuSans-46"/>
       <use x="95.410156" xlink:href="#DejaVuSans-53"/>
      </g>
     </g>
    </g>
    <g id="xtick_40">
     <g id="line2d_78">
      <g>
       <use style="stroke:#000000;stroke-width:0.8;" x="1181.614973" xlink:href="#m4ba92b2e3e" y="961.2"/>
      </g>
     </g>
     <g id="text_93">
      <!-- 3.0 -->
      <g transform="translate(1173.663411 975.798437)scale(0.1 -0.1)">
       <use xlink:href="#DejaVuSans-51"/>
       <use x="63.623047" xlink:href="#DejaVuSans-46"/>
       <use x="95.410156" xlink:href="#DejaVuSans-48"/>
      </g>
     </g>
    </g>
    <g id="xtick_41">
     <g id="line2d_79">
      <g>
       <use style="stroke:#000000;stroke-width:0.8;" x="1231.347594" xlink:href="#m4ba92b2e3e" y="961.2"/>
      </g>
     </g>
     <g id="text_94">
      <!-- 3.5 -->
      <g transform="translate(1223.396031 975.798437)scale(0.1 -0.1)">
       <use xlink:href="#DejaVuSans-51"/>
       <use x="63.623047" xlink:href="#DejaVuSans-46"/>
       <use x="95.410156" xlink:href="#DejaVuSans-53"/>
      </g>
     </g>
    </g>
    <g id="xtick_42">
     <g id="line2d_80">
      <g>
       <use style="stroke:#000000;stroke-width:0.8;" x="1281.080214" xlink:href="#m4ba92b2e3e" y="961.2"/>
      </g>
     </g>
     <g id="text_95">
      <!-- 4.0 -->
      <g transform="translate(1273.128651 975.798437)scale(0.1 -0.1)">
       <use xlink:href="#DejaVuSans-52"/>
       <use x="63.623047" xlink:href="#DejaVuSans-46"/>
       <use x="95.410156" xlink:href="#DejaVuSans-48"/>
      </g>
     </g>
    </g>
    <g id="text_96">
     <!-- grade_interval -->
     <g transform="translate(1089.882353 990.45625)scale(0.12 -0.12)">
      <use xlink:href="#SimSun-103"/>
      <use x="50" xlink:href="#SimSun-114"/>
      <use x="100" xlink:href="#SimSun-97"/>
      <use x="150" xlink:href="#SimSun-100"/>
      <use x="200" xlink:href="#SimSun-101"/>
      <use x="250" xlink:href="#SimSun-95"/>
      <use x="300" xlink:href="#SimSun-105"/>
      <use x="350" xlink:href="#SimSun-110"/>
      <use x="400" xlink:href="#SimSun-116"/>
      <use x="450" xlink:href="#SimSun-101"/>
      <use x="500" xlink:href="#SimSun-114"/>
      <use x="550" xlink:href="#SimSun-118"/>
      <use x="600" xlink:href="#SimSun-97"/>
      <use x="650" xlink:href="#SimSun-108"/>
     </g>
    </g>
   </g>
   <g id="matplotlib.axis_12">
    <g id="ytick_39">
     <g id="line2d_81">
      <g>
       <use style="stroke:#000000;stroke-width:0.8;" x="967.764706" xlink:href="#m6f0575d904" y="961.2"/>
      </g>
     </g>
     <g id="text_97">
      <!-- 0.0 -->
      <g transform="translate(944.861581 964.999219)scale(0.1 -0.1)">
       <use xlink:href="#DejaVuSans-48"/>
       <use x="63.623047" xlink:href="#DejaVuSans-46"/>
       <use x="95.410156" xlink:href="#DejaVuSans-48"/>
      </g>
     </g>
    </g>
    <g id="ytick_40">
     <g id="line2d_82">
      <g>
       <use style="stroke:#000000;stroke-width:0.8;" x="967.764706" xlink:href="#m6f0575d904" y="901.2"/>
      </g>
     </g>
     <g id="text_98">
      <!-- 0.1 -->
      <g transform="translate(944.861581 904.999219)scale(0.1 -0.1)">
       <use xlink:href="#DejaVuSans-48"/>
       <use x="63.623047" xlink:href="#DejaVuSans-46"/>
       <use x="95.410156" xlink:href="#DejaVuSans-49"/>
      </g>
     </g>
    </g>
    <g id="ytick_41">
     <g id="line2d_83">
      <g>
       <use style="stroke:#000000;stroke-width:0.8;" x="967.764706" xlink:href="#m6f0575d904" y="841.2"/>
      </g>
     </g>
     <g id="text_99">
      <!-- 0.2 -->
      <g transform="translate(944.861581 844.999219)scale(0.1 -0.1)">
       <use xlink:href="#DejaVuSans-48"/>
       <use x="63.623047" xlink:href="#DejaVuSans-46"/>
       <use x="95.410156" xlink:href="#DejaVuSans-50"/>
      </g>
     </g>
    </g>
    <g id="ytick_42">
     <g id="line2d_84">
      <g>
       <use style="stroke:#000000;stroke-width:0.8;" x="967.764706" xlink:href="#m6f0575d904" y="781.2"/>
      </g>
     </g>
     <g id="text_100">
      <!-- 0.3 -->
      <g transform="translate(944.861581 784.999219)scale(0.1 -0.1)">
       <use xlink:href="#DejaVuSans-48"/>
       <use x="63.623047" xlink:href="#DejaVuSans-46"/>
       <use x="95.410156" xlink:href="#DejaVuSans-51"/>
      </g>
     </g>
    </g>
    <g id="ytick_43">
     <g id="line2d_85">
      <g>
       <use style="stroke:#000000;stroke-width:0.8;" x="967.764706" xlink:href="#m6f0575d904" y="721.2"/>
      </g>
     </g>
     <g id="text_101">
      <!-- 0.4 -->
      <g transform="translate(944.861581 724.999219)scale(0.1 -0.1)">
       <use xlink:href="#DejaVuSans-48"/>
       <use x="63.623047" xlink:href="#DejaVuSans-46"/>
       <use x="95.410156" xlink:href="#DejaVuSans-52"/>
      </g>
     </g>
    </g>
    <g id="ytick_44">
     <g id="line2d_86">
      <g>
       <use style="stroke:#000000;stroke-width:0.8;" x="967.764706" xlink:href="#m6f0575d904" y="661.2"/>
      </g>
     </g>
     <g id="text_102">
      <!-- 0.5 -->
      <g transform="translate(944.861581 664.999219)scale(0.1 -0.1)">
       <use xlink:href="#DejaVuSans-48"/>
       <use x="63.623047" xlink:href="#DejaVuSans-46"/>
       <use x="95.410156" xlink:href="#DejaVuSans-53"/>
      </g>
     </g>
    </g>
    <g id="ytick_45">
     <g id="line2d_87">
      <g>
       <use style="stroke:#000000;stroke-width:0.8;" x="967.764706" xlink:href="#m6f0575d904" y="601.2"/>
      </g>
     </g>
     <g id="text_103">
      <!-- 0.6 -->
      <g transform="translate(944.861581 604.999219)scale(0.1 -0.1)">
       <use xlink:href="#DejaVuSans-48"/>
       <use x="63.623047" xlink:href="#DejaVuSans-46"/>
       <use x="95.410156" xlink:href="#DejaVuSans-54"/>
      </g>
     </g>
    </g>
    <g id="text_104">
     <!-- frequency/interval -->
     <g transform="translate(939.314706 826.2)rotate(-90)scale(0.12 -0.12)">
      <use xlink:href="#SimSun-102"/>
      <use x="50" xlink:href="#SimSun-114"/>
      <use x="100" xlink:href="#SimSun-101"/>
      <use x="150" xlink:href="#SimSun-113"/>
      <use x="200" xlink:href="#SimSun-117"/>
      <use x="250" xlink:href="#SimSun-101"/>
      <use x="300" xlink:href="#SimSun-110"/>
      <use x="350" xlink:href="#SimSun-99"/>
      <use x="400" xlink:href="#SimSun-121"/>
      <use x="450" xlink:href="#SimSun-47"/>
      <use x="500" xlink:href="#SimSun-105"/>
      <use x="550" xlink:href="#SimSun-110"/>
      <use x="600" xlink:href="#SimSun-116"/>
      <use x="650" xlink:href="#SimSun-101"/>
      <use x="700" xlink:href="#SimSun-114"/>
      <use x="750" xlink:href="#SimSun-118"/>
      <use x="800" xlink:href="#SimSun-97"/>
      <use x="850" xlink:href="#SimSun-108"/>
     </g>
    </g>
   </g>
   <g id="patch_64">
    <path d="M 967.764706 961.2 
L 967.764706 583.2 
" style="fill:none;stroke:#000000;stroke-linecap:square;stroke-linejoin:miter;stroke-width:0.8;"/>
   </g>
   <g id="patch_65">
    <path d="M 1296 961.2 
L 1296 583.2 
" style="fill:none;stroke:#000000;stroke-linecap:square;stroke-linejoin:miter;stroke-width:0.8;"/>
   </g>
   <g id="patch_66">
    <path d="M 967.764706 961.2 
L 1296 961.2 
" style="fill:none;stroke:#000000;stroke-linecap:square;stroke-linejoin:miter;stroke-width:0.8;"/>
   </g>
   <g id="patch_67">
    <path d="M 967.764706 583.2 
L 1296 583.2 
" style="fill:none;stroke:#000000;stroke-linecap:square;stroke-linejoin:miter;stroke-width:0.8;"/>
   </g>
   <g id="text_105">
    <!-- thesixthgroup -->
    <defs>
     <path d="M 26.171875 28.515625 
L 33.203125 39.0625 
Q 34.375 40.625 34.171875 41.796875 
Q 33.984375 42.96875 31.25 42.96875 
L 28.90625 42.96875 
L 28.90625 45.3125 
L 44.140625 45.3125 
L 44.140625 42.96875 
L 42.1875 42.96875 
Q 41.40625 42.96875 40.234375 42.765625 
Q 39.0625 42.578125 38.28125 41.40625 
L 27.734375 25.78125 
L 38.671875 7.8125 
Q 39.84375 5.859375 41.59375 4.875 
Q 43.359375 3.90625 44.140625 3.90625 
L 45.703125 3.90625 
L 45.703125 1.5625 
L 28.515625 1.5625 
L 28.515625 3.90625 
L 30.859375 3.90625 
Q 33.203125 3.90625 33.390625 5.078125 
Q 33.59375 6.25 32.8125 7.8125 
L 24.609375 21.09375 
L 15.234375 7.421875 
Q 14.84375 5.46875 15.421875 4.6875 
Q 16.015625 3.90625 17.578125 3.90625 
L 18.75 3.90625 
L 18.75 1.5625 
L 3.515625 1.5625 
L 3.515625 3.90625 
L 5.859375 3.90625 
Q 7.421875 3.90625 9.375 5.078125 
Q 11.328125 6.25 12.5 8.59375 
L 22.65625 23.828125 
L 12.5 40.234375 
Q 12.109375 41.015625 10.9375 41.984375 
Q 9.765625 42.96875 7.8125 42.96875 
L 5.859375 42.96875 
L 5.859375 45.3125 
L 22.65625 45.3125 
L 22.65625 42.96875 
L 21.484375 42.96875 
Q 19.53125 42.96875 19.140625 41.796875 
Q 18.75 40.625 19.53125 39.0625 
z
M 9.375 3.90625 
z
M 12.890625 3.90625 
z
M 39.453125 42.96875 
z
M 35.9375 42.96875 
z
M 35.15625 3.90625 
z
M 41.015625 3.90625 
z
M 17.1875 42.96875 
z
M 10.9375 42.96875 
z
" id="SimSun-120"/>
    </defs>
    <g transform="translate(1092.882353 577.2)scale(0.12 -0.12)">
     <use xlink:href="#SimSun-116"/>
     <use x="50" xlink:href="#SimSun-104"/>
     <use x="100" xlink:href="#SimSun-101"/>
     <use x="150" xlink:href="#SimSun-115"/>
     <use x="200" xlink:href="#SimSun-105"/>
     <use x="250" xlink:href="#SimSun-120"/>
     <use x="300" xlink:href="#SimSun-116"/>
     <use x="350" xlink:href="#SimSun-104"/>
     <use x="400" xlink:href="#SimSun-103"/>
     <use x="450" xlink:href="#SimSun-114"/>
     <use x="500" xlink:href="#SimSun-111"/>
     <use x="550" xlink:href="#SimSun-117"/>
     <use x="600" xlink:href="#SimSun-112"/>
    </g>
   </g>
  </g>
 </g>
 <defs>
  <clipPath id="pa5d2cdd88e">
   <rect height="378" width="328.235294" x="180" y="129.6"/>
  </clipPath>
  <clipPath id="pa52c6fff8e">
   <rect height="378" width="328.235294" x="573.882353" y="129.6"/>
  </clipPath>
  <clipPath id="p378ea5757e">
   <rect height="378" width="328.235294" x="967.764706" y="129.6"/>
  </clipPath>
  <clipPath id="p958f2adcb0">
   <rect height="378" width="328.235294" x="180" y="583.2"/>
  </clipPath>
  <clipPath id="pba5ab62468">
   <rect height="378" width="328.235294" x="573.882353" y="583.2"/>
  </clipPath>
  <clipPath id="p5a945f5100">
   <rect height="378" width="328.235294" x="967.764706" y="583.2"/>
  </clipPath>
 </defs>
</svg>
